<?xml version="1.0" standalone="no"?>
<!DOCTYPE svg PUBLIC "-//W3C//DTD SVG 1.1//EN" "http://www.w3.org/Graphics/SVG/1.1/DTD/svg11.dtd" >
<svg>
<metadata>
Created by FontForge 20110222 at Mon Mar  7 03:50:28 2011
 By www-data
Converted by ALLTYPE
</metadata>
<defs>
<font id="Army" horiz-adv-x="0" >
  <font-face 
    font-family="Army"
    font-weight="5"
    font-stretch="normal"
    units-per-em="1000"
    panose-1="0 0 0 0 0 0 0 0 0 0"
    ascent="800"
    descent="-200"
    x-height="667"
    cap-height="667"
    bbox="-71 -272 1110 909"
    underline-thickness="50"
    underline-position="-55"
    unicode-range="U+0020-25D9"
  />
    <missing-glyph />
    <glyph glyph-name="space" unicode=" " horiz-adv-x="278" 
 />
    <glyph glyph-name="space" unicode="&#xa0;" horiz-adv-x="278" 
 />
    <glyph glyph-name="exclam" unicode="!" horiz-adv-x="337" 
d="M168 -13q-40 0 -68 27t-28 66q0 40 28 67.5t68 27.5t67.5 -27.5t27.5 -67.5q0 -39 -28 -66t-67 -27v0zM268 561v-5v-4q-1 -21 -6.5 -45.5t-19.5 -65.5q-21 -64 -31 -107.5t-12 -81.5q-1 -20 -7.5 -28.5t-20.5 -8.5q-13 0 -19 7t-8 23q-1 8 -1.5 14t-0.5 12
q-1 6 -1.5 11.5t-1.5 10.5q-1 7 -2.5 13.5t-3.5 16.5q-6 26 -14 52.5t-19 56.5q-7 20 -12 34.5t-8 24.5q-2 7 -4 13.5t-3 13.5q-3 12 -4.5 24t-1.5 22q0 50 29 82.5t72 32.5q44 0 72 -33t28 -86v1z" />
    <glyph glyph-name="quotedbl" unicode="&#x22;" horiz-adv-x="410" 
d="M159 399h-94l-24 268h142l-24 -268v0zM345 399h-94l-24 268h142l-24 -268v0z" />
    <glyph glyph-name="numbersign" unicode="#" horiz-adv-x="574" 
d="M216 667h87l-36 -160h87l-15 -69h-87l-45 -204h86l-15 -68h-86l-37 -166h-87l37 166h-107l15 68h107l46 204h-108l16 69h107l35 160v0zM425 667h86l-35 -160h107l-15 -69h-107l-46 -204h108l-16 -68h-107l-37 -166h-88l150 667v0z" />
    <glyph glyph-name="dollar" unicode="$" horiz-adv-x="574" 
d="M260 730h41v-63q86 -7 136.5 -44t50.5 -95q0 -33 -21 -53.5t-55 -20.5q-31 0 -52 20t-21 49q0 6 0.5 10.5t1.5 9.5q2 8 6.5 16t12.5 20l4 12q0 9 -19 16.5t-44 7.5v-134l-41 22v110q-27 -7 -43 -25.5t-16 -44.5q0 -20 11 -37t32 -31q1 0 1.5 -0.5t0.5 -1.5l8 -4t8 -5
q13 -8 31 -16.5t46 -21.5q34 -16 55.5 -27.5t36.5 -21.5q9 -6 16 -12.5t14 -13.5l1.5 -1.5l1.5 -1.5q23 -25 36 -61.5t13 -77.5q0 -55 -24.5 -101t-69.5 -74q-23 -15 -51.5 -23.5t-66.5 -11.5v-73h-41v73q-89 5 -144 46.5t-55 103.5q0 35 23.5 59.5t56.5 24.5q32 0 54.5 -23
t22.5 -55q0 -19 -9.5 -37t-25.5 -26q-7 -4 -9 -6.5t-2 -4.5t1.5 -4.5t4.5 -5.5q9 -7 26 -13t36 -9q5 -1 10 -1.5t10 -0.5v154l41 -20v-132q38 2 61 24.5t23 54.5q0 20 -9 36t-29 30q-3 2 -5 3.5t-5 3.5q-1 1 -2 1.5t-2 0.5l-0.5 0.5l-0.5 0.5q-6 3 -14 7.5t-25 13.5
q-4 2 -9 4t-9 4q-5 2 -9.5 4.5t-9.5 4.5q-33 16 -55 28t-38 24q-10 7 -18 14t-15 15q-25 28 -38.5 63t-13.5 73q0 79 51 136t131 69v66v0z" />
    <glyph glyph-name="percent" unicode="%" horiz-adv-x="728" 
d="M532 283v-36q-18 -8 -25.5 -19.5t-7.5 -32.5v-107q0 -29 7 -42t26 -18v-35h-13q-67 0 -109.5 39t-42.5 103q0 65 43.5 106t111.5 41l10 1v0zM557 283h10q68 -1 111.5 -42.5t43.5 -106.5q0 -63 -42 -102t-110 -39h-13v36q19 4 26 17t7 41v109q0 20 -7.5 31.5t-25.5 18.5
v37v0zM498 666h57l-324 -666h-57l324 666v0zM172 673v-37q-18 -8 -25.5 -19.5t-7.5 -31.5v-107q0 -29 7 -42t26 -18v-35h-13q-67 -1 -109.5 38.5t-42.5 102.5q0 65 43.5 106.5t111.5 41.5l10 1v0zM197 673h10q68 -1 111.5 -42.5t43.5 -106.5q0 -63 -42 -102.5t-110 -39.5
l-13 1v36q19 4 26 17t7 41v109q0 19 -7.5 30.5t-25.5 18.5v38v0z" />
    <glyph glyph-name="ampersand" unicode="&#x26;" horiz-adv-x="696" 
d="M183 368l22 -45q-5 -8 -7.5 -13.5t-3.5 -9.5q-1 -2 -1 -3.5v-3.5v-1.5v-1.5q1 -5 3.5 -11.5t8.5 -18.5l89 -164q8 -15 16 -20.5t20 -5.5h5.5h8.5l26 -44q-31 -20 -65 -29.5t-69 -9.5q-86 0 -148 56t-62 134q0 42 20.5 79t60.5 69q8 6 15 11t14 9q11 7 22.5 12t24.5 10v1z
M428 0l-223 400q-6 10 -11.5 27.5t-8.5 36.5q-3 13 -4.5 25.5t-1.5 22.5q0 69 55.5 119t133.5 50h3.5h3.5q6 0 11.5 -1t13.5 -2v-60q-15 -6 -23 -17.5t-8 -27.5q0 -5 1 -11.5t3 -13.5q2 -5 4 -10.5t5 -10.5l236 -440q2 -5 4.5 -9t4.5 -7q3 -4 6 -7t7 -6q2 -2 5.5 -4t7.5 -4
q3 -2 5.5 -4t4.5 -4q4 -3 5.5 -7t1.5 -9q0 -13 -9 -19.5t-26 -6.5h-207v0zM580 241l-25 47q4 5 6.5 10.5t4.5 11.5q2 5 3 10.5t1 11.5q0 9 -2 18t-6 16l-9 15l-4 15q0 12 16.5 21.5t38.5 9.5q17 0 26 -14t9 -41q0 -16 -2.5 -30.5t-8.5 -28.5q-6 -17 -18 -34.5t-30 -38.5v1z
M443 618v55q44 -9 71.5 -42t27.5 -77q0 -35 -18 -65.5t-50 -52.5l-23 47q10 8 17 15.5t12 14.5q5 9 7 17.5t2 18.5q0 24 -11 40t-35 28v1z" />
    <glyph glyph-name="quotesingle" unicode="'" horiz-adv-x="224" 
d="M159 399h-94l-24 268h142l-24 -268v0z" />
    <glyph glyph-name="parenleft" unicode="(" horiz-adv-x="419" 
d="M92 262q0 31 3.5 60t11.5 58q7 24 17 48t23 50q25 50 53.5 89.5t62.5 70.5q22 20 38 31t24 11q2 0 4.5 -1t5.5 -2q3 -2 5.5 -3.5t4.5 -3.5t3.5 -4t2.5 -4q1 -3 1.5 -5t0.5 -4q0 -4 -2.5 -11.5t-7.5 -15.5q-28 -52 -45 -150.5t-17 -214.5t17 -213.5t45 -149.5
q5 -9 7.5 -16.5t2.5 -11.5q0 -2 -0.5 -4.5t-2.5 -5.5q-1 -2 -3 -4.5t-4 -4.5q-1 -1 -3 -2t-3 -2q-3 -2 -6 -3t-6 -1q-10 0 -32 16.5t-46 40.5q-11 12 -21.5 24.5t-20.5 25.5q-18 23 -34.5 51t-30.5 57q-7 13 -12 26t-10 25q-2 5 -3.5 9.5t-2.5 8.5q-10 32 -15 65t-5 69v1z
" />
    <glyph glyph-name="parenright" unicode=")" horiz-adv-x="419" 
d="M327 262q0 -32 -3.5 -61.5t-11.5 -58.5q-7 -24 -17 -48t-23 -50q-25 -49 -53.5 -88.5t-62.5 -70.5q-22 -20 -38 -31t-25 -11q-2 0 -4.5 1t-4.5 2q-3 2 -5.5 3.5t-4.5 3.5q-4 4 -6 8.5t-2 8.5t3 11.5t7 16.5q29 52 45.5 149.5t16.5 213.5t-16.5 214.5t-45.5 150.5
q-4 8 -7 15.5t-3 11.5q0 2 0.5 4.5t2.5 5.5q1 2 3 4.5t4 4.5l2 2t3 1q3 3 6.5 4t5.5 1q11 0 32.5 -16t45.5 -41q11 -11 22 -24t21 -26q17 -22 33 -49t30 -55q7 -14 13 -28t11 -27q3 -9 6 -18.5t6 -18.5q7 -28 10.5 -56t3.5 -60v1z" />
    <glyph glyph-name="asterisk" unicode="*" horiz-adv-x="574" 
d="M276 477l-10 -116q-1 -20 -12 -31t-27 -11q-13 0 -29.5 9t-37.5 28q-4 4 -7.5 8t-6.5 8q-3 5 -4.5 10t-1.5 11q0 12 8 22t21 15l107 47v0zM299 477l107 -46q14 -6 21.5 -16t7.5 -23q0 -3 -0.5 -6.5t-2.5 -7.5q-2 -7 -7.5 -13.5t-14.5 -14.5q-3 -2 -6.5 -4.5t-7.5 -5.5
q-1 -1 -3 -2l-4 -2q-5 -3 -9.5 -6t-8.5 -5t-7 -3l-6 -2q-2 -1 -4.5 -1h-5.5q-16 0 -26.5 11t-12.5 30l-10 117v0zM268 499l-113 -26l-13 -2q-17 -1 -28.5 10.5t-11.5 28.5q0 8 2 18.5t6 21.5q3 9 7.5 18l8.5 17q4 7 10.5 11.5t14.5 5.5q2 1 3.5 1h3.5q10 0 18.5 -4.5
t15.5 -12.5l76 -87v0zM307 499l76 88q7 7 15.5 11.5t18.5 4.5h2.5h2.5q8 -2 15.5 -6.5t11.5 -11.5q5 -7 9 -17.5t8 -21.5q3 -10 5 -20t2 -17q0 -16 -11.5 -27.5t-28.5 -11.5l-13 3l-113 26v0zM288 513l-60 99q-3 4 -4.5 7.5t-2.5 7.5q0 2 -0.5 4.5t-0.5 5.5q0 20 16 31
t47 11q38 0 55 -10t17 -32q0 -3 -0.5 -5.5t-0.5 -4.5q-1 -4 -2.5 -7.5t-4.5 -8.5l-59 -98v0z" />
    <glyph glyph-name="plus" unicode="+" horiz-adv-x="574" 
d="M343 283v-177q0 -12 -4.5 -16.5t-15.5 -4.5l-72 1q-11 -1 -15.5 3.5t-4.5 15.5v178h-174q-11 -1 -15.5 3.5t-4.5 15.5v64q0 10 4.5 14.5t15.5 4.5l174 1v176q0 10 4.5 14.5t15.5 4.5l72 1q11 -1 15.5 -5.5t4.5 -15.5v-175h173q12 -1 16 -5.5t4 -15.5v-62q0 -12 -4 -16.5
t-16 -4.5l-173 1v0z" />
    <glyph glyph-name="comma" unicode="," horiz-adv-x="334" 
d="M268 64q0 -7 -0.5 -13t-1.5 -12q-7 -41 -35.5 -81.5t-73.5 -70.5q-22 -14 -39 -21t-29 -7q-10 0 -16 6t-6 16q0 7 4.5 13t13.5 11q15 7 26 14t20 14q5 4 9 7t7 7l2.5 2.5l2.5 2.5q8 9 13 16.5t5 12.5t-3.5 7.5t-11.5 3.5l-6 1l-7 1q-31 4 -51 28.5t-20 58.5q0 39 27 66
t66 27q43 0 73.5 -32.5t30.5 -78.5v1z" />
    <glyph glyph-name="hyphen" unicode="-" horiz-adv-x="250" 
d="M250 365v-68q0 -12 -4.5 -16.5t-15.5 -4.5l-210 1q-11 -1 -15.5 3.5t-4.5 15.5v69q0 10 4.5 14.5t15.5 4.5l210 1q11 -1 15.5 -5.5t4.5 -15.5v1z" />
    <glyph glyph-name="period" unicode="." horiz-adv-x="325" 
d="M163 -13q-40 0 -68 27t-28 66q0 40 28 67.5t68 27.5t68 -27.5t28 -67.5q0 -39 -28 -66t-68 -27v0z" />
    <glyph glyph-name="slash" unicode="/" horiz-adv-x="332" 
d="M239 717h120l-279 -794h-120l279 794v0z" />
    <glyph glyph-name="zero" unicode="0" horiz-adv-x="574" 
d="M268 -8q-109 13 -175.5 107.5t-66.5 233.5t66.5 233t175.5 108v-50q-23 -8 -32 -23t-9 -47v-442q0 -32 9 -47t32 -23v-50v0zM305 -8v51q23 7 32 22t9 46v444q0 31 -9 46t-32 22v52q109 -15 175.5 -109t66.5 -233t-66.5 -233.5t-175.5 -107.5v0z" />
    <glyph glyph-name="one" unicode="1" horiz-adv-x="574" 
d="M381 667v-574q0 -19 4.5 -26t21.5 -12q3 -1 5.5 -1.5t5.5 -1.5q11 -2 17 -8.5t6 -16.5q0 -14 -10 -20.5t-33 -6.5h-16h-188h-16q-22 0 -33 6.5t-11 20.5q0 10 6.5 16.5t17.5 8.5q4 1 7 1.5t5 1.5q17 5 21 12t4 25v458q0 25 -5.5 36.5t-16.5 12.5l-17 4q-10 1 -16.5 6.5
t-6.5 15.5q0 15 10 22t35 8l203 12v0z" />
    <glyph glyph-name="two" unicode="2" horiz-adv-x="574" 
d="M424 153q22 -1 31.5 7.5t13.5 31.5q3 12 9 18t15 6q12 0 18.5 -9.5t6.5 -26.5q0 -14 -4 -30.5t-10 -33.5q-8 -18 -17.5 -35t-20.5 -31q-15 -19 -38.5 -33t-48.5 -20q-9 -2 -17.5 -3.5t-17.5 -1.5h-7.5h-6.5q-19 1 -44 6.5t-79 21.5q-27 8 -44.5 11.5t-28.5 3.5
q-4 0 -8.5 -0.5t-8.5 -2.5q-6 -2 -12 -6t-14 -10q-6 -5 -10.5 -8t-8.5 -4h-2h-2q-10 0 -16.5 7.5t-6.5 19.5q0 59 46.5 102.5t110.5 43.5h21t3 0q15 -1 34 -3t48 -7q39 -7 55 -9.5t28 -3.5h0.5h1.5q9 -1 17 -1.5t14 -0.5v1zM258 622v53h13q99 -1 162.5 -54.5t63.5 -136.5
q0 -66 -39 -117t-110 -80l-64 -24q-14 -7 -33.5 -17t-45.5 -24l-14 -7q-6 -1 -11.5 -1.5t-10.5 -0.5q-13 -2 -28 -7.5t-40 -16.5q3 4 5 7t5 6q5 6 9.5 11.5t9.5 11.5q11 11 25 22.5t34 27.5q31 24 46 37t24 24q3 2 5 5l4 6q1 1 1.5 2t1.5 2q15 24 21.5 54.5t6.5 76.5
q0 68 -8.5 97t-32.5 42v1zM215 674v-52q-14 -4 -22 -9t-8 -12q0 -1 0.5 -2.5t1.5 -2.5q1 -2 4 -4t7 -5q19 -10 30 -30t11 -43q0 -39 -27.5 -66t-67.5 -27t-68 29t-28 70q0 46 29.5 83.5t78.5 54.5q4 1 7 2l6 2l6 2l6 2q7 1 15 3t19 4v1z" />
    <glyph glyph-name="three" unicode="3" horiz-adv-x="574" 
d="M228 44v-52q-88 10 -136.5 49.5t-48.5 98.5q0 41 26.5 68.5t65.5 27.5q36 0 63.5 -25.5t27.5 -60.5q0 -20 -9 -39t-26 -31l-10 -10t-4 -6v-0.5v-0.5q0 -8 14.5 -14t36.5 -6v1zM271 623v52h12q101 -1 165 -49.5t64 -125.5q0 -34 -13 -63.5t-38 -52.5q-2 -2 -4.5 -4
t-4.5 -3q-10 -8 -20.5 -14t-24.5 -12q-7 -2 -15 -5t-18 -6q18 -5 31 -9.5t23 -8.5t18 -8.5t15 -9.5q1 -1 2 -1.5t2 -1.5q27 -19 42 -52.5t15 -72.5q0 -82 -63.5 -133t-167.5 -51h-20v52q29 7 40.5 22.5t11.5 44.5v141q0 33 -13 49.5t-42 17.5q-20 1 -28 7t-8 19t7.5 18.5
t28.5 7.5q32 2 43.5 18t11.5 56v111q0 30 -11.5 44.5t-40.5 21.5v1zM228 673v-50q-19 -5 -27.5 -11.5t-8.5 -15.5q0 -3 2.5 -6.5t6.5 -8.5q11 -9 17.5 -15.5t10.5 -12.5q5 -7 6.5 -15.5t1.5 -20.5q0 -36 -25.5 -61t-61.5 -25q-37 0 -61 26t-24 65q0 37 21.5 70t58.5 52
q3 2 6.5 3.5t6.5 3.5q15 7 31.5 12t38.5 9v1z" />
    <glyph glyph-name="four" unicode="4" horiz-adv-x="574" 
d="M268 542l77 105q3 3 5 6t5 5q5 5 12 6.5t22 1.5l43 1q16 -1 20 -6t4 -22v-435h61q13 -1 19 -7t6 -18q0 -13 -7 -19.5t-21 -6.5l-58 1v-61q0 -19 4.5 -26t21.5 -12q3 -1 5.5 -1.5t5.5 -1.5q11 -2 17 -8.5t6 -16.5q0 -14 -10 -20.5t-33 -6.5h-16h-190h-16q-22 0 -32.5 6.5
t-10.5 20.5q0 10 6 16.5t17 8.5q4 1 7 1.5t5 1.5q17 5 21 12t4 25v450v0zM229 488v-72l-153 -212h153v-50h-170q-21 -1 -28.5 5.5t-7.5 24.5q0 6 1 11.5t3 10.5t5 10.5t8 11.5l7 11l182 249v0z" />
    <glyph glyph-name="five" unicode="5" horiz-adv-x="574" 
d="M274 356v71q49 -1 84 -9t65 -26q50 -28 74.5 -73.5t24.5 -105.5q0 -52 -19 -96.5t-54 -72.5q-25 -20 -57.5 -32.5t-66.5 -17.5q-9 -1 -17.5 -1.5t-16.5 -0.5h-17v55q26 8 37 29.5t11 62.5v126q0 42 -9.5 61t-38.5 29v1zM233 47v-53q-76 4 -128.5 46t-52.5 99
q0 42 26.5 70.5t66.5 28.5q36 0 62 -24.5t26 -59.5v-4.5t-1 -4.5q-2 -19 -11 -36.5t-22 -26.5q-5 -3 -7 -5t-3 -4q-1 -1 -1 -2.5v-2.5q0 -7 12 -13.5t33 -8.5v1zM95 477l45 -5l-8 -102q17 13 30.5 22.5t27.5 15.5q10 6 20.5 9.5t22.5 6.5v-68q-3 -2 -6 -2.5t-6 -1.5
q-20 -5 -35 -10t-29 -13q-3 -2 -6 -3.5t-6 -3.5q-12 -8 -19 -11.5t-14 -3.5h-0.5h-1.5q-12 0 -19.5 7.5t-7.5 18.5v15l12 129v0zM99 514l14 161l18 -2l99 -11q26 -4 58 -5.5t67 -1.5t60 2t48 7q9 2 17.5 4.5t17.5 5.5q-12 -38 -28 -64t-45 -49q-38 -32 -81.5 -45t-113.5 -13
q-33 0 -60 1.5t-54 5.5q-4 1 -8.5 1.5t-8.5 1.5v1z" />
    <glyph glyph-name="six" unicode="6" horiz-adv-x="574" 
d="M288 675v-49q-27 -9 -38.5 -25.5t-11.5 -46.5v-446q0 -36 6.5 -47.5t30.5 -17.5q0 -1 0.5 -1h1.5v-50q-109 11 -173 104.5t-64 240.5q0 83 24.5 150t71.5 115q35 35 72 53t80 19v1zM277 306v56q21 10 39.5 17t37.5 9q6 1 12 1.5t12 0.5q72 0 121 -49.5t49 -123.5
q0 -8 -0.5 -15.5t-1.5 -15.5q-6 -37 -23 -72t-41 -60q-23 -22 -54.5 -37.5t-64.5 -20.5q-10 -2 -20 -3t-19 -1h-11v51q19 4 27 15t8 31v184q0 22 -8.5 34t-24.5 12h-1.5h-1.5q-6 -1 -14 -4t-21 -10v1zM325 626v49q78 -3 132.5 -45t54.5 -101q0 -40 -27 -67.5t-68 -27.5
q-37 0 -62 23.5t-25 57.5q0 7 1 13t3 13q3 6 6.5 12t9.5 13q8 10 11 16t4 11v1.5v1.5q0 12 -9.5 19t-30.5 10v1z" />
    <glyph glyph-name="seven" unicode="7" horiz-adv-x="574" 
d="M427 471q-13 -24 -21 -40.5t-14 -32.5q-2 -4 -3.5 -9t-3.5 -10q-4 -11 -7 -23t-6 -25q-5 -22 -8 -43t-3 -37l3 -38l10 -55q3 -14 4 -26.5t1 -24.5q0 -50 -29.5 -82.5t-76.5 -32.5t-77 36t-30 94q0 32 11 66t32 68q10 15 25.5 34.5t47.5 55.5q39 44 57 67.5t25 39.5
q5 1 10 1.5t10 1.5q9 2 19.5 5.5t23.5 8.5v1zM66 454l31 208h36l-7 -57q19 18 36.5 31t35.5 22q17 8 34.5 12t36.5 4h11.5t10.5 -1q9 -1 20 -3.5t29 -7.5q4 -1 8.5 -2.5t9.5 -3.5q12 -3 22 -6.5t13 -4.5q15 -5 28 -8t20 -3q6 0 11.5 2.5t10.5 8.5l5 7q2 1 4 2.5t4 2.5t4 1.5
t4 0.5q8 0 13 -6t5 -14t-4 -22t-10 -29q-5 -11 -10.5 -21.5t-11.5 -18.5q-19 -28 -47.5 -42.5t-66.5 -14.5q-12 0 -23.5 1.5t-22.5 3.5q-4 1 -11.5 3t-27.5 6q-5 1 -9.5 2t-8.5 2q-2 0 -4.5 1t-4.5 1q-31 8 -53 11.5t-36 3.5q-25 0 -35.5 -14t-11.5 -48v-10h-38v0z" />
    <glyph glyph-name="eight" unicode="8" horiz-adv-x="574" 
d="M270 628q-2 -2 -3.5 -3t-2.5 -2q-16 -9 -21 -22t-5 -42v-134q0 -22 8 -36t24 -20v-51q-17 -8 -24.5 -19.5t-7.5 -34.5v-166q0 -25 8 -38t24 -18v-50h-10q-58 2 -99.5 13t-67.5 33q-27 22 -41.5 54t-14.5 71q0 50 22 88.5t64 62.5q1 1 2.5 2t3.5 1q7 4 14 7.5t15 6.5t18 6
t22 7q-9 3 -17 5.5t-15 4.5q-18 6 -30.5 13t-24.5 16q-1 0 -1.5 0.5l-1.5 1.5q-25 21 -38.5 50.5t-13.5 64.5q0 53 29 94t78 60q5 2 10.5 4t10.5 3q19 6 39 9t47 4v-46v0zM304 628v47q27 -2 47 -5t39 -9q5 -1 10.5 -3t10.5 -4q50 -19 78.5 -60t28.5 -94q0 -40 -17.5 -72.5
t-51.5 -53.5q-9 -6 -19 -11t-23 -9q-7 -3 -14.5 -5t-16.5 -5q12 -3 21.5 -6.5t17.5 -6.5q16 -6 28 -12.5t23 -14.5q1 0 1.5 -0.5l1.5 -1.5q33 -23 50.5 -59t17.5 -80q0 -45 -19 -80t-55 -58q-25 -15 -63 -23.5t-86 -9.5h-10v51q17 4 24.5 17t7.5 37v168q0 22 -7.5 33.5
t-24.5 18.5v53q16 5 24 19t8 35v136q0 28 -5 41t-21 22q-1 1 -2.5 2t-3.5 2v1z" />
    <glyph glyph-name="nine" unicode="9" horiz-adv-x="574" 
d="M250 41v-49q-79 2 -133.5 44t-54.5 100q0 41 28 68t68 27q36 0 61.5 -23.5t25.5 -57.5q0 -11 -3 -21t-9 -18l-16 -22q-2 -3 -3.5 -5t-1.5 -4q-1 -3 -1.5 -5t-0.5 -4q0 -12 11 -20.5t29 -10.5v1zM287 -8v49q25 7 37 24.5t12 45.5v452q0 33 -5.5 44t-27.5 18q-2 0 -3 0.5
t-2 0.5v49q109 -13 173 -106.5t64 -240.5q0 -82 -24.5 -149.5t-72.5 -115.5q-34 -35 -70.5 -52.5t-80.5 -18.5v0zM298 362v-57q-19 -11 -36 -17.5t-33 -9.5l-16 -2t-17 -1q-72 0 -120.5 50t-48.5 123q0 60 29.5 113t77.5 81q29 17 60 24.5t67 7.5v-47q-18 -5 -26 -16t-8 -31
v-186q0 -23 8.5 -35t23.5 -12h2.5h2.5q7 1 14.5 4t19.5 10v1z" />
    <glyph glyph-name="colon" unicode=":" horiz-adv-x="325" 
d="M163 -13q-40 0 -68 27t-28 66q0 40 28 67.5t68 27.5t68 -27.5t28 -67.5q0 -39 -28 -66t-68 -27v0zM163 306q-40 -1 -68 27t-28 67t28 66.5t68 27.5t68 -27.5t28 -66.5t-28 -67t-68 -28v1z" />
    <glyph glyph-name="semicolon" unicode=";" horiz-adv-x="334" 
d="M268 64q0 -7 -0.5 -13t-1.5 -12q-7 -41 -35.5 -81.5t-73.5 -70.5q-22 -14 -39 -21t-29 -7q-10 0 -16 6t-6 16q0 7 4.5 13t13.5 11q15 7 26 14t20 14q5 4 9 7t7 7l2.5 2.5l2.5 2.5q8 9 13 16.5t5 12.5t-3.5 7.5t-11.5 3.5l-6 1l-7 1q-31 4 -51 28.5t-20 58.5q0 39 27 66
t66 27q43 0 73.5 -32.5t30.5 -78.5v1zM171 306q-40 -1 -68 26.5t-28 66.5q0 40 28 67.5t68 27.5t68 -27.5t28 -67.5q0 -39 -28 -66.5t-68 -27.5v1z" />
    <glyph glyph-name="less" unicode="&#x3c;" horiz-adv-x="500" 
d="M461 639v-69l-237 -149l237 -162v-183l-423 291v9l423 263v0z" />
    <glyph glyph-name="equal" unicode="=" horiz-adv-x="574" 
d="M536 265v-64q0 -12 -4 -16.5t-16 -4.5l-459 1q-11 -1 -15.5 3.5t-4.5 15.5v65q0 10 4.5 14.5t15.5 4.5l459 1q12 -1 16 -5.5t4 -15.5v1zM536 467v-64q0 -12 -4 -16.5t-16 -4.5l-459 1q-11 -1 -15.5 3.5t-4.5 15.5v65q0 11 4.5 15t15.5 4l459 1q12 -1 16 -5t4 -16v1z" />
    <glyph glyph-name="greater" unicode="&#x3e;" horiz-adv-x="500" 
d="M38 76v69l238 149l-238 162v183l423 -291v-9l-423 -263v0z" />
    <glyph glyph-name="question" unicode="?" horiz-adv-x="540" 
d="M216 -13q-40 0 -68 27t-28 66q0 40 28 67.5t68 27.5t67.5 -27.5t27.5 -67.5q0 -39 -27.5 -66t-67.5 -27v0zM295 624v54q79 -11 129 -65.5t50 -130.5q0 -84 -57.5 -142.5t-152.5 -69.5q-24 -2 -29.5 -7t-6.5 -25q0 -16 -5.5 -23t-17.5 -7q-13 0 -20 7.5t-7 21.5v172
q0 14 5 17t26 4q52 2 84 34.5t32 84.5q0 26 -7 43.5t-23 30.5v1zM252 680v-54q-14 -2 -19 -6t-5 -14l3 -13l4 -12q2 -6 3 -11.5t1 -12.5q0 -33 -24.5 -55.5t-59.5 -22.5q-37 0 -62.5 24.5t-25.5 58.5q0 50 50.5 83.5t123.5 33.5l11 1v0z" />
    <glyph glyph-name="at" unicode="@" horiz-adv-x="707" 
d="M524 227q5 1 9 2t8 3q9 3 16.5 7t14.5 9q25 18 41 56t17 80v2.5v2.5q0 100 -72.5 165.5t-182.5 65.5q-127 0 -212.5 -85t-85.5 -211q0 -58 22.5 -111t63.5 -93t92 -58t125 -18q26 0 50 2t48 6q19 3 39 8t41 11l19 -52q-7 -4 -12.5 -6t-11.5 -4q-5 -2 -10.5 -3.5
t-12.5 -2.5q-4 -1 -8 -1.5t-9 -1.5q-19 -3 -41 -5.5t-45 -4.5q-16 -1 -31 -1.5t-29 -0.5q-73 0 -134 22t-108 66q-49 47 -77 113t-28 137q0 148 102.5 249.5t250.5 101.5q134 0 224 -83t90 -206q0 -59 -24 -109t-66 -79q-3 -2 -5.5 -3.5t-4.5 -2.5q-13 -8 -27.5 -13.5
t-34.5 -10.5q-3 -1 -6 -1.5t-6 -1.5l11 60v0zM333 382l-20 -87q-3 -15 -4.5 -26.5t-1.5 -19.5q0 -16 4.5 -24t14.5 -9q8 -1 11.5 -5t3.5 -15q0 -16 -18 -26.5t-47 -10.5q-38 0 -63.5 29t-25.5 73q0 14 1.5 28.5t5.5 28.5q7 32 21 63t33 55q25 32 55 47.5t67 15.5q11 0 17 -3
t6 -10l-1 -7l-4 -15q0 -2 -0.5 -3t-1.5 -2t-2 -2.5t-2 -2.5q-2 -2 -4.5 -4t-7.5 -5q-15 -10 -23.5 -24.5t-13.5 -39.5v1zM528 500l-50 -227l-4 -26q0 -13 5 -18t17 -4l-12 -59q-11 -3 -20 -4.5t-17 -2.5h-8h-9q-34 0 -54 16t-20 43l5 32l50 225q3 13 7.5 18.5t11.5 5.5l33 1
h65v0z" />
    <glyph glyph-name="A" unicode="A" horiz-adv-x="619" 
d="M202 542l25 -101l-87 -315q-1 -4 -1.5 -7.5t-0.5 -6.5q-1 -3 -1 -6.5v-6.5q0 -14 7.5 -25.5t21.5 -17.5l16 -7q8 -5 12.5 -11.5t4.5 -14.5q0 -11 -9.5 -17t-26.5 -6h-124q-17 0 -28 7t-11 19q0 8 5 14t17 11q31 14 45.5 32t24.5 56l110 403v0zM236 667h197l135 -574
q1 -4 1.5 -6.5t1.5 -5.5q4 -14 9.5 -20.5t16.5 -10.5q1 -1 2.5 -1.5t2.5 -0.5q10 -5 13.5 -10.5t3.5 -14.5q0 -11 -9.5 -17t-28.5 -6h-244q-14 0 -23 6.5t-9 18.5q0 6 1.5 10t4.5 7q3 2 7 4.5t9 5.5q1 1 2 1.5t2 0.5q7 5 10 10.5t3 14.5l-1 14l-16 71h-136l13 60h110
l-90 395l12 48v0z" />
    <glyph glyph-name="B" unicode="B" horiz-adv-x="670" 
d="M308 667v-667h-218h-13q-19 0 -28 6.5t-9 19.5q0 9 5 15.5t15 9.5q4 1 7.5 2.5t6.5 2.5q11 5 13.5 11t2.5 21v490q0 14 -2.5 20t-13.5 11q-3 1 -6.5 2.5t-7.5 2.5q-10 3 -15 9.5t-5 15.5q0 14 9.5 20.5t27.5 6.5l13 1h218v0zM348 613v54h54q107 -1 166 -43.5t59 -118.5
q0 -39 -17.5 -72.5t-49.5 -52.5q-3 -2 -6 -3.5t-6 -3.5q-10 -5 -21 -9.5t-24 -8.5q-9 -3 -20 -5.5t-24 -5.5q15 -3 26.5 -5.5t20.5 -5.5q9 -2 17 -4.5t15 -5.5q4 -2 7.5 -3.5t7.5 -3.5q40 -20 61.5 -57t21.5 -85q0 -46 -18.5 -81.5t-54.5 -58.5q-3 -2 -6 -3.5t-6 -3.5
q-29 -15 -62 -21t-85 -6h-56v51q35 1 50.5 19t15.5 56v112q0 38 -15.5 57.5t-50.5 23.5v52q38 1 52 19.5t14 62.5v85q0 33 -17 52t-49 22v1z" />
    <glyph glyph-name="C" unicode="C" horiz-adv-x="584" 
d="M309 680v-59q-28 -5 -42 -26.5t-14 -59.5v-403v-21q2 -29 16.5 -46t39.5 -19v-59q-136 3 -212.5 92t-76.5 243q0 69 16.5 128t47.5 105q26 37 63 65.5t76 43.5q18 7 36.5 11t35.5 4l14 1v0zM349 -13v60q50 2 90.5 35t55.5 82q5 16 11.5 22.5t17.5 6.5t19 -8.5t8 -21.5
q0 -14 -6.5 -31.5t-18.5 -35.5q-9 -15 -20.5 -29t-24.5 -26q-4 -4 -8 -7l-8 -6q-27 -21 -54.5 -30.5t-61.5 -10.5v0zM349 621v58q2 -1 4.5 -1.5t4.5 -0.5q4 -1 8.5 -1.5t8.5 -1.5q11 -3 25 -7.5t41 -14.5q14 -5 21 -7t12 -2h2h2q5 1 10 4.5t7 8.5l6 13q3 4 9 7t13 3
q14 0 20.5 -8t6.5 -23v-202q0 -18 -7 -28t-21 -10q-11 0 -18.5 8t-11.5 24q-21 80 -58 126.5t-85 53.5v1z" />
    <glyph glyph-name="D" unicode="D" horiz-adv-x="648" 
d="M308 667v-667h-218h-13q-19 0 -28 6.5t-9 19.5q0 9 5 15.5t15 9.5q4 1 7.5 2.5t6.5 2.5q11 5 13.5 11t2.5 21v490q0 14 -2.5 20t-13.5 11q-3 1 -6.5 2.5t-7.5 2.5q-10 3 -15 9.5t-5 15.5q0 14 9.5 20.5t27.5 6.5l13 1h218v0zM348 612v55q29 -1 50 -4t40 -10
q8 -3 16.5 -6.5t17.5 -8.5q77 -40 117 -118t40 -185q0 -108 -43 -189.5t-122 -122.5q-7 -4 -14 -7l-14 -6q-18 -6 -37.5 -8t-50.5 -2v53q35 7 45.5 23.5t10.5 61.5v387q0 41 -12.5 61t-43.5 25v1z" />
    <glyph glyph-name="E" unicode="E" horiz-adv-x="587" 
d="M308 667v-667h-218h-13q-19 0 -28 6.5t-9 19.5q0 9 5 15.5t15 9.5q4 1 7.5 2.5t6.5 2.5q11 5 13.5 11t2.5 21v490q0 14 -2.5 20t-13.5 11q-3 1 -6.5 2.5t-7.5 2.5q-10 3 -15 9.5t-5 15.5q0 14 9.5 20.5t27.5 6.5l13 1h218v0zM349 0v53q59 7 95 38t57 89q1 3 2.5 6l2.5 5
q5 9 9.5 12.5t12.5 3.5q15 0 20.5 -7.5t5.5 -28.5v-171h-205v0zM349 311v57q28 13 41.5 28.5t19.5 42.5q5 19 10.5 26t18.5 7q14 0 19 -8.5t5 -32.5v-185q0 -24 -5 -32.5t-19 -8.5q-11 0 -17 6.5t-11 22.5q-8 34 -23 52t-39 24v1zM349 667h198v-174q0 -16 -5.5 -23t-18.5 -7
q-10 0 -15 3.5t-9 13.5q-1 1 -1.5 2.5t-0.5 2.5q-19 58 -55 87.5t-93 35.5v59v0z" />
    <glyph glyph-name="F" unicode="F" horiz-adv-x="566" 
d="M308 667v-574q0 -19 4.5 -26t21.5 -12q3 -1 5.5 -1.5t5.5 -1.5q11 -2 17 -8.5t6 -16.5q0 -14 -10 -20.5t-33 -6.5h-16h-219h-13q-19 0 -28 6.5t-9 19.5q0 9 5 15.5t15 9.5q4 1 7.5 2.5t6.5 2.5q11 5 13.5 11t2.5 21v490q0 14 -2.5 20t-13.5 11q-3 1 -6.5 2.5t-7.5 2.5
q-10 3 -15 9.5t-5 15.5q0 14 9.5 20.5t27.5 6.5l13 1h218v0zM348 311v57q29 13 42 28.5t19 42.5q5 19 11 26t18 7q14 0 19 -8.5t5 -32.5v-185q0 -24 -5 -32.5t-19 -8.5q-10 0 -16.5 6.5t-10.5 22.5q-8 34 -23 52t-40 24v1zM348 667h198v-172q0 -17 -5.5 -24.5t-19.5 -7.5
q-10 0 -15.5 5t-9.5 17q-17 56 -53.5 86.5t-94.5 36.5v59v0z" />
    <glyph glyph-name="G" unicode="G" horiz-adv-x="620" 
d="M295 680v-54q-22 -5 -32.5 -22.5t-10.5 -46.5v-454q0 -28 7.5 -41t26.5 -21v-54h-5q-11 0 -26.5 3.5t-32.5 9.5q-10 2 -19 6t-18 9q-79 41 -122 121.5t-43 187.5q0 113 42.5 197t120.5 127q22 12 41 19t38 10q8 1 16.5 1.5t16.5 0.5v1zM326 -13v55q23 5 32 19t9 41v144
q0 16 -4 23t-20 12q-3 0 -6 1t-7 2q-11 2 -17 9t-6 17q0 14 10.5 20.5t32.5 6.5l17 1h179q23 -1 32 -7t9 -22q0 -6 -2 -11t-6 -10q-2 -1 -4 -3t-5 -4q-2 -1 -3 -2l-2 -2q-7 -4 -8.5 -10.5t-1.5 -19.5v-165q-5 -6 -11.5 -11.5t-13.5 -10.5q-11 -8 -23.5 -16t-24.5 -15
q-8 -4 -15.5 -8t-14.5 -7q-29 -13 -61 -19.5t-65 -7.5v0zM335 627v53q40 -5 71.5 -11t58.5 -17l23 -5q3 -1 5.5 -1t4.5 1q3 2 7 6.5t12 14.5q1 2 2.5 3t2.5 2q4 3 8 4.5t9 1.5q14 0 19.5 -7t5.5 -25v-190q0 -19 -6.5 -28.5t-20.5 -9.5q-12 0 -19 6t-12 23q-1 2 -1 3.5
t-1 3.5q-3 12 -8 25t-12 26q-6 14 -14 28t-16 26q-5 8 -10 14.5t-10 11.5q-18 19 -42 29t-57 11v1z" />
    <glyph glyph-name="H" unicode="H" horiz-adv-x="755" 
d="M318 0h-218h-13q-19 0 -28 6.5t-9 19.5q0 9 5 15.5t15 9.5q4 1 7.5 2.5t6.5 2.5q11 5 13.5 11t2.5 21v490q0 14 -2.5 20t-13.5 11q-3 1 -6.5 2.5t-7.5 2.5q-10 3 -15 9.5t-5 15.5q0 14 9.5 20.5t27.5 6.5l13 1h218h13q18 -2 26.5 -8t8.5 -19q0 -10 -4.5 -16.5t-14.5 -9.5
l-15 -4q-7 -3 -10.5 -11t-3.5 -22v-488q0 -14 3.5 -22.5t10.5 -10.5l15 -4q10 -4 14.5 -10.5t4.5 -16.5q0 -13 -8.5 -19t-26.5 -6h-13v0zM358 365h79v213q0 13 -3.5 21t-10.5 10l-16 6q-9 2 -13.5 8t-4.5 16q0 14 8.5 20.5t25.5 6.5l13 1h219h13q19 -2 28 -8t9 -20
q0 -9 -5 -15.5t-15 -9.5q-4 -1 -7.5 -2.5t-6.5 -2.5q-11 -5 -13.5 -11t-2.5 -21v-488q0 -16 2.5 -22t12.5 -11q3 -1 7 -2.5t8 -2.5q10 -3 15 -9.5t5 -15.5q0 -13 -9.5 -19.5t-27.5 -6.5h-13h-219h-13q-17 0 -25.5 6t-8.5 19q0 9 5 16t13 10l16 6q7 1 10.5 9.5t3.5 21.5v223
h-79v54v0z" />
    <glyph glyph-name="I" unicode="I" horiz-adv-x="398" 
d="M308 0h-218h-13q-19 0 -28 6.5t-9 19.5q0 9 5 15.5t15 9.5q4 1 7.5 2.5t6.5 2.5q11 5 13.5 11t2.5 21v490q0 14 -2.5 20t-13.5 11q-3 1 -6.5 2.5t-7.5 2.5q-10 3 -15 9.5t-5 15.5q0 14 9.5 20.5t27.5 6.5l13 1h218h13q19 -2 28 -8t9 -20q0 -9 -5 -15.5t-15 -9.5
q-4 -1 -7.5 -2.5t-6.5 -2.5q-11 -5 -13.5 -11t-2.5 -21v-488q0 -16 2.5 -22t13.5 -11q3 -1 6.5 -2.5t7.5 -2.5q10 -3 15 -9.5t5 -15.5q0 -13 -9.5 -19.5t-27.5 -6.5h-13v0z" />
    <glyph glyph-name="J" unicode="J" horiz-adv-x="538" 
d="M209 -13v57q20 7 27 22t7 44v463q0 15 -4 23.5t-13 10.5l-19 5q-12 2 -18 8.5t-6 16.5q0 14 11 20.5t33 7.5l16 1h219h13q18 -1 27 -7.5t9 -19.5q0 -10 -4.5 -16t-14.5 -10l-6 -2l-6 -2q-13 -4 -16 -10.5t-3 -22.5v-407q0 -87 -58 -135t-163 -48h-4h-4h-10t-13 1v0z
M167 44v-54q-34 5 -55.5 12.5t-41.5 20.5q-33 21 -51.5 53t-18.5 68q0 46 30.5 77.5t73.5 31.5q41 0 69 -28.5t28 -68.5q0 -29 -15 -51t-46 -37q-4 -2 -6.5 -4t-2.5 -4q0 -1 0.5 -2t2.5 -3q4 -3 12.5 -6.5t20.5 -5.5v1z" />
    <glyph glyph-name="K" unicode="K" horiz-adv-x="734" 
d="M318 0h-218h-13q-19 0 -28 6.5t-9 19.5q0 9 5 15.5t15 9.5q4 1 7.5 2.5t6.5 2.5q11 5 13.5 11t2.5 21v490q0 14 -2.5 20t-13.5 11q-3 1 -6.5 2.5t-7.5 2.5q-10 3 -15 9.5t-5 15.5q0 14 9.5 20.5t27.5 6.5l13 1h218h13q19 -2 28 -8t9 -20q0 -9 -5 -15.5t-15 -9.5
q-4 -1 -7.5 -2.5t-6.5 -2.5q-11 -5 -13.5 -11t-2.5 -21v-488q0 -14 3.5 -22.5t10.5 -10.5l15 -4q10 -4 14.5 -10.5t4.5 -16.5q0 -13 -8.5 -19t-26.5 -6h-13v0zM511 473l147 -386q1 -3 1.5 -5t1.5 -3q5 -12 11 -18.5t15 -10.5l4 -2l4 -2q7 -4 9.5 -8.5t2.5 -12.5
q0 -13 -9 -19t-28 -6h-245q-18 0 -27.5 7t-9.5 20q0 8 4 14t14 11q5 2 8.5 4t5.5 4q3 2 4 5t1 6q0 2 -1 5.5t-3 9.5l-62 188q-4 11 -6.5 22.5t-2.5 20.5q0 4 0.5 8t1.5 8q2 5 5 10t8 11l116 165q4 4 6.5 9.5t5.5 11.5q2 7 3.5 13.5t1.5 12.5q0 14 -7.5 26t-19.5 16l-18 9
q-8 3 -12 8.5t-4 13.5q0 14 8 20.5t24 6.5l174 1q17 -1 26.5 -8.5t9.5 -21.5q0 -10 -5.5 -17.5t-16.5 -11.5l-26 -10l-12.5 -7.5t-15.5 -10.5q-4 -2 -7.5 -5t-7.5 -5l-2 -2l-2 -2q-7 -7 -16.5 -18t-23.5 -30l-33 -45v0z" />
    <glyph glyph-name="L" unicode="L" horiz-adv-x="532" 
d="M308 0h-218h-13q-19 0 -28 6.5t-9 19.5q0 9 5 15.5t15 9.5q4 1 7.5 2.5t6.5 2.5q11 5 13.5 11t2.5 21v490q0 14 -2.5 20t-13.5 11q-3 1 -6.5 2.5t-7.5 2.5q-10 3 -15 9.5t-5 15.5q0 14 9.5 20.5t27.5 6.5l13 1h219h16q23 -2 33 -8.5t10 -20.5q0 -10 -6 -16.5t-17 -9.5
q-4 -1 -7 -2t-6 -1q-16 -5 -20 -12t-4 -24v-573v0zM344 0v55q19 2 30 5.5t21 8.5l1.5 1.5t1.5 0.5q25 15 45 45.5t32 70.5q3 8 5 14.5t4 10.5q5 11 10.5 14.5t14.5 3.5q13 0 18 -7.5t5 -24.5v-198h-188v0z" />
    <glyph glyph-name="M" unicode="M" horiz-adv-x="783" 
d="M297 667l96 -274l42 148v-162l-113 -379h-25l-190 562q-1 3 -2.5 6.5t-2.5 7.5q-7 16 -15 23t-22 10q-16 3 -24 10.5t-8 19.5q0 13 9.5 20t25.5 7l229 1v0zM107 442l51 -148v-147q0 -34 9 -54t29 -33l18 -10q10 -7 14.5 -13t4.5 -14q0 -12 -9.5 -17.5t-27.5 -5.5h-122
q-18 0 -27.5 5.5t-9.5 18.5q0 5 1.5 8.5t5.5 6.5q1 1 3.5 2.5t5.5 3.5q28 15 41 40t13 61v296v0zM475 667h219h13q18 -2 27 -8t9 -20q0 -9 -4.5 -15.5t-14.5 -9.5q-4 -1 -8 -2.5t-7 -2.5q-11 -5 -13.5 -11t-2.5 -21v-488q0 -16 2.5 -22t13.5 -11q3 -1 7 -2.5t8 -2.5
q10 -3 14.5 -9.5t4.5 -15.5q0 -13 -9 -19.5t-27 -6.5h-13h-219h-17q-22 0 -32.5 6.5t-10.5 20.5q0 10 6 16.5t17 8.5q4 1 7 1.5t5 1.5q17 5 21 12t4 25v575v0z" />
    <glyph glyph-name="N" unicode="N" horiz-adv-x="671" 
d="M112 496l51 -87v-262q0 -35 11.5 -57t36.5 -36l14 -7q7 -5 10 -10.5t3 -12.5q0 -13 -9.5 -18.5t-32.5 -5.5h-112q-22 0 -33 6t-11 19q0 4 1 7t3 5q3 3 8 6.5t13 8.5q24 14 35.5 37t11.5 57v350v0zM316 667l260 -451v-216h-133l-331 571q-6 9 -10.5 15.5t-8.5 10.5t-8 6
t-9 4l-18 8q-7 1 -11.5 7.5t-4.5 14.5q0 9 5.5 16.5t12.5 9.5q5 2 15 2.5t27 0.5l214 1v0zM576 294l-51 87v135q0 40 -12 62t-42 37q-1 1 -2.5 1.5t-2.5 1.5q-7 4 -10 9t-3 14q0 13 8.5 19t27.5 6l122 1q21 -1 30.5 -7.5t9.5 -20.5q0 -5 -1 -8.5t-4 -7.5q-3 -3 -8.5 -6
t-13.5 -7q-24 -13 -36 -36t-12 -59v-221v0z" />
    <glyph glyph-name="O" unicode="O" horiz-adv-x="634" 
d="M297 627q-25 -9 -35 -24.5t-10 -44.5v-436q0 -41 10 -58t35 -24v-53q-127 10 -202 103.5t-75 241.5q0 149 76.5 245t200.5 102v-52v0zM337 627v53q125 -7 201 -103t76 -245q0 -148 -74.5 -241.5t-202.5 -103.5v54q25 5 35 24t10 56v438q0 28 -10 43.5t-35 23.5v1z" />
    <glyph glyph-name="P" unicode="P" horiz-adv-x="636" 
d="M308 667v-574q0 -19 4.5 -26t21.5 -12q3 -1 5.5 -1.5t5.5 -1.5q11 -2 17 -8.5t6 -16.5q0 -14 -10 -20.5t-33 -6.5h-16h-219h-13q-19 0 -28 6.5t-9 19.5q0 9 5 15.5t15 9.5q4 1 7.5 2.5t6.5 2.5q11 5 13.5 11t2.5 21v490q0 14 -2.5 20t-13.5 11q-3 1 -6.5 2.5t-7.5 2.5
q-10 3 -15 9.5t-5 15.5q0 14 9.5 20.5t27.5 6.5l13 1h218v0zM348 614v53h8q6 -1 12 -1t11 -1q22 0 43 -2.5t37 -5.5q73 -13 115 -65.5t42 -129.5q0 -79 -44 -132.5t-121 -67.5q-22 -4 -48 -6t-55 -2v54q32 7 43.5 23t11.5 54v157q0 34 -12.5 50.5t-42.5 20.5v1z" />
    <glyph glyph-name="Q" unicode="Q" horiz-adv-x="640" 
d="M508 56q10 -10 21 -14t27 -4q8 0 16 1.5t15 4.5l17 6q6 -1 11 -7t5 -14q0 -2 -0.5 -4.5t-1.5 -5.5q-7 -17 -34 -32t-57 -20q-5 0 -9.5 -0.5t-9.5 -0.5q-28 0 -51 9t-41 26q-5 -1 -9.5 -2.5t-8.5 -2.5q-13 -3 -26.5 -5t-31.5 -4v54q8 1 12.5 3t8.5 5q2 1 3.5 2.5l2.5 2.5
l-4 5q-7 8 -12 13.5t-10 8.5q-4 3 -8.5 4.5t-10.5 2.5q-19 4 -25 9t-6 16q0 14 12 21.5t31 7.5q12 0 21.5 -1.5t17.5 -5.5q3 -1 6 -2.5t6 -3.5v430q0 28 -10 43.5t-35 23.5v54q125 -7 201 -103t76 -245q0 -90 -27 -159t-82 -118v1zM300 627q-25 -10 -35 -25t-10 -44v-436
q0 -41 10 -58t35 -24v-53q-127 10 -202 103.5t-75 241.5q0 149 76.5 245t200.5 102v-52v0z" />
    <glyph glyph-name="R" unicode="R" horiz-adv-x="699" 
d="M346 613v54h12q68 -1 102.5 -6t62.5 -20q4 -1 7.5 -3t6.5 -4q39 -22 58.5 -57.5t19.5 -80.5q0 -37 -14 -70t-40 -53l-0.5 -0.5l-1.5 -1.5q-10 -8 -21 -14t-26 -12q-11 -5 -24.5 -9.5t-31.5 -9.5q4 -1 8 -1.5t8 -0.5q29 -5 46 -10.5t33 -13.5q2 -1 4 -2.5t4 -2.5
q25 -15 39 -38t14 -49v-100q0 -8 2.5 -12t7.5 -4q2 0 3 0.5t2 0.5q2 1 4 3.5t5 6.5l6 6t7 5q3 2 6 3t6 1q1 0 2.5 -0.5t3.5 -0.5q6 -3 11.5 -8.5t6.5 -11.5q1 -2 1 -3v-2q0 -8 -4.5 -19t-12.5 -22q-9 -12 -20 -23t-24 -20q-17 -10 -38.5 -15.5t-48.5 -5.5q-65 0 -101.5 36.5
t-36.5 102.5v83q0 41 -12.5 61t-41.5 23v54q30 3 42 18t12 48v130q0 30 -11 44.5t-43 24.5v1zM308 667v-574q0 -18 4 -25t20 -12q3 0 6 -1t7 -2q11 -3 17 -9.5t6 -16.5q0 -14 -10 -20.5t-33 -6.5h-16h-219h-13q-19 0 -28 6.5t-9 19.5q0 9 5 15.5t15 9.5q4 1 7.5 2.5t5.5 2.5
q11 5 14 11.5t3 20.5v490q0 14 -2.5 20t-13.5 11q-3 1 -6.5 2.5t-7.5 2.5q-10 4 -15 10t-5 16q0 13 9.5 19.5t27.5 6.5l13 1h218v0z" />
    <glyph glyph-name="S" unicode="S" horiz-adv-x="563" 
d="M266 680v-56q-31 -9 -47.5 -26t-16.5 -43q0 -23 11.5 -40.5t36.5 -32.5l21 -10.5t41 -18.5l42 -18q19 -9 33 -16t25 -13q10 -5 18 -11t15 -12q3 -3 6 -5.5t6 -5.5q35 -32 52 -70t17 -85q0 -97 -68.5 -161.5t-177.5 -68.5v56q41 9 60 27t19 48q0 19 -7 33.5t-25 27.5
q-12 9 -30 18.5t-44 20.5q-47 20 -76 35t-49 28q-45 33 -68 77t-23 99q0 97 61.5 157t167.5 65v1zM240 43v-56q-11 0 -22 1.5t-22 4.5t-22 6.5t-22 9.5q-15 7 -22 10t-12 4h-3h-3q-3 0 -6 -0.5t-5 -1.5q-4 -2 -8 -6t-10 -12l-2 -2l-2 -2q-4 -3 -7 -4.5t-8 -1.5q-13 0 -20 11
t-7 31v178q0 13 8 22.5t20 9.5q11 0 17 -6.5t10 -22.5q11 -40 29 -73t46 -61l3.5 -3.5l3.5 -3.5q14 -13 30 -21t36 -12v1zM306 624v54q10 -2 18.5 -3t17.5 -3q14 -3 31 -9t43 -17l16 -3q5 -1 8.5 1t5.5 5l11 15q4 5 8.5 7.5t10.5 2.5q13 0 19 -9.5t6 -29.5v-160
q0 -15 -8 -24.5t-21 -9.5q-12 0 -19 8t-11 27q-11 55 -48.5 95t-87.5 52v1z" />
    <glyph glyph-name="T" unicode="T" horiz-adv-x="594" 
d="M406 667v-574q0 -19 4.5 -26t21.5 -12q3 -1 5.5 -1.5t5.5 -1.5q11 -2 17.5 -8.5t6.5 -16.5q0 -14 -10.5 -20.5t-33.5 -6.5h-16h-219h-17q-22 0 -32.5 6.5t-10.5 20.5q0 10 6 16.5t17 8.5q4 1 7 1.5t5 1.5q17 5 21 12t4 25v575h218v0zM20 667h128v-60q-25 -15 -40.5 -43.5
t-23.5 -70.5l-5 -29q-2 -16 -10 -24t-20 -8q-13 0 -21 9t-8 23v203v0zM574 667v-202q0 -15 -8 -24t-21 -9q-12 0 -20 8.5t-11 22.5l-5 31q-7 41 -22.5 69.5t-40.5 42.5v61h128v0z" />
    <glyph glyph-name="U" unicode="U" horiz-adv-x="677" 
d="M359 51v-64h-15q-43 0 -73.5 4.5t-58.5 14.5q-7 2 -13 4.5t-12 5.5q-58 28 -81.5 67.5t-23.5 110.5v384q0 14 -2.5 20t-13.5 11q-3 1 -6.5 2.5t-7.5 2.5q-10 3 -15 9.5t-5 15.5q0 13 9.5 20t26.5 7l14 1h218h13q18 -1 27.5 -7.5t9.5 -20.5q0 -9 -5 -15.5t-15 -9.5
q-4 -1 -7.5 -2.5t-6.5 -2.5q-11 -5 -13.5 -11t-2.5 -21v-409q0 -38 2 -54t6 -28q1 0 1 -0.5v-0.5q7 -16 17 -23t33 -12v1zM398 -13v64q56 7 86.5 46.5t30.5 103.5v319q0 33 -12.5 56t-37.5 36q-6 3 -10 6t-7 5q-4 4 -5.5 8.5t-1.5 10.5q0 13 9 18.5t29 5.5l122 1
q13 -1 18.5 -1.5t9.5 -2.5q1 0 1.5 -0.5l0.5 -0.5q6 -4 9.5 -9t3.5 -11q0 -5 -1 -8.5t-3 -6.5q-3 -3 -9 -7t-16 -10q-22 -12 -34 -36t-12 -55v-317q0 -89 -45 -145.5t-126 -69.5v0z" />
    <glyph glyph-name="V" unicode="V" horiz-adv-x="603" 
d="M405 171l-46 -171h-129l-173 584q-1 3 -2.5 6l-2.5 5q-2 6 -5 8.5t-9 4.5q-5 2 -8.5 4t-6.5 4q-6 4 -8 8.5t-2 11.5q0 15 11.5 22.5t35.5 7.5l217 1q20 -1 27 -2t11 -3q6 -3 10 -9.5t4 -14.5t-4 -14.5t-13 -10.5q-13 -6 -17.5 -13t-4.5 -19l2 -12l113 -398v0zM424 241
l-26 92l56 205l3 23q0 17 -7.5 29.5t-20.5 17.5l-15 6q-9 2 -14 9t-5 15q0 14 11 21t30 7l119 1q23 -1 32 -7t9 -20q0 -9 -3.5 -14t-13.5 -10l-25 -11q-1 -2 -2.5 -2.5t-2.5 -1.5q-14 -9 -26.5 -30t-20.5 -46l-78 -284v0z" />
    <glyph glyph-name="W" unicode="W" horiz-adv-x="821" 
d="M380 237l-59 -237h-106l-156 574l-2 6t-2 5q-4 12 -8.5 17t-13.5 8q-10 5 -15 11t-5 16q0 14 12 21.5t34 7.5l229 1q21 -1 30 -7t9 -20q0 -7 -4 -13.5t-12 -11.5l-10.5 -7t-6.5 -5q-4 -4 -5 -8t-1 -11l1 -10l91 -337v0zM426 667h101l118 -445l-57 -222h-106l-114 429
l58 238v0zM663 301l-26 99l36 144l4 27q0 13 -8 23.5t-26 19.5q-4 2 -7 4t-5 4q-6 4 -8 8.5t-2 11.5q0 13 8.5 18.5t25.5 5.5l116 1q20 -1 28 -6.5t8 -19.5q0 -7 -3.5 -12t-14.5 -10q-28 -13 -42 -32t-24 -54l-60 -232v0z" />
    <glyph glyph-name="X" unicode="X" horiz-adv-x="608" 
d="M306 581l246 -499q1 -3 2 -5l2 -4q4 -5 7.5 -8.5t9.5 -6.5q0 -1 1 -1.5t2 -0.5q5 -3 8.5 -5.5t5.5 -4.5q5 -4 6.5 -8.5t1.5 -10.5q0 -15 -10 -21t-35 -6h-229q-17 0 -24.5 0.5t-12.5 3.5q-1 0 -2 0.5t-2 1.5q-4 4 -7 9.5t-3 11.5q0 3 1 6t3 6l5 5t8 6q4 3 7 5.5t5 5.5
t3 5.5t1 5.5q0 2 -1.5 7t-3.5 10l-2 4l-2 4l-240 484q-6 12 -13 19t-18 12q-9 5 -13 11t-4 15q0 16 10 22t38 6l227 1q26 -1 36.5 -7.5t10.5 -20.5q0 -6 -2 -10.5t-6 -8.5q-2 -2 -4 -3t-4 -3q-3 -2 -5.5 -4t-3.5 -4q-2 -2 -2.5 -5t-0.5 -6q0 -4 1 -7.5t2 -7.5v1zM186 238
l26 -55l-30 -50q-10 -17 -13.5 -26t-3.5 -17q0 -13 6.5 -21.5t20.5 -13.5l4 -2t4 -1q10 -5 14 -11t4 -14q0 -15 -10 -21t-33 -6h-125q-16 0 -25 6t-9 18q0 10 6 16t19 11q19 7 33 18.5t24 27.5l88 141v0zM416 446l-27 54l27 47q4 4 5.5 10.5t1.5 13.5q0 13 -6 23t-17 15
l-16 9q-4 1 -7 6t-4 10q-1 2 -1 3.5v2.5q0 12 8.5 19t21.5 7l142 1q14 -1 22.5 -7.5t8.5 -16.5q0 -6 -1 -10t-5 -7q-3 -3 -8.5 -6.5t-14.5 -8.5q-17 -10 -31.5 -23.5t-26.5 -31.5l-72 -110v0z" />
    <glyph glyph-name="Y" unicode="Y" horiz-adv-x="597" 
d="M402 306v-213q0 -19 4.5 -26t21.5 -12q3 -1 5.5 -1.5t5.5 -1.5q11 -2 17 -8.5t6 -17.5q0 -14 -10 -20t-33 -6h-16h-220h-16q-22 0 -32.5 6.5t-10.5 20.5q0 10 6 16.5t17 8.5q4 1 7 1.5t5 1.5q17 5 21 12t4 25v166l-138 329q-4 10 -9 16t-13 11q-5 3 -9 5.5t-6 4.5
q-4 4 -5 7.5t-1 9.5q0 13 9 19t28 6l240 1q20 -1 29.5 -7t9.5 -20q0 -7 -3.5 -13t-10.5 -11l-14 -8q-4 -3 -6.5 -7.5t-2.5 -9.5q0 -2 0.5 -5.5t1.5 -6.5q0 -2 0.5 -3.5t0.5 -3.5q1 -1 1.5 -2.5t0.5 -2.5l115 -261v0zM420 352l-28 64l51 115q2 4 3.5 9.5t2.5 10.5t1.5 9
t0.5 8q0 15 -7.5 25.5t-24.5 17.5q-6 2 -10 4t-7 4q-7 4 -9 8t-2 11q0 16 10.5 22t36.5 6l121 1q17 -1 25.5 -8t8.5 -21q0 -7 -2 -11.5t-8 -8.5l-5 -2.5l-7 -3.5q-22 -10 -35.5 -23.5t-23.5 -33.5l-11 -24l-81 -179v0z" />
    <glyph glyph-name="Z" unicode="Z" horiz-adv-x="523" 
d="M503 667v-56l-270 -611h-213v49l271 618h212v0zM503 0h-228l22 49q65 14 94.5 36.5t52.5 76.5q2 4 3.5 8.5t3.5 9.5q1 4 2.5 6.5t2.5 5.5q5 8 9.5 11.5t12.5 3.5q12 0 18.5 -8.5t6.5 -25.5v-173v0zM37 667h212l-25 -56q-50 -8 -86 -39.5t-50 -81.5q-4 -15 -10 -21t-17 -6
q-12 0 -18 8t-6 21v175v0z" />
    <glyph glyph-name="bracketleft" unicode="[" horiz-adv-x="392" 
d="M282 -144h-188q-11 0 -14 3t-3 14v777q0 10 3 13t14 3l188 1q38 -1 52 -7.5t14 -26.5q0 -13 -7 -20t-24 -11q-43 -9 -56.5 -24.5t-13.5 -59.5v-514q0 -44 13.5 -59.5t56.5 -24.5q17 -4 24 -10.5t7 -19.5q0 -20 -14 -27t-52 -7v0z" />
    <glyph glyph-name="backslash" unicode="\" horiz-adv-x="500" 
d="M152 750l305 -833h-125l-305 833h125v0z" />
    <glyph glyph-name="bracketright" unicode="]" horiz-adv-x="392" 
d="M110 667h189q11 -1 13.5 -4t2.5 -14v-776q0 -11 -2.5 -14t-13.5 -3h-189q-38 0 -52 7t-14 26q0 13 7.5 20t23.5 11q44 9 57 24.5t13 58.5v516q0 43 -13 58.5t-57 24.5q-16 4 -23.5 11t-7.5 20q0 20 14 26.5t52 6.5v1z" />
    <glyph glyph-name="asciicircum" unicode="^" horiz-adv-x="500" 
d="M531 277h-69l-149 238l-162 -238h-183l291 423h9l263 -423v0z" />
    <glyph glyph-name="underscore" unicode="_" horiz-adv-x="500" 
d="M5 -93h489v-81h-489v81v0z" />
    <glyph glyph-name="grave" unicode="`" horiz-adv-x="500" 
d="M108 851h98q10 -1 15 -2t9 -5q2 -2 4 -5t5 -7l73 -112l2 -6q0 -5 -4 -7t-10 -2l-36 1q-1 -1 -2 -1t-3 1q-2 0 -4 2t-6 4l-9 8l-135 104q-6 4 -8.5 7t-3.5 5v1.5v0.5q0 5 4.5 8.5t10.5 3.5v1z" />
    <glyph glyph-name="a" unicode="a" horiz-adv-x="619" 
d="M202 542l25 -101l-87 -315q-1 -4 -1.5 -7.5t-0.5 -6.5q-1 -3 -1 -6.5v-6.5q0 -14 7.5 -25.5t21.5 -17.5l16 -7q8 -5 12.5 -11.5t4.5 -14.5q0 -11 -9.5 -17t-26.5 -6h-124q-17 0 -28 7t-11 19q0 8 5 14t17 11q31 14 45.5 32t24.5 56l110 403v0zM236 667h197l135 -574
q1 -4 1.5 -6.5t1.5 -5.5q4 -14 9.5 -20.5t16.5 -10.5q1 -1 2.5 -1.5t2.5 -0.5q10 -5 13.5 -10.5t3.5 -14.5q0 -11 -9.5 -17t-28.5 -6h-244q-14 0 -23 6.5t-9 18.5q0 6 1.5 10t4.5 7q3 2 7 4.5t9 5.5q1 1 2 1.5t2 0.5q7 5 10 10.5t3 14.5l-1 14l-16 71h-136l13 60h110
l-90 395l12 48v0z" />
    <glyph glyph-name="b" unicode="b" horiz-adv-x="670" 
d="M308 667v-667h-218h-13q-19 0 -28 6.5t-9 19.5q0 9 5 15.5t15 9.5q4 1 7.5 2.5t6.5 2.5q11 5 13.5 11t2.5 21v490q0 14 -2.5 20t-13.5 11q-3 1 -6.5 2.5t-7.5 2.5q-10 3 -15 9.5t-5 15.5q0 14 9.5 20.5t27.5 6.5l13 1h218v0zM348 613v54h54q107 -1 166 -43.5t59 -118.5
q0 -39 -17.5 -72.5t-49.5 -52.5q-3 -2 -6 -3.5t-6 -3.5q-10 -5 -21 -9.5t-24 -8.5q-9 -3 -20 -5.5t-24 -5.5q15 -3 26.5 -5.5t20.5 -5.5q9 -2 17 -4.5t15 -5.5q4 -2 7.5 -3.5t7.5 -3.5q40 -20 61.5 -57t21.5 -85q0 -46 -18.5 -81.5t-54.5 -58.5q-3 -2 -6 -3.5t-6 -3.5
q-29 -15 -62 -21t-85 -6h-56v51q35 1 50.5 19t15.5 56v112q0 38 -15.5 57.5t-50.5 23.5v52q38 1 52 19.5t14 62.5v85q0 33 -17 52t-49 22v1z" />
    <glyph glyph-name="c" unicode="c" horiz-adv-x="584" 
d="M309 680v-59q-28 -5 -42 -26.5t-14 -59.5v-403v-21q2 -29 16.5 -46t39.5 -19v-59q-136 3 -212.5 92t-76.5 243q0 69 16.5 128t47.5 105q26 37 63 65.5t76 43.5q18 7 36.5 11t35.5 4l14 1v0zM349 -13v60q50 2 90.5 35t55.5 82q5 16 11.5 22.5t17.5 6.5t19 -8.5t8 -21.5
q0 -14 -6.5 -31.5t-18.5 -35.5q-9 -15 -20.5 -29t-24.5 -26q-4 -4 -8 -7l-8 -6q-27 -21 -54.5 -30.5t-61.5 -10.5v0zM349 621v58q2 -1 4.5 -1.5t4.5 -0.5q4 -1 8.5 -1.5t8.5 -1.5q11 -3 25 -7.5t41 -14.5q14 -5 21 -7t12 -2h2h2q5 1 10 4.5t7 8.5l6 13q3 4 9 7t13 3
q14 0 20.5 -8t6.5 -23v-202q0 -18 -7 -28t-21 -10q-11 0 -18.5 8t-11.5 24q-21 80 -58 126.5t-85 53.5v1z" />
    <glyph glyph-name="d" unicode="d" horiz-adv-x="648" 
d="M308 667v-667h-218h-13q-19 0 -28 6.5t-9 19.5q0 9 5 15.5t15 9.5q4 1 7.5 2.5t6.5 2.5q11 5 13.5 11t2.5 21v490q0 14 -2.5 20t-13.5 11q-3 1 -6.5 2.5t-7.5 2.5q-10 3 -15 9.5t-5 15.5q0 14 9.5 20.5t27.5 6.5l13 1h218v0zM348 612v55q29 -1 50 -4t40 -10
q8 -3 16.5 -6.5t17.5 -8.5q77 -40 117 -118t40 -185q0 -108 -43 -189.5t-122 -122.5q-7 -4 -14 -7l-14 -6q-18 -6 -37.5 -8t-50.5 -2v53q35 7 45.5 23.5t10.5 61.5v387q0 41 -12.5 61t-43.5 25v1z" />
    <glyph glyph-name="e" unicode="e" horiz-adv-x="587" 
d="M308 667v-667h-218h-13q-19 0 -28 6.5t-9 19.5q0 9 5 15.5t15 9.5q4 1 7.5 2.5t6.5 2.5q11 5 13.5 11t2.5 21v490q0 14 -2.5 20t-13.5 11q-3 1 -6.5 2.5t-7.5 2.5q-10 3 -15 9.5t-5 15.5q0 14 9.5 20.5t27.5 6.5l13 1h218v0zM349 0v53q59 7 95 38t57 89q1 3 2.5 6l2.5 5
q5 9 9.5 12.5t12.5 3.5q15 0 20.5 -7.5t5.5 -28.5v-171h-205v0zM349 311v57q28 13 41.5 28.5t19.5 42.5q5 19 10.5 26t18.5 7q14 0 19 -8.5t5 -32.5v-185q0 -24 -5 -32.5t-19 -8.5q-11 0 -17 6.5t-11 22.5q-8 34 -23 52t-39 24v1zM349 667h198v-174q0 -16 -5.5 -23t-18.5 -7
q-10 0 -15 3.5t-9 13.5q-1 1 -1.5 2.5t-0.5 2.5q-19 58 -55 87.5t-93 35.5v59v0z" />
    <glyph glyph-name="f" unicode="f" horiz-adv-x="566" 
d="M308 667v-574q0 -19 4.5 -26t21.5 -12q3 -1 5.5 -1.5t5.5 -1.5q11 -2 17 -8.5t6 -16.5q0 -14 -10 -20.5t-33 -6.5h-16h-219h-13q-19 0 -28 6.5t-9 19.5q0 9 5 15.5t15 9.5q4 1 7.5 2.5t6.5 2.5q11 5 13.5 11t2.5 21v490q0 14 -2.5 20t-13.5 11q-3 1 -6.5 2.5t-7.5 2.5
q-10 3 -15 9.5t-5 15.5q0 14 9.5 20.5t27.5 6.5l13 1h218v0zM348 311v57q29 13 42 28.5t19 42.5q5 19 11 26t18 7q14 0 19 -8.5t5 -32.5v-185q0 -24 -5 -32.5t-19 -8.5q-10 0 -16.5 6.5t-10.5 22.5q-8 34 -23 52t-40 24v1zM348 667h198v-172q0 -17 -5.5 -24.5t-19.5 -7.5
q-10 0 -15.5 5t-9.5 17q-17 56 -53.5 86.5t-94.5 36.5v59v0z" />
    <glyph glyph-name="g" unicode="g" horiz-adv-x="620" 
d="M295 680v-54q-22 -5 -32.5 -22.5t-10.5 -46.5v-454q0 -28 7.5 -41t26.5 -21v-54h-5q-11 0 -26.5 3.5t-32.5 9.5q-10 2 -19 6t-18 9q-79 41 -122 121.5t-43 187.5q0 113 42.5 197t120.5 127q22 12 41 19t38 10q8 1 16.5 1.5t16.5 0.5v1zM326 -13v55q23 5 32 19t9 41v144
q0 16 -4 23t-20 12q-3 0 -6 1t-7 2q-11 2 -17 9t-6 17q0 14 10.5 20.5t32.5 6.5l17 1h179q23 -1 32 -7t9 -22q0 -6 -2 -11t-6 -10q-2 -1 -4 -3t-5 -4q-2 -1 -3 -2l-2 -2q-7 -4 -8.5 -10.5t-1.5 -19.5v-165q-5 -6 -11.5 -11.5t-13.5 -10.5q-11 -8 -23.5 -16t-24.5 -15
q-8 -4 -15.5 -8t-14.5 -7q-29 -13 -61 -19.5t-65 -7.5v0zM335 627v53q40 -5 71.5 -11t58.5 -17l23 -5q3 -1 5.5 -1t4.5 1q3 2 7 6.5t12 14.5q1 2 2.5 3t2.5 2q4 3 8 4.5t9 1.5q14 0 19.5 -7t5.5 -25v-190q0 -19 -6.5 -28.5t-20.5 -9.5q-12 0 -19 6t-12 23q-1 2 -1 3.5
t-1 3.5q-3 12 -8 25t-12 26q-6 14 -14 28t-16 26q-5 8 -10 14.5t-10 11.5q-18 19 -42 29t-57 11v1z" />
    <glyph glyph-name="h" unicode="h" horiz-adv-x="755" 
d="M318 0h-218h-13q-19 0 -28 6.5t-9 19.5q0 9 5 15.5t15 9.5q4 1 7.5 2.5t6.5 2.5q11 5 13.5 11t2.5 21v490q0 14 -2.5 20t-13.5 11q-3 1 -6.5 2.5t-7.5 2.5q-10 3 -15 9.5t-5 15.5q0 14 9.5 20.5t27.5 6.5l13 1h218h13q18 -2 26.5 -8t8.5 -19q0 -10 -4.5 -16.5t-14.5 -9.5
l-15 -4q-7 -3 -10.5 -11t-3.5 -22v-488q0 -14 3.5 -22.5t10.5 -10.5l15 -4q10 -4 14.5 -10.5t4.5 -16.5q0 -13 -8.5 -19t-26.5 -6h-13v0zM358 365h79v213q0 13 -3.5 21t-10.5 10l-16 6q-9 2 -13.5 8t-4.5 16q0 14 8.5 20.5t25.5 6.5l13 1h219h13q19 -2 28 -8t9 -20
q0 -9 -5 -15.5t-15 -9.5q-4 -1 -7.5 -2.5t-6.5 -2.5q-11 -5 -13.5 -11t-2.5 -21v-488q0 -16 2.5 -22t12.5 -11q3 -1 7 -2.5t8 -2.5q10 -3 15 -9.5t5 -15.5q0 -13 -9.5 -19.5t-27.5 -6.5h-13h-219h-13q-17 0 -25.5 6t-8.5 19q0 9 5 16t13 10l16 6q7 1 10.5 9.5t3.5 21.5v223
h-79v54v0z" />
    <glyph glyph-name="i" unicode="i" horiz-adv-x="398" 
d="M308 0h-218h-13q-19 0 -28 6.5t-9 19.5q0 9 5 15.5t15 9.5q4 1 7.5 2.5t6.5 2.5q11 5 13.5 11t2.5 21v490q0 14 -2.5 20t-13.5 11q-3 1 -6.5 2.5t-7.5 2.5q-10 3 -15 9.5t-5 15.5q0 14 9.5 20.5t27.5 6.5l13 1h218h13q19 -2 28 -8t9 -20q0 -9 -5 -15.5t-15 -9.5
q-4 -1 -7.5 -2.5t-6.5 -2.5q-11 -5 -13.5 -11t-2.5 -21v-488q0 -16 2.5 -22t13.5 -11q3 -1 6.5 -2.5t7.5 -2.5q10 -3 15 -9.5t5 -15.5q0 -13 -9.5 -19.5t-27.5 -6.5h-13v0z" />
    <glyph glyph-name="j" unicode="j" horiz-adv-x="538" 
d="M209 -13v57q20 7 27 22t7 44v463q0 15 -4 23.5t-13 10.5l-19 5q-12 2 -18 8.5t-6 16.5q0 14 11 20.5t33 7.5l16 1h219h13q18 -1 27 -7.5t9 -19.5q0 -10 -4.5 -16t-14.5 -10l-6 -2l-6 -2q-13 -4 -16 -10.5t-3 -22.5v-407q0 -87 -58 -135t-163 -48h-4h-4h-10t-13 1v0z
M167 44v-54q-34 5 -55.5 12.5t-41.5 20.5q-33 21 -51.5 53t-18.5 68q0 46 30.5 77.5t73.5 31.5q41 0 69 -28.5t28 -68.5q0 -29 -15 -51t-46 -37q-4 -2 -6.5 -4t-2.5 -4q0 -1 0.5 -2t2.5 -3q4 -3 12.5 -6.5t20.5 -5.5v1z" />
    <glyph glyph-name="k" unicode="k" horiz-adv-x="734" 
d="M318 0h-218h-13q-19 0 -28 6.5t-9 19.5q0 9 5 15.5t15 9.5q4 1 7.5 2.5t6.5 2.5q11 5 13.5 11t2.5 21v490q0 14 -2.5 20t-13.5 11q-3 1 -6.5 2.5t-7.5 2.5q-10 3 -15 9.5t-5 15.5q0 14 9.5 20.5t27.5 6.5l13 1h218h13q19 -2 28 -8t9 -20q0 -9 -5 -15.5t-15 -9.5
q-4 -1 -7.5 -2.5t-6.5 -2.5q-11 -5 -13.5 -11t-2.5 -21v-488q0 -14 3.5 -22.5t10.5 -10.5l15 -4q10 -4 14.5 -10.5t4.5 -16.5q0 -13 -8.5 -19t-26.5 -6h-13v0zM511 473l147 -386q1 -3 1.5 -5t1.5 -3q5 -12 11 -18.5t15 -10.5l4 -2l4 -2q7 -4 9.5 -8.5t2.5 -12.5
q0 -13 -9 -19t-28 -6h-245q-18 0 -27.5 7t-9.5 20q0 8 4 14t14 11q5 2 8.5 4t5.5 4q3 2 4 5t1 6q0 2 -1 5.5t-3 9.5l-62 188q-4 11 -6.5 22.5t-2.5 20.5q0 4 0.5 8t1.5 8q2 5 5 10t8 11l116 165q4 4 6.5 9.5t5.5 11.5q2 7 3.5 13.5t1.5 12.5q0 14 -7.5 26t-19.5 16l-18 9
q-8 3 -12 8.5t-4 13.5q0 14 8 20.5t24 6.5l174 1q17 -1 26.5 -8.5t9.5 -21.5q0 -10 -5.5 -17.5t-16.5 -11.5l-26 -10l-12.5 -7.5t-15.5 -10.5q-4 -2 -7.5 -5t-7.5 -5l-2 -2l-2 -2q-7 -7 -16.5 -18t-23.5 -30l-33 -45v0z" />
    <glyph glyph-name="l" unicode="l" horiz-adv-x="532" 
d="M308 0h-218h-13q-19 0 -28 6.5t-9 19.5q0 9 5 15.5t15 9.5q4 1 7.5 2.5t6.5 2.5q11 5 13.5 11t2.5 21v490q0 14 -2.5 20t-13.5 11q-3 1 -6.5 2.5t-7.5 2.5q-10 3 -15 9.5t-5 15.5q0 14 9.5 20.5t27.5 6.5l13 1h219h16q23 -2 33 -8.5t10 -20.5q0 -10 -6 -16.5t-17 -9.5
q-4 -1 -7 -2t-6 -1q-16 -5 -20 -12t-4 -24v-573v0zM344 0v55q19 2 30 5.5t21 8.5l1.5 1.5t1.5 0.5q25 15 45 45.5t32 70.5q3 8 5 14.5t4 10.5q5 11 10.5 14.5t14.5 3.5q13 0 18 -7.5t5 -24.5v-198h-188v0z" />
    <glyph glyph-name="m" unicode="m" horiz-adv-x="783" 
d="M297 667l96 -274l42 148v-162l-113 -379h-25l-190 562q-1 3 -2.5 6.5t-2.5 7.5q-7 16 -15 23t-22 10q-16 3 -24 10.5t-8 19.5q0 13 9.5 20t25.5 7l229 1v0zM107 442l51 -148v-147q0 -34 9 -54t29 -33l18 -10q10 -7 14.5 -13t4.5 -14q0 -12 -9.5 -17.5t-27.5 -5.5h-122
q-18 0 -27.5 5.5t-9.5 18.5q0 5 1.5 8.5t5.5 6.5q1 1 3.5 2.5t5.5 3.5q28 15 41 40t13 61v296v0zM475 667h219h13q18 -2 27 -8t9 -20q0 -9 -4.5 -15.5t-14.5 -9.5q-4 -1 -8 -2.5t-7 -2.5q-11 -5 -13.5 -11t-2.5 -21v-488q0 -16 2.5 -22t13.5 -11q3 -1 7 -2.5t8 -2.5
q10 -3 14.5 -9.5t4.5 -15.5q0 -13 -9 -19.5t-27 -6.5h-13h-219h-17q-22 0 -32.5 6.5t-10.5 20.5q0 10 6 16.5t17 8.5q4 1 7 1.5t5 1.5q17 5 21 12t4 25v575v0z" />
    <glyph glyph-name="n" unicode="n" horiz-adv-x="671" 
d="M112 496l51 -87v-262q0 -35 11.5 -57t36.5 -36l14 -7q7 -5 10 -10.5t3 -12.5q0 -13 -9.5 -18.5t-32.5 -5.5h-112q-22 0 -33 6t-11 19q0 4 1 7t3 5q3 3 8 6.5t13 8.5q24 14 35.5 37t11.5 57v350v0zM316 667l260 -451v-216h-133l-331 571q-6 9 -10.5 15.5t-8.5 10.5t-8 6
t-9 4l-18 8q-7 1 -11.5 7.5t-4.5 14.5q0 9 5.5 16.5t12.5 9.5q5 2 15 2.5t27 0.5l214 1v0zM576 294l-51 87v135q0 40 -12 62t-42 37q-1 1 -2.5 1.5t-2.5 1.5q-7 4 -10 9t-3 14q0 13 8.5 19t27.5 6l122 1q21 -1 30.5 -7.5t9.5 -20.5q0 -5 -1 -8.5t-4 -7.5q-3 -3 -8.5 -6
t-13.5 -7q-24 -13 -36 -36t-12 -59v-221v0z" />
    <glyph glyph-name="o" unicode="o" horiz-adv-x="634" 
d="M297 627q-25 -9 -35 -24.5t-10 -44.5v-436q0 -41 10 -58t35 -24v-53q-127 10 -202 103.5t-75 241.5q0 149 76.5 245t200.5 102v-52v0zM337 627v53q125 -7 201 -103t76 -245q0 -148 -74.5 -241.5t-202.5 -103.5v54q25 5 35 24t10 56v438q0 28 -10 43.5t-35 23.5v1z" />
    <glyph glyph-name="p" unicode="p" horiz-adv-x="636" 
d="M308 667v-574q0 -19 4.5 -26t21.5 -12q3 -1 5.5 -1.5t5.5 -1.5q11 -2 17 -8.5t6 -16.5q0 -14 -10 -20.5t-33 -6.5h-16h-219h-13q-19 0 -28 6.5t-9 19.5q0 9 5 15.5t15 9.5q4 1 7.5 2.5t6.5 2.5q11 5 13.5 11t2.5 21v490q0 14 -2.5 20t-13.5 11q-3 1 -6.5 2.5t-7.5 2.5
q-10 3 -15 9.5t-5 15.5q0 14 9.5 20.5t27.5 6.5l13 1h218v0zM348 614v53h8q6 -1 12 -1t11 -1q22 0 43 -2.5t37 -5.5q73 -13 115 -65.5t42 -129.5q0 -79 -44 -132.5t-121 -67.5q-22 -4 -48 -6t-55 -2v54q32 7 43.5 23t11.5 54v157q0 34 -12.5 50.5t-42.5 20.5v1z" />
    <glyph glyph-name="q" unicode="q" horiz-adv-x="640" 
d="M508 56q10 -10 21 -14t27 -4q8 0 16 1.5t15 4.5l17 6q6 -1 11 -7t5 -14q0 -2 -0.5 -4.5t-1.5 -5.5q-7 -17 -34 -32t-57 -20q-5 0 -9.5 -0.5t-9.5 -0.5q-28 0 -51 9t-41 26q-5 -1 -9.5 -2.5t-8.5 -2.5q-13 -3 -26.5 -5t-31.5 -4v54q8 1 12.5 3t8.5 5q2 1 3.5 2.5l2.5 2.5
l-4 5q-7 8 -12 13.5t-10 8.5q-4 3 -8.5 4.5t-10.5 2.5q-19 4 -25 9t-6 16q0 14 12 21.5t31 7.5q12 0 21.5 -1.5t17.5 -5.5q3 -1 6 -2.5t6 -3.5v430q0 28 -10 43.5t-35 23.5v54q125 -7 201 -103t76 -245q0 -90 -27 -159t-82 -118v1zM300 627q-25 -10 -35 -25t-10 -44v-436
q0 -41 10 -58t35 -24v-53q-127 10 -202 103.5t-75 241.5q0 149 76.5 245t200.5 102v-52v0z" />
    <glyph glyph-name="r" unicode="r" horiz-adv-x="699" 
d="M346 613v54h12q68 -1 102.5 -6t62.5 -20q4 -1 7.5 -3t6.5 -4q39 -22 58.5 -57.5t19.5 -80.5q0 -37 -14 -70t-40 -53l-0.5 -0.5l-1.5 -1.5q-10 -8 -21 -14t-26 -12q-11 -5 -24.5 -9.5t-31.5 -9.5q4 -1 8 -1.5t8 -0.5q29 -5 46 -10.5t33 -13.5q2 -1 4 -2.5t4 -2.5
q25 -15 39 -38t14 -49v-100q0 -8 2.5 -12t7.5 -4q2 0 3 0.5t2 0.5q2 1 4 3.5t5 6.5l6 6t7 5q3 2 6 3t6 1q1 0 2.5 -0.5t3.5 -0.5q6 -3 11.5 -8.5t6.5 -11.5q1 -2 1 -3v-2q0 -8 -4.5 -19t-12.5 -22q-9 -12 -20 -23t-24 -20q-17 -10 -38.5 -15.5t-48.5 -5.5q-65 0 -101.5 36.5
t-36.5 102.5v83q0 41 -12.5 61t-41.5 23v54q30 3 42 18t12 48v130q0 30 -11 44.5t-43 24.5v1zM308 667v-574q0 -18 4 -25t20 -12q3 0 6 -1t7 -2q11 -3 17 -9.5t6 -16.5q0 -14 -10 -20.5t-33 -6.5h-16h-219h-13q-19 0 -28 6.5t-9 19.5q0 9 5 15.5t15 9.5q4 1 7.5 2.5t5.5 2.5
q11 5 14 11.5t3 20.5v490q0 14 -2.5 20t-13.5 11q-3 1 -6.5 2.5t-7.5 2.5q-10 4 -15 10t-5 16q0 13 9.5 19.5t27.5 6.5l13 1h218v0z" />
    <glyph glyph-name="s" unicode="s" horiz-adv-x="563" 
d="M266 680v-56q-31 -9 -47.5 -26t-16.5 -43q0 -23 11.5 -40.5t36.5 -32.5l21 -10.5t41 -18.5l42 -18q19 -9 33 -16t25 -13q10 -5 18 -11t15 -12q3 -3 6 -5.5t6 -5.5q35 -32 52 -70t17 -85q0 -97 -68.5 -161.5t-177.5 -68.5v56q41 9 60 27t19 48q0 19 -7 33.5t-25 27.5
q-12 9 -30 18.5t-44 20.5q-47 20 -76 35t-49 28q-45 33 -68 77t-23 99q0 97 61.5 157t167.5 65v1zM240 43v-56q-11 0 -22 1.5t-22 4.5t-22 6.5t-22 9.5q-15 7 -22 10t-12 4h-3h-3q-3 0 -6 -0.5t-5 -1.5q-4 -2 -8 -6t-10 -12l-2 -2l-2 -2q-4 -3 -7 -4.5t-8 -1.5q-13 0 -20 11
t-7 31v178q0 13 8 22.5t20 9.5q11 0 17 -6.5t10 -22.5q11 -40 29 -73t46 -61l3.5 -3.5l3.5 -3.5q14 -13 30 -21t36 -12v1zM306 624v54q10 -2 18.5 -3t17.5 -3q14 -3 31 -9t43 -17l16 -3q5 -1 8.5 1t5.5 5l11 15q4 5 8.5 7.5t10.5 2.5q13 0 19 -9.5t6 -29.5v-160
q0 -15 -8 -24.5t-21 -9.5q-12 0 -19 8t-11 27q-11 55 -48.5 95t-87.5 52v1z" />
    <glyph glyph-name="t" unicode="t" horiz-adv-x="594" 
d="M406 667v-574q0 -19 4.5 -26t21.5 -12q3 -1 5.5 -1.5t5.5 -1.5q11 -2 17.5 -8.5t6.5 -16.5q0 -14 -10.5 -20.5t-33.5 -6.5h-16h-219h-17q-22 0 -32.5 6.5t-10.5 20.5q0 10 6 16.5t17 8.5q4 1 7 1.5t5 1.5q17 5 21 12t4 25v575h218v0zM20 667h128v-60q-25 -15 -40.5 -43.5
t-23.5 -70.5l-5 -29q-2 -16 -10 -24t-20 -8q-13 0 -21 9t-8 23v203v0zM574 667v-202q0 -15 -8 -24t-21 -9q-12 0 -20 8.5t-11 22.5l-5 31q-7 41 -22.5 69.5t-40.5 42.5v61h128v0z" />
    <glyph glyph-name="u" unicode="u" horiz-adv-x="677" 
d="M359 51v-64h-15q-43 0 -73.5 4.5t-58.5 14.5q-7 2 -13 4.5t-12 5.5q-58 28 -81.5 67.5t-23.5 110.5v384q0 14 -2.5 20t-13.5 11q-3 1 -6.5 2.5t-7.5 2.5q-10 3 -15 9.5t-5 15.5q0 13 9.5 20t26.5 7l14 1h218h13q18 -1 27.5 -7.5t9.5 -20.5q0 -9 -5 -15.5t-15 -9.5
q-4 -1 -7.5 -2.5t-6.5 -2.5q-11 -5 -13.5 -11t-2.5 -21v-409q0 -38 2 -54t6 -28q1 0 1 -0.5v-0.5q7 -16 17 -23t33 -12v1zM398 -13v64q56 7 86.5 46.5t30.5 103.5v319q0 33 -12.5 56t-37.5 36q-6 3 -10 6t-7 5q-4 4 -5.5 8.5t-1.5 10.5q0 13 9 18.5t29 5.5l122 1
q13 -1 18.5 -1.5t9.5 -2.5q1 0 1.5 -0.5l0.5 -0.5q6 -4 9.5 -9t3.5 -11q0 -5 -1 -8.5t-3 -6.5q-3 -3 -9 -7t-16 -10q-22 -12 -34 -36t-12 -55v-317q0 -89 -45 -145.5t-126 -69.5v0z" />
    <glyph glyph-name="v" unicode="v" horiz-adv-x="603" 
d="M405 171l-46 -171h-129l-173 584q-1 3 -2.5 6l-2.5 5q-2 6 -5 8.5t-9 4.5q-5 2 -8.5 4t-6.5 4q-6 4 -8 8.5t-2 11.5q0 15 11.5 22.5t35.5 7.5l217 1q20 -1 27 -2t11 -3q6 -3 10 -9.5t4 -14.5t-4 -14.5t-13 -10.5q-13 -6 -17.5 -13t-4.5 -19l2 -12l113 -398v0zM424 241
l-26 92l56 205l3 23q0 17 -7.5 29.5t-20.5 17.5l-15 6q-9 2 -14 9t-5 15q0 14 11 21t30 7l119 1q23 -1 32 -7t9 -20q0 -9 -3.5 -14t-13.5 -10l-25 -11q-1 -2 -2.5 -2.5t-2.5 -1.5q-14 -9 -26.5 -30t-20.5 -46l-78 -284v0z" />
    <glyph glyph-name="w" unicode="w" horiz-adv-x="821" 
d="M380 237l-59 -237h-106l-156 574l-2 6t-2 5q-4 12 -8.5 17t-13.5 8q-10 5 -15 11t-5 16q0 14 12 21.5t34 7.5l229 1q21 -1 30 -7t9 -20q0 -7 -4 -13.5t-12 -11.5l-10.5 -7t-6.5 -5q-4 -4 -5 -8t-1 -11l1 -10l91 -337v0zM426 667h101l118 -445l-57 -222h-106l-114 429
l58 238v0zM663 301l-26 99l36 144l4 27q0 13 -8 23.5t-26 19.5q-4 2 -7 4t-5 4q-6 4 -8 8.5t-2 11.5q0 13 8.5 18.5t25.5 5.5l116 1q20 -1 28 -6.5t8 -19.5q0 -7 -3.5 -12t-14.5 -10q-28 -13 -42 -32t-24 -54l-60 -232v0z" />
    <glyph glyph-name="x" unicode="x" horiz-adv-x="608" 
d="M306 581l246 -499q1 -3 2 -5l2 -4q4 -5 7.5 -8.5t9.5 -6.5q0 -1 1 -1.5t2 -0.5q5 -3 8.5 -5.5t5.5 -4.5q5 -4 6.5 -8.5t1.5 -10.5q0 -15 -10 -21t-35 -6h-229q-17 0 -24.5 0.5t-12.5 3.5q-1 0 -2 0.5t-2 1.5q-4 4 -7 9.5t-3 11.5q0 3 1 6t3 6l5 5t8 6q4 3 7 5.5t5 5.5
t3 5.5t1 5.5q0 2 -1.5 7t-3.5 10l-2 4l-2 4l-240 484q-6 12 -13 19t-18 12q-9 5 -13 11t-4 15q0 16 10 22t38 6l227 1q26 -1 36.5 -7.5t10.5 -20.5q0 -6 -2 -10.5t-6 -8.5q-2 -2 -4 -3t-4 -3q-3 -2 -5.5 -4t-3.5 -4q-2 -2 -2.5 -5t-0.5 -6q0 -4 1 -7.5t2 -7.5v1zM186 238
l26 -55l-30 -50q-10 -17 -13.5 -26t-3.5 -17q0 -13 6.5 -21.5t20.5 -13.5l4 -2t4 -1q10 -5 14 -11t4 -14q0 -15 -10 -21t-33 -6h-125q-16 0 -25 6t-9 18q0 10 6 16t19 11q19 7 33 18.5t24 27.5l88 141v0zM416 446l-27 54l27 47q4 4 5.5 10.5t1.5 13.5q0 13 -6 23t-17 15
l-16 9q-4 1 -7 6t-4 10q-1 2 -1 3.5v2.5q0 12 8.5 19t21.5 7l142 1q14 -1 22.5 -7.5t8.5 -16.5q0 -6 -1 -10t-5 -7q-3 -3 -8.5 -6.5t-14.5 -8.5q-17 -10 -31.5 -23.5t-26.5 -31.5l-72 -110v0z" />
    <glyph glyph-name="y" unicode="y" horiz-adv-x="597" 
d="M402 306v-213q0 -19 4.5 -26t21.5 -12q3 -1 5.5 -1.5t5.5 -1.5q11 -2 17 -8.5t6 -17.5q0 -14 -10 -20t-33 -6h-16h-220h-16q-22 0 -32.5 6.5t-10.5 20.5q0 10 6 16.5t17 8.5q4 1 7 1.5t5 1.5q17 5 21 12t4 25v166l-138 329q-4 10 -9 16t-13 11q-5 3 -9 5.5t-6 4.5
q-4 4 -5 7.5t-1 9.5q0 13 9 19t28 6l240 1q20 -1 29.5 -7t9.5 -20q0 -7 -3.5 -13t-10.5 -11l-14 -8q-4 -3 -6.5 -7.5t-2.5 -9.5q0 -2 0.5 -5.5t1.5 -6.5q0 -2 0.5 -3.5t0.5 -3.5q1 -1 1.5 -2.5t0.5 -2.5l115 -261v0zM420 352l-28 64l51 115q2 4 3.5 9.5t2.5 10.5t1.5 9
t0.5 8q0 15 -7.5 25.5t-24.5 17.5q-6 2 -10 4t-7 4q-7 4 -9 8t-2 11q0 16 10.5 22t36.5 6l121 1q17 -1 25.5 -8t8.5 -21q0 -7 -2 -11.5t-8 -8.5l-5 -2.5l-7 -3.5q-22 -10 -35.5 -23.5t-23.5 -33.5l-11 -24l-81 -179v0z" />
    <glyph glyph-name="z" unicode="z" horiz-adv-x="523" 
d="M503 667v-56l-270 -611h-213v49l271 618h212v0zM503 0h-228l22 49q65 14 94.5 36.5t52.5 76.5q2 4 3.5 8.5t3.5 9.5q1 4 2.5 6.5t2.5 5.5q5 8 9.5 11.5t12.5 3.5q12 0 18.5 -8.5t6.5 -25.5v-173v0zM37 667h212l-25 -56q-50 -8 -86 -39.5t-50 -81.5q-4 -15 -10 -21t-17 -6
q-12 0 -18 8t-6 21v175v0z" />
    <glyph glyph-name="braceleft" unicode="{" horiz-adv-x="434" 
d="M190 262q44 -9 65 -19t33 -28q5 -7 7.5 -17t3.5 -24v-16.5v-32.5v-126q0 -40 13.5 -55t56.5 -24q17 -4 24 -10.5t7 -19.5q0 -20 -14 -27t-52 -7h-47q-46 0 -77 10t-47 30q-2 3 -4 5.5t-3 4.5q-12 19 -15 44.5t-3 87.5v75l-3 49q0 19 -2.5 29t-9.5 18q-1 0 -1.5 1t-1.5 2
l-1.5 1.5l-0.5 0.5q-10 9 -20.5 13.5t-29.5 5.5q-15 2 -22 8.5t-7 19.5q0 14 6.5 20.5t22.5 7.5q32 4 49 18t18 40v16l3 48v74q0 42 0.5 60.5t3.5 32.5q0 2 0.5 4.5t1.5 5.5q10 42 43.5 60t99.5 18l68 1q23 -1 34 -9t11 -25q0 -13 -7 -20t-24 -11q-8 -2 -14 -3t-11 -2
q-4 -2 -7.5 -3t-6.5 -3l-1.5 -1.5t-1.5 -0.5q-10 -6 -17 -16t-8 -21l-2 -15l-1 -17v-121v-42.5t-2 -19.5v-1.5v-0.5q-4 -31 -27 -47t-80 -27v1z" />
    <glyph glyph-name="bar" unicode="|" horiz-adv-x="500" 
d="M196 666h109v-833h-109v833v0z" />
    <glyph glyph-name="braceright" unicode="}" horiz-adv-x="434" 
d="M244 261q-44 7 -65 17t-33 28q-4 8 -7 18t-4 23v17.5v31.5v128q0 39 -13.5 54.5t-56.5 23.5q-16 4 -23.5 11t-7.5 20q0 20 14 26.5t52 6.5l47 1q47 -1 77.5 -11t46.5 -30q2 -3 4 -5.5t3 -4.5q12 -19 15.5 -44.5t3.5 -88.5v-73l2 -49q1 -21 3.5 -31t8.5 -18q1 0 1.5 -1
t1.5 -2l1.5 -1.5l0.5 -0.5q10 -9 20.5 -13t29.5 -6q15 -1 22 -7.5t7 -20.5q0 -13 -6.5 -19.5t-22.5 -8.5q-32 -3 -48.5 -17.5t-18.5 -40.5v-13l-2 -49v-74q0 -43 -1 -61.5t-4 -32.5q0 -2 -0.5 -4.5t-1.5 -5.5q-10 -41 -43.5 -59.5t-99.5 -18.5h-68q-22 0 -33.5 8t-11.5 25
q0 13 7.5 20t23.5 11q8 2 14 3t11 2q4 2 7.5 3t6.5 3l1.5 1.5t1.5 0.5q11 6 17.5 16t7.5 21l2 16l1 17v121v40.5t2 19.5v1.5v0.5q5 32 27.5 47.5t79.5 26.5v1z" />
    <glyph glyph-name="asciitilde" unicode="~" horiz-adv-x="667" 
d="M503 734l25 -15q-11 -23 -25 -42.5t-31 -37.5l-6 -6t-6 -5q-15 -13 -30.5 -18.5t-35.5 -5.5q-13 0 -29.5 4t-42.5 13l-28 12q-6 1 -13 3l-14 4l-16 2t-14 1q-11 0 -19.5 -2t-16.5 -7q-7 -4 -14 -10t-15 -15l-8 -8l-24 15q12 22 24 39.5t24 31.5q19 22 39.5 32t42.5 10
h1.5h0.5q14 0 30.5 -4t47.5 -15q29 -10 47 -15t31 -5q18 0 33 7.5t30 22.5l6 6t6 7v1z" />
    <glyph glyph-name="Adieresis" unicode="&#xc4;" horiz-adv-x="619" 
d="M202 542l25 -101l-87 -315q-1 -4 -1.5 -7.5t-0.5 -6.5q-1 -3 -1 -6.5v-6.5q0 -14 7.5 -25.5t21.5 -17.5l16 -7q8 -5 12.5 -11.5t4.5 -14.5q0 -11 -9.5 -17t-26.5 -6h-124q-17 0 -28 7t-11 19q0 8 5 14t17 11q31 14 45.5 32t24.5 56l110 403v0zM236 667h197l135 -574
q1 -4 1.5 -6.5t1.5 -5.5q4 -14 9.5 -20.5t16.5 -10.5q1 -1 2.5 -1.5t2.5 -0.5q10 -5 13.5 -10.5t3.5 -14.5q0 -11 -9.5 -17t-28.5 -6h-244q-14 0 -23 6.5t-9 18.5q0 6 1.5 10t4.5 7q3 2 7 4.5t9 5.5q1 1 2 1.5t2 0.5q7 5 10 10.5t3 14.5l-1 14l-16 71h-136l13 60h110
l-90 395l12 48v0zM236 850q30 -1 51.5 -21.5t21.5 -50.5q0 -29 -21.5 -50t-51.5 -21t-51.5 21t-21.5 50q0 30 21.5 50.5t51.5 20.5v1zM422 850q31 -1 52.5 -21.5t21.5 -50.5q0 -29 -21.5 -50t-52.5 -21q-30 0 -51.5 21t-21.5 50q0 30 21.5 50.5t51.5 20.5v1z" />
    <glyph glyph-name="Aring" unicode="&#xc5;" horiz-adv-x="619" 
d="M202 542l25 -101l-87 -315q-1 -4 -1.5 -7.5t-0.5 -6.5q-1 -3 -1 -6.5v-6.5q0 -14 7.5 -25.5t21.5 -17.5l16 -7q8 -5 12.5 -11.5t4.5 -14.5q0 -11 -9.5 -17t-26.5 -6h-124q-17 0 -28 7t-11 19q0 8 5 14t17 11q31 14 45.5 32t24.5 56l110 403v0zM236 667h197l135 -574
q1 -4 1.5 -6.5t1.5 -5.5q4 -14 9.5 -20.5t16.5 -10.5q1 -1 2.5 -1.5t2.5 -0.5q10 -5 13.5 -10.5t3.5 -14.5q0 -11 -9.5 -17t-28.5 -6h-244q-14 0 -23 6.5t-9 18.5q0 6 1.5 10t4.5 7q3 2 7 4.5t9 5.5q1 1 2 1.5t2 0.5q7 5 10 10.5t3 14.5l-1 14l-16 71h-136l13 60h110
l-90 395l12 48v0zM312 697q-43 9 -67.5 37t-24.5 68q0 41 24.5 68.5t67.5 37.5v-63q-15 -8 -21.5 -18.5t-6.5 -24.5t6.5 -24t21.5 -18v-63v0zM348 909q44 -11 68 -38.5t24 -68.5q0 -40 -24 -68t-68 -38v65q15 7 21.5 17t6.5 24t-7 24t-21 18v65v0z" />
    <glyph glyph-name="Ccedilla" unicode="&#xc7;" horiz-adv-x="584" 
d="M294 -43q41 0 71.5 -36.5t30.5 -83.5q0 -45 -36 -77t-87 -32q-21 0 -32.5 7t-11.5 20q0 8 5.5 14t14.5 5h16q27 -1 44 11.5t17 32.5q0 16 -10.5 24.5t-33.5 11.5q-22 3 -33 16t-11 36q0 24 15 37.5t41 13.5v0zM309 680v-59q-28 -5 -42 -26.5t-14 -59.5v-403v-21
q2 -29 16.5 -46t39.5 -19v-59q-136 3 -212.5 92t-76.5 243q0 69 16.5 128t47.5 105q26 37 63 65.5t76 43.5q18 7 36.5 11t35.5 4l14 1v0zM349 -13v60q50 2 90.5 35t55.5 82q5 16 11.5 22.5t17.5 6.5t19 -8.5t8 -21.5q0 -14 -6.5 -31.5t-18.5 -35.5q-9 -15 -20.5 -29
t-24.5 -26q-4 -4 -8 -7l-8 -6q-27 -21 -54.5 -30.5t-61.5 -10.5v0zM349 621v58q2 -1 4.5 -1.5t4.5 -0.5q4 -1 8.5 -1.5t8.5 -1.5q11 -3 25 -7.5t41 -14.5q14 -5 21 -7t12 -2h2h2q5 1 10 4.5t7 8.5l6 13q3 4 9 7t13 3q14 0 20.5 -8t6.5 -23v-202q0 -18 -7 -28t-21 -10
q-11 0 -18.5 8t-11.5 24q-21 80 -58 126.5t-85 53.5v1z" />
    <glyph glyph-name="Eacute" unicode="&#xc9;" horiz-adv-x="587" 
d="M308 667v-667h-218h-13q-19 0 -28 6.5t-9 19.5q0 9 5 15.5t15 9.5q4 1 7.5 2.5t6.5 2.5q11 5 13.5 11t2.5 21v490q0 14 -2.5 20t-13.5 11q-3 1 -6.5 2.5t-7.5 2.5q-10 3 -15 9.5t-5 15.5q0 14 9.5 20.5t27.5 6.5l13 1h218v0zM349 0v53q59 7 95 38t57 89q1 3 2.5 6l2.5 5
q5 9 9.5 12.5t12.5 3.5q15 0 20.5 -7.5t5.5 -28.5v-171h-205v0zM349 311v57q28 13 41.5 28.5t19.5 42.5q5 19 10.5 26t18.5 7q14 0 19 -8.5t5 -32.5v-185q0 -24 -5 -32.5t-19 -8.5q-11 0 -17 6.5t-11 22.5q-8 34 -23 52t-39 24v1zM349 667h198v-174q0 -16 -5.5 -23t-18.5 -7
q-10 0 -15 3.5t-9 13.5q-1 1 -1.5 2.5t-0.5 2.5q-19 58 -55 87.5t-93 35.5v59v0zM438 825l-134 -104l-9 -7q-3 -3 -5 -4.5t-4 -2.5q-2 0 -3.5 -0.5t-3.5 -0.5l-35 1q-6 -1 -10 1t-4 6l2 7l73 113q3 3 5 6t4 5q4 4 9.5 5t14.5 1l97 1q7 -1 11.5 -4t4.5 -8v-2t-1 -2
q-1 -2 -4 -5t-8 -7v1z" />
    <glyph glyph-name="Ntilde" unicode="&#xd1;" horiz-adv-x="671" 
d="M112 496l51 -87v-262q0 -35 11.5 -57t36.5 -36l14 -7q7 -5 10 -10.5t3 -12.5q0 -13 -9.5 -18.5t-32.5 -5.5h-112q-22 0 -33 6t-11 19q0 4 1 7t3 5q3 3 8 6.5t13 8.5q24 14 35.5 37t11.5 57v350v0zM316 667l260 -451v-216h-133l-331 571q-6 9 -10.5 15.5t-8.5 10.5t-8 6
t-9 4l-18 8q-7 1 -11.5 7.5t-4.5 14.5q0 9 5.5 16.5t12.5 9.5q5 2 15 2.5t27 0.5l214 1v0zM576 294l-51 87v135q0 40 -12 62t-42 37q-1 1 -2.5 1.5t-2.5 1.5q-7 4 -10 9t-3 14q0 13 8.5 19t27.5 6l122 1q21 -1 30.5 -7.5t9.5 -20.5q0 -5 -1 -8.5t-4 -7.5q-3 -3 -8.5 -6
t-13.5 -7q-24 -13 -36 -36t-12 -59v-221v0zM277 851q2 -1 4 -1h5q14 -1 30 -7t41 -20q21 -11 40 -17t32 -6q10 0 16.5 6.5t10.5 21.5q3 11 6.5 15t9.5 4q12 0 17 -5.5t5 -19.5q0 -8 -1.5 -17t-4.5 -19t-7 -19t-9 -17q-13 -22 -33 -33t-44 -11h-5.5h-4.5q-13 2 -27 6.5
t-35 14.5l-33 17q-17 7 -27.5 10.5t-18.5 3.5q-10 0 -17 -6.5t-12 -20.5q-2 -5 -3.5 -8.5t-3.5 -6.5t-4 -4t-5 -1q-10 0 -16 6.5t-6 18.5q0 8 2 17.5t5 18.5q4 12 9.5 22.5t11.5 19.5q14 18 32 27t40 9v1z" />
    <glyph glyph-name="Odieresis" unicode="&#xd6;" horiz-adv-x="634" 
d="M297 627q-25 -9 -35 -24.5t-10 -44.5v-436q0 -41 10 -58t35 -24v-53q-127 10 -202 103.5t-75 241.5q0 149 76.5 245t200.5 102v-52v0zM337 627v53q125 -7 201 -103t76 -245q0 -148 -74.5 -241.5t-202.5 -103.5v54q25 5 35 24t10 56v438q0 28 -10 43.5t-35 23.5v1z
M224 850q30 -1 51.5 -21.5t21.5 -50.5q0 -29 -21.5 -50t-51.5 -21t-51.5 21t-21.5 50q0 30 21.5 50.5t51.5 20.5v1zM410 850q31 -1 52.5 -21.5t21.5 -50.5q0 -29 -21.5 -50t-52.5 -21q-30 0 -51.5 21t-21.5 50q0 30 21.5 50.5t51.5 20.5v1z" />
    <glyph glyph-name="Udieresis" unicode="&#xdc;" horiz-adv-x="677" 
d="M359 51v-64h-15q-43 0 -73.5 4.5t-58.5 14.5q-7 2 -13 4.5t-12 5.5q-58 28 -81.5 67.5t-23.5 110.5v384q0 14 -2.5 20t-13.5 11q-3 1 -6.5 2.5t-7.5 2.5q-10 3 -15 9.5t-5 15.5q0 13 9.5 20t26.5 7l14 1h218h13q18 -1 27.5 -7.5t9.5 -20.5q0 -9 -5 -15.5t-15 -9.5
q-4 -1 -7.5 -2.5t-6.5 -2.5q-11 -5 -13.5 -11t-2.5 -21v-409q0 -38 2 -54t6 -28q1 0 1 -0.5v-0.5q7 -16 17 -23t33 -12v1zM398 -13v64q56 7 86.5 46.5t30.5 103.5v319q0 33 -12.5 56t-37.5 36q-6 3 -10 6t-7 5q-4 4 -5.5 8.5t-1.5 10.5q0 13 9 18.5t29 5.5l122 1
q13 -1 18.5 -1.5t9.5 -2.5q1 0 1.5 -0.5l0.5 -0.5q6 -4 9.5 -9t3.5 -11q0 -5 -1 -8.5t-3 -6.5q-3 -3 -9 -7t-16 -10q-22 -12 -34 -36t-12 -55v-317q0 -89 -45 -145.5t-126 -69.5v0zM246 850q30 -1 51.5 -21.5t21.5 -50.5q0 -29 -21.5 -50t-51.5 -21t-51.5 21t-21.5 50
q0 30 21.5 50.5t51.5 20.5v1zM432 850q31 -1 52.5 -21.5t21.5 -50.5q0 -29 -21.5 -50t-52.5 -21q-30 0 -51.5 21t-21.5 50q0 30 21.5 50.5t51.5 20.5v1z" />
    <glyph glyph-name="aacute" unicode="&#xe1;" horiz-adv-x="619" 
d="M202 542l25 -101l-87 -315q-1 -4 -1.5 -7.5t-0.5 -6.5q-1 -3 -1 -6.5v-6.5q0 -14 7.5 -25.5t21.5 -17.5l16 -7q8 -5 12.5 -11.5t4.5 -14.5q0 -11 -9.5 -17t-26.5 -6h-124q-17 0 -28 7t-11 19q0 8 5 14t17 11q31 14 45.5 32t24.5 56l110 403v0zM236 667h197l135 -574
q1 -4 1.5 -6.5t1.5 -5.5q4 -14 9.5 -20.5t16.5 -10.5q1 -1 2.5 -1.5t2.5 -0.5q10 -5 13.5 -10.5t3.5 -14.5q0 -11 -9.5 -17t-28.5 -6h-244q-14 0 -23 6.5t-9 18.5q0 6 1.5 10t4.5 7q3 2 7 4.5t9 5.5q1 1 2 1.5t2 0.5q7 5 10 10.5t3 14.5l-1 14l-16 71h-136l13 60h110
l-90 395l12 48v0zM454 825l-134 -104l-9 -7q-3 -3 -5 -4.5t-4 -2.5q-2 0 -3.5 -0.5t-3.5 -0.5l-35 1q-6 -1 -10 1t-4 6l2 7l73 113q3 3 5 6t4 5q4 4 9.5 5t14.5 1l97 1q7 -1 11.5 -4t4.5 -8v-2t-1 -2q-1 -2 -4 -5t-8 -7v1z" />
    <glyph glyph-name="agrave" unicode="&#xe0;" horiz-adv-x="619" 
d="M202 542l25 -101l-87 -315q-1 -4 -1.5 -7.5t-0.5 -6.5q-1 -3 -1 -6.5v-6.5q0 -14 7.5 -25.5t21.5 -17.5l16 -7q8 -5 12.5 -11.5t4.5 -14.5q0 -11 -9.5 -17t-26.5 -6h-124q-17 0 -28 7t-11 19q0 8 5 14t17 11q31 14 45.5 32t24.5 56l110 403v0zM236 667h197l135 -574
q1 -4 1.5 -6.5t1.5 -5.5q4 -14 9.5 -20.5t16.5 -10.5q1 -1 2.5 -1.5t2.5 -0.5q10 -5 13.5 -10.5t3.5 -14.5q0 -11 -9.5 -17t-28.5 -6h-244q-14 0 -23 6.5t-9 18.5q0 6 1.5 10t4.5 7q3 2 7 4.5t9 5.5q1 1 2 1.5t2 0.5q7 5 10 10.5t3 14.5l-1 14l-16 71h-136l13 60h110
l-90 395l12 48v0zM184 852h98q10 -1 15 -2t9 -5q2 -2 4 -5t5 -7l73 -112l2 -6q0 -5 -4 -7t-10 -2l-36 1q-1 -1 -2 -1t-3 1q-2 0 -4 2t-6 4l-9 8l-135 104q-6 4 -8.5 7t-3.5 5v1.5v0.5q0 5 4.5 8.5t10.5 3.5v1z" />
    <glyph glyph-name="acircumflex" unicode="&#xe2;" horiz-adv-x="619" 
d="M202 542l25 -101l-87 -315q-1 -4 -1.5 -7.5t-0.5 -6.5q-1 -3 -1 -6.5v-6.5q0 -14 7.5 -25.5t21.5 -17.5l16 -7q8 -5 12.5 -11.5t4.5 -14.5q0 -11 -9.5 -17t-26.5 -6h-124q-17 0 -28 7t-11 19q0 8 5 14t17 11q31 14 45.5 32t24.5 56l110 403v0zM236 667h197l135 -574
q1 -4 1.5 -6.5t1.5 -5.5q4 -14 9.5 -20.5t16.5 -10.5q1 -1 2.5 -1.5t2.5 -0.5q10 -5 13.5 -10.5t3.5 -14.5q0 -11 -9.5 -17t-28.5 -6h-244q-14 0 -23 6.5t-9 18.5q0 6 1.5 10t4.5 7q3 2 7 4.5t9 5.5q1 1 2 1.5t2 0.5q7 5 10 10.5t3 14.5l-1 14l-16 71h-136l13 60h110
l-90 395l12 48v0zM324 760l-24 -38l-5 -9q0 -1 -0.5 -1.5l-0.5 -0.5q-4 -3 -8.5 -4t-15.5 -1l-69 1q-12 -1 -17.5 1.5t-5.5 8.5v2t1 3t2.5 4.5t4.5 5.5l95 100q8 7 14 11.5t12 5.5q2 1 3.5 1h2.5l25 1q4 -1 8.5 -2.5t9.5 -3.5q4 -2 8.5 -5.5t8.5 -8.5l97 -98l7 -8l3 -8
q0 -7 -3.5 -9t-13.5 -2l-80 1q-15 -1 -23 2.5t-13 11.5l-23 39v0z" />
    <glyph glyph-name="adieresis" unicode="&#xe4;" horiz-adv-x="619" 
d="M202 542l25 -101l-87 -315q-1 -4 -1.5 -7.5t-0.5 -6.5q-1 -3 -1 -6.5v-6.5q0 -14 7.5 -25.5t21.5 -17.5l16 -7q8 -5 12.5 -11.5t4.5 -14.5q0 -11 -9.5 -17t-26.5 -6h-124q-17 0 -28 7t-11 19q0 8 5 14t17 11q31 14 45.5 32t24.5 56l110 403v0zM236 667h197l135 -574
q1 -4 1.5 -6.5t1.5 -5.5q4 -14 9.5 -20.5t16.5 -10.5q1 -1 2.5 -1.5t2.5 -0.5q10 -5 13.5 -10.5t3.5 -14.5q0 -11 -9.5 -17t-28.5 -6h-244q-14 0 -23 6.5t-9 18.5q0 6 1.5 10t4.5 7q3 2 7 4.5t9 5.5q1 1 2 1.5t2 0.5q7 5 10 10.5t3 14.5l-1 14l-16 71h-136l13 60h110
l-90 395l12 48v0zM236 850q30 -1 51.5 -21.5t21.5 -50.5q0 -29 -21.5 -50t-51.5 -21t-51.5 21t-21.5 50q0 30 21.5 50.5t51.5 20.5v1zM422 850q31 -1 52.5 -21.5t21.5 -50.5q0 -29 -21.5 -50t-52.5 -21q-30 0 -51.5 21t-21.5 50q0 30 21.5 50.5t51.5 20.5v1z" />
    <glyph glyph-name="atilde" unicode="&#xe3;" horiz-adv-x="619" 
d="M202 542l25 -101l-87 -315q-1 -4 -1.5 -7.5t-0.5 -6.5q-1 -3 -1 -6.5v-6.5q0 -14 7.5 -25.5t21.5 -17.5l16 -7q8 -5 12.5 -11.5t4.5 -14.5q0 -11 -9.5 -17t-26.5 -6h-124q-17 0 -28 7t-11 19q0 8 5 14t17 11q31 14 45.5 32t24.5 56l110 403v0zM236 667h197l135 -574
q1 -4 1.5 -6.5t1.5 -5.5q4 -14 9.5 -20.5t16.5 -10.5q1 -1 2.5 -1.5t2.5 -0.5q10 -5 13.5 -10.5t3.5 -14.5q0 -11 -9.5 -17t-28.5 -6h-244q-14 0 -23 6.5t-9 18.5q0 6 1.5 10t4.5 7q3 2 7 4.5t9 5.5q1 1 2 1.5t2 0.5q7 5 10 10.5t3 14.5l-1 14l-16 71h-136l13 60h110
l-90 395l12 48v0zM268 851q2 -1 4 -1h5q14 -1 30 -7t41 -20q21 -11 40 -17t32 -6q10 0 16.5 6.5t10.5 21.5q3 11 6.5 15t9.5 4q12 0 17 -5.5t5 -19.5q0 -8 -1.5 -17t-4.5 -19t-7 -19t-9 -17q-13 -22 -33 -33t-44 -11h-5.5h-4.5q-13 2 -27 6.5t-35 14.5l-33 17
q-17 7 -27.5 10.5t-18.5 3.5q-10 0 -17 -6.5t-12 -20.5q-2 -5 -3.5 -8.5t-3.5 -6.5t-4 -4t-5 -1q-10 0 -16 6.5t-6 18.5q0 8 2 17.5t5 18.5q4 12 9.5 22.5t11.5 19.5q14 18 32 27t40 9v1z" />
    <glyph glyph-name="aring" unicode="&#xe5;" horiz-adv-x="619" 
d="M202 542l25 -101l-87 -315q-1 -4 -1.5 -7.5t-0.5 -6.5q-1 -3 -1 -6.5v-6.5q0 -14 7.5 -25.5t21.5 -17.5l16 -7q8 -5 12.5 -11.5t4.5 -14.5q0 -11 -9.5 -17t-26.5 -6h-124q-17 0 -28 7t-11 19q0 8 5 14t17 11q31 14 45.5 32t24.5 56l110 403v0zM236 667h197l135 -574
q1 -4 1.5 -6.5t1.5 -5.5q4 -14 9.5 -20.5t16.5 -10.5q1 -1 2.5 -1.5t2.5 -0.5q10 -5 13.5 -10.5t3.5 -14.5q0 -11 -9.5 -17t-28.5 -6h-244q-14 0 -23 6.5t-9 18.5q0 6 1.5 10t4.5 7q3 2 7 4.5t9 5.5q1 1 2 1.5t2 0.5q7 5 10 10.5t3 14.5l-1 14l-16 71h-136l13 60h110
l-90 395l12 48v0zM312 697q-43 9 -67.5 37t-24.5 68q0 41 24.5 68.5t67.5 37.5v-63q-15 -8 -21.5 -18.5t-6.5 -24.5t6.5 -24t21.5 -18v-63v0zM348 909q44 -11 68 -38.5t24 -68.5q0 -40 -24 -68t-68 -38v65q15 7 21.5 17t6.5 24t-7 24t-21 18v65v0z" />
    <glyph glyph-name="ccedilla" unicode="&#xe7;" horiz-adv-x="584" 
d="M294 -43q41 0 71.5 -36.5t30.5 -83.5q0 -45 -36 -77t-87 -32q-21 0 -32.5 7t-11.5 20q0 8 5.5 14t14.5 5h16q27 -1 44 11.5t17 32.5q0 16 -10.5 24.5t-33.5 11.5q-22 3 -33 16t-11 36q0 24 15 37.5t41 13.5v0zM309 680v-59q-28 -5 -42 -26.5t-14 -59.5v-403v-21
q2 -29 16.5 -46t39.5 -19v-59q-136 3 -212.5 92t-76.5 243q0 69 16.5 128t47.5 105q26 37 63 65.5t76 43.5q18 7 36.5 11t35.5 4l14 1v0zM349 -13v60q50 2 90.5 35t55.5 82q5 16 11.5 22.5t17.5 6.5t19 -8.5t8 -21.5q0 -14 -6.5 -31.5t-18.5 -35.5q-9 -15 -20.5 -29
t-24.5 -26q-4 -4 -8 -7l-8 -6q-27 -21 -54.5 -30.5t-61.5 -10.5v0zM349 621v58q2 -1 4.5 -1.5t4.5 -0.5q4 -1 8.5 -1.5t8.5 -1.5q11 -3 25 -7.5t41 -14.5q14 -5 21 -7t12 -2h2h2q5 1 10 4.5t7 8.5l6 13q3 4 9 7t13 3q14 0 20.5 -8t6.5 -23v-202q0 -18 -7 -28t-21 -10
q-11 0 -18.5 8t-11.5 24q-21 80 -58 126.5t-85 53.5v1z" />
    <glyph glyph-name="eacute" unicode="&#xe9;" horiz-adv-x="587" 
d="M308 667v-667h-218h-13q-19 0 -28 6.5t-9 19.5q0 9 5 15.5t15 9.5q4 1 7.5 2.5t6.5 2.5q11 5 13.5 11t2.5 21v490q0 14 -2.5 20t-13.5 11q-3 1 -6.5 2.5t-7.5 2.5q-10 3 -15 9.5t-5 15.5q0 14 9.5 20.5t27.5 6.5l13 1h218v0zM349 0v53q59 7 95 38t57 89q1 3 2.5 6l2.5 5
q5 9 9.5 12.5t12.5 3.5q15 0 20.5 -7.5t5.5 -28.5v-171h-205v0zM349 311v57q28 13 41.5 28.5t19.5 42.5q5 19 10.5 26t18.5 7q14 0 19 -8.5t5 -32.5v-185q0 -24 -5 -32.5t-19 -8.5q-11 0 -17 6.5t-11 22.5q-8 34 -23 52t-39 24v1zM349 667h198v-174q0 -16 -5.5 -23t-18.5 -7
q-10 0 -15 3.5t-9 13.5q-1 1 -1.5 2.5t-0.5 2.5q-19 58 -55 87.5t-93 35.5v59v0zM438 825l-134 -104l-9 -7q-3 -3 -5 -4.5t-4 -2.5q-2 0 -3.5 -0.5t-3.5 -0.5l-35 1q-6 -1 -10 1t-4 6l2 7l73 113q3 3 5 6t4 5q4 4 9.5 5t14.5 1l97 1q7 -1 11.5 -4t4.5 -8v-2t-1 -2
q-1 -2 -4 -5t-8 -7v1z" />
    <glyph glyph-name="egrave" unicode="&#xe8;" horiz-adv-x="587" 
d="M308 667v-667h-218h-13q-19 0 -28 6.5t-9 19.5q0 9 5 15.5t15 9.5q4 1 7.5 2.5t6.5 2.5q11 5 13.5 11t2.5 21v490q0 14 -2.5 20t-13.5 11q-3 1 -6.5 2.5t-7.5 2.5q-10 3 -15 9.5t-5 15.5q0 14 9.5 20.5t27.5 6.5l13 1h218v0zM349 0v53q59 7 95 38t57 89q1 3 2.5 6l2.5 5
q5 9 9.5 12.5t12.5 3.5q15 0 20.5 -7.5t5.5 -28.5v-171h-205v0zM349 311v57q28 13 41.5 28.5t19.5 42.5q5 19 10.5 26t18.5 7q14 0 19 -8.5t5 -32.5v-185q0 -24 -5 -32.5t-19 -8.5q-11 0 -17 6.5t-11 22.5q-8 34 -23 52t-39 24v1zM349 667h198v-174q0 -16 -5.5 -23t-18.5 -7
q-10 0 -15 3.5t-9 13.5q-1 1 -1.5 2.5t-0.5 2.5q-19 58 -55 87.5t-93 35.5v59v0zM168 852h98q10 -1 15 -2t9 -5q2 -2 4 -5t5 -7l73 -112l2 -6q0 -5 -4 -7t-10 -2l-36 1q-1 -1 -2 -1t-3 1q-2 0 -4 2t-6 4l-9 8l-135 104q-6 4 -8.5 7t-3.5 5v1.5v0.5q0 5 4.5 8.5t10.5 3.5v1z
" />
    <glyph glyph-name="ecircumflex" unicode="&#xea;" horiz-adv-x="587" 
d="M308 667v-667h-218h-13q-19 0 -28 6.5t-9 19.5q0 9 5 15.5t15 9.5q4 1 7.5 2.5t6.5 2.5q11 5 13.5 11t2.5 21v490q0 14 -2.5 20t-13.5 11q-3 1 -6.5 2.5t-7.5 2.5q-10 3 -15 9.5t-5 15.5q0 14 9.5 20.5t27.5 6.5l13 1h218v0zM349 0v53q59 7 95 38t57 89q1 3 2.5 6l2.5 5
q5 9 9.5 12.5t12.5 3.5q15 0 20.5 -7.5t5.5 -28.5v-171h-205v0zM349 311v57q28 13 41.5 28.5t19.5 42.5q5 19 10.5 26t18.5 7q14 0 19 -8.5t5 -32.5v-185q0 -24 -5 -32.5t-19 -8.5q-11 0 -17 6.5t-11 22.5q-8 34 -23 52t-39 24v1zM349 667h198v-174q0 -16 -5.5 -23t-18.5 -7
q-10 0 -15 3.5t-9 13.5q-1 1 -1.5 2.5t-0.5 2.5q-19 58 -55 87.5t-93 35.5v59v0zM288 760l-24 -38l-5 -9q0 -1 -0.5 -1.5l-0.5 -0.5q-4 -3 -8.5 -4t-15.5 -1l-69 1q-12 -1 -17.5 1.5t-5.5 8.5v2t1 3t2.5 4.5t4.5 5.5l95 100q8 7 14 11.5t12 5.5q2 1 3.5 1h2.5l25 1
q4 -1 8.5 -2.5t9.5 -3.5q4 -2 8.5 -5.5t8.5 -8.5l97 -98l7 -8l3 -8q0 -7 -3.5 -9t-13.5 -2l-80 1q-15 -1 -23 2.5t-13 11.5l-23 39v0z" />
    <glyph glyph-name="edieresis" unicode="&#xeb;" horiz-adv-x="587" 
d="M308 667v-667h-218h-13q-19 0 -28 6.5t-9 19.5q0 9 5 15.5t15 9.5q4 1 7.5 2.5t6.5 2.5q11 5 13.5 11t2.5 21v490q0 14 -2.5 20t-13.5 11q-3 1 -6.5 2.5t-7.5 2.5q-10 3 -15 9.5t-5 15.5q0 14 9.5 20.5t27.5 6.5l13 1h218v0zM349 0v53q59 7 95 38t57 89q1 3 2.5 6l2.5 5
q5 9 9.5 12.5t12.5 3.5q15 0 20.5 -7.5t5.5 -28.5v-171h-205v0zM349 311v57q28 13 41.5 28.5t19.5 42.5q5 19 10.5 26t18.5 7q14 0 19 -8.5t5 -32.5v-185q0 -24 -5 -32.5t-19 -8.5q-11 0 -17 6.5t-11 22.5q-8 34 -23 52t-39 24v1zM349 667h198v-174q0 -16 -5.5 -23t-18.5 -7
q-10 0 -15 3.5t-9 13.5q-1 1 -1.5 2.5t-0.5 2.5q-19 58 -55 87.5t-93 35.5v59v0zM200 850q30 -1 51.5 -21.5t21.5 -50.5q0 -29 -21.5 -50t-51.5 -21t-51.5 21t-21.5 50q0 30 21.5 50.5t51.5 20.5v1zM386 850q31 -1 52.5 -21.5t21.5 -50.5q0 -29 -21.5 -50t-52.5 -21
q-30 0 -51.5 21t-21.5 50q0 30 21.5 50.5t51.5 20.5v1z" />
    <glyph glyph-name="iacute" unicode="&#xed;" horiz-adv-x="398" 
d="M308 0h-218h-13q-19 0 -28 6.5t-9 19.5q0 9 5 15.5t15 9.5q4 1 7.5 2.5t6.5 2.5q11 5 13.5 11t2.5 21v490q0 14 -2.5 20t-13.5 11q-3 1 -6.5 2.5t-7.5 2.5q-10 3 -15 9.5t-5 15.5q0 14 9.5 20.5t27.5 6.5l13 1h218h13q19 -2 28 -8t9 -20q0 -9 -5 -15.5t-15 -9.5
q-4 -1 -7.5 -2.5t-6.5 -2.5q-11 -5 -13.5 -11t-2.5 -21v-488q0 -16 2.5 -22t13.5 -11q3 -1 6.5 -2.5t7.5 -2.5q10 -3 15 -9.5t5 -15.5q0 -13 -9.5 -19.5t-27.5 -6.5h-13v0zM343 825l-134 -104l-9 -7q-3 -3 -5 -4.5t-4 -2.5q-2 0 -3.5 -0.5t-3.5 -0.5l-35 1q-6 -1 -10 1t-4 6
l2 7l73 113q3 3 5 6t4 5q4 4 9.5 5t14.5 1l97 1q7 -1 11.5 -4t4.5 -8v-2t-1 -2q-1 -2 -4 -5t-8 -7v1z" />
    <glyph glyph-name="igrave" unicode="&#xec;" horiz-adv-x="398" 
d="M308 0h-218h-13q-19 0 -28 6.5t-9 19.5q0 9 5 15.5t15 9.5q4 1 7.5 2.5t6.5 2.5q11 5 13.5 11t2.5 21v490q0 14 -2.5 20t-13.5 11q-3 1 -6.5 2.5t-7.5 2.5q-10 3 -15 9.5t-5 15.5q0 14 9.5 20.5t27.5 6.5l13 1h218h13q19 -2 28 -8t9 -20q0 -9 -5 -15.5t-15 -9.5
q-4 -1 -7.5 -2.5t-6.5 -2.5q-11 -5 -13.5 -11t-2.5 -21v-488q0 -16 2.5 -22t13.5 -11q3 -1 6.5 -2.5t7.5 -2.5q10 -3 15 -9.5t5 -15.5q0 -13 -9.5 -19.5t-27.5 -6.5h-13v0zM57 852h98q10 -1 15 -2t9 -5q2 -2 4 -5t5 -7l73 -112l2 -6q0 -5 -4 -7t-10 -2l-36 1q-1 -1 -2 -1
t-3 1q-2 0 -4 2t-6 4l-9 8l-135 104q-6 4 -8.5 7t-3.5 5v1.5v0.5q0 5 4.5 8.5t10.5 3.5v1z" />
    <glyph glyph-name="icircumflex" unicode="&#xee;" horiz-adv-x="398" 
d="M308 0h-218h-13q-19 0 -28 6.5t-9 19.5q0 9 5 15.5t15 9.5q4 1 7.5 2.5t6.5 2.5q11 5 13.5 11t2.5 21v490q0 14 -2.5 20t-13.5 11q-3 1 -6.5 2.5t-7.5 2.5q-10 3 -15 9.5t-5 15.5q0 14 9.5 20.5t27.5 6.5l13 1h218h13q19 -2 28 -8t9 -20q0 -9 -5 -15.5t-15 -9.5
q-4 -1 -7.5 -2.5t-6.5 -2.5q-11 -5 -13.5 -11t-2.5 -21v-488q0 -16 2.5 -22t13.5 -11q3 -1 6.5 -2.5t7.5 -2.5q10 -3 15 -9.5t5 -15.5q0 -13 -9.5 -19.5t-27.5 -6.5h-13v0zM194 760l-24 -38l-5 -9q0 -1 -0.5 -1.5l-0.5 -0.5q-4 -3 -8.5 -4t-15.5 -1l-69 1q-12 -1 -17.5 1.5
t-5.5 8.5v2t1 3t2.5 4.5t4.5 5.5l95 100q8 7 14 11.5t12 5.5q2 1 3.5 1h2.5l25 1q4 -1 8.5 -2.5t9.5 -3.5q4 -2 8.5 -5.5t8.5 -8.5l97 -98l7 -8l3 -8q0 -7 -3.5 -9t-13.5 -2l-80 1q-15 -1 -23 2.5t-13 11.5l-23 39v0z" />
    <glyph glyph-name="idieresis" unicode="&#xef;" horiz-adv-x="398" 
d="M308 0h-218h-13q-19 0 -28 6.5t-9 19.5q0 9 5 15.5t15 9.5q4 1 7.5 2.5t6.5 2.5q11 5 13.5 11t2.5 21v490q0 14 -2.5 20t-13.5 11q-3 1 -6.5 2.5t-7.5 2.5q-10 3 -15 9.5t-5 15.5q0 14 9.5 20.5t27.5 6.5l13 1h218h13q19 -2 28 -8t9 -20q0 -9 -5 -15.5t-15 -9.5
q-4 -1 -7.5 -2.5t-6.5 -2.5q-11 -5 -13.5 -11t-2.5 -21v-488q0 -16 2.5 -22t13.5 -11q3 -1 6.5 -2.5t7.5 -2.5q10 -3 15 -9.5t5 -15.5q0 -13 -9.5 -19.5t-27.5 -6.5h-13v0zM106 850q30 -1 51.5 -21.5t21.5 -50.5q0 -29 -21.5 -50t-51.5 -21t-51.5 21t-21.5 50
q0 30 21.5 50.5t51.5 20.5v1zM292 850q31 -1 52.5 -21.5t21.5 -50.5q0 -29 -21.5 -50t-52.5 -21q-30 0 -51.5 21t-21.5 50q0 30 21.5 50.5t51.5 20.5v1z" />
    <glyph glyph-name="ntilde" unicode="&#xf1;" horiz-adv-x="671" 
d="M112 496l51 -87v-262q0 -35 11.5 -57t36.5 -36l14 -7q7 -5 10 -10.5t3 -12.5q0 -13 -9.5 -18.5t-32.5 -5.5h-112q-22 0 -33 6t-11 19q0 4 1 7t3 5q3 3 8 6.5t13 8.5q24 14 35.5 37t11.5 57v350v0zM316 667l260 -451v-216h-133l-331 571q-6 9 -10.5 15.5t-8.5 10.5t-8 6
t-9 4l-18 8q-7 1 -11.5 7.5t-4.5 14.5q0 9 5.5 16.5t12.5 9.5q5 2 15 2.5t27 0.5l214 1v0zM576 294l-51 87v135q0 40 -12 62t-42 37q-1 1 -2.5 1.5t-2.5 1.5q-7 4 -10 9t-3 14q0 13 8.5 19t27.5 6l122 1q21 -1 30.5 -7.5t9.5 -20.5q0 -5 -1 -8.5t-4 -7.5q-3 -3 -8.5 -6
t-13.5 -7q-24 -13 -36 -36t-12 -59v-221v0zM277 851q2 -1 4 -1h5q14 -1 30 -7t41 -20q21 -11 40 -17t32 -6q10 0 16.5 6.5t10.5 21.5q3 11 6.5 15t9.5 4q12 0 17 -5.5t5 -19.5q0 -8 -1.5 -17t-4.5 -19t-7 -19t-9 -17q-13 -22 -33 -33t-44 -11h-5.5h-4.5q-13 2 -27 6.5
t-35 14.5l-33 17q-17 7 -27.5 10.5t-18.5 3.5q-10 0 -17 -6.5t-12 -20.5q-2 -5 -3.5 -8.5t-3.5 -6.5t-4 -4t-5 -1q-10 0 -16 6.5t-6 18.5q0 8 2 17.5t5 18.5q4 12 9.5 22.5t11.5 19.5q14 18 32 27t40 9v1z" />
    <glyph glyph-name="oacute" unicode="&#xf3;" horiz-adv-x="634" 
d="M297 627q-25 -9 -35 -24.5t-10 -44.5v-436q0 -41 10 -58t35 -24v-53q-127 10 -202 103.5t-75 241.5q0 149 76.5 245t200.5 102v-52v0zM337 627v53q125 -7 201 -103t76 -245q0 -148 -74.5 -241.5t-202.5 -103.5v54q25 5 35 24t10 56v438q0 28 -10 43.5t-35 23.5v1z
M461 825l-134 -104l-9 -7q-3 -3 -5 -4.5t-4 -2.5q-2 0 -3.5 -0.5t-3.5 -0.5l-35 1q-6 -1 -10 1t-4 6l2 7l73 113q3 3 5 6t4 5q4 4 9.5 5t14.5 1l97 1q7 -1 11.5 -4t4.5 -8v-2t-1 -2q-1 -2 -4 -5t-8 -7v1z" />
    <glyph glyph-name="ograve" unicode="&#xf2;" horiz-adv-x="634" 
d="M297 627q-25 -9 -35 -24.5t-10 -44.5v-436q0 -41 10 -58t35 -24v-53q-127 10 -202 103.5t-75 241.5q0 149 76.5 245t200.5 102v-52v0zM337 627v53q125 -7 201 -103t76 -245q0 -148 -74.5 -241.5t-202.5 -103.5v54q25 5 35 24t10 56v438q0 28 -10 43.5t-35 23.5v1z
M175 852h98q10 -1 15 -2t9 -5q2 -2 4 -5t5 -7l73 -112l2 -6q0 -5 -4 -7t-10 -2l-36 1q-1 -1 -2 -1t-3 1q-2 0 -4 2t-6 4l-9 8l-135 104q-6 4 -8.5 7t-3.5 5v1.5v0.5q0 5 4.5 8.5t10.5 3.5v1z" />
    <glyph glyph-name="ocircumflex" unicode="&#xf4;" horiz-adv-x="634" 
d="M297 627q-25 -9 -35 -24.5t-10 -44.5v-436q0 -41 10 -58t35 -24v-53q-127 10 -202 103.5t-75 241.5q0 149 76.5 245t200.5 102v-52v0zM337 627v53q125 -7 201 -103t76 -245q0 -148 -74.5 -241.5t-202.5 -103.5v54q25 5 35 24t10 56v438q0 28 -10 43.5t-35 23.5v1z
M312 760l-24 -38l-5 -9q0 -1 -0.5 -1.5l-0.5 -0.5q-4 -3 -8.5 -4t-15.5 -1l-69 1q-12 -1 -17.5 1.5t-5.5 8.5v2t1 3t2.5 4.5t4.5 5.5l95 100q8 7 14 11.5t12 5.5q2 1 3.5 1h2.5l25 1q4 -1 8.5 -2.5t9.5 -3.5q4 -2 8.5 -5.5t8.5 -8.5l97 -98l7 -8l3 -8q0 -7 -3.5 -9t-13.5 -2
l-80 1q-15 -1 -23 2.5t-13 11.5l-23 39v0z" />
    <glyph glyph-name="odieresis" unicode="&#xf6;" horiz-adv-x="634" 
d="M297 627q-25 -9 -35 -24.5t-10 -44.5v-436q0 -41 10 -58t35 -24v-53q-127 10 -202 103.5t-75 241.5q0 149 76.5 245t200.5 102v-52v0zM337 627v53q125 -7 201 -103t76 -245q0 -148 -74.5 -241.5t-202.5 -103.5v54q25 5 35 24t10 56v438q0 28 -10 43.5t-35 23.5v1z
M224 850q30 -1 51.5 -21.5t21.5 -50.5q0 -29 -21.5 -50t-51.5 -21t-51.5 21t-21.5 50q0 30 21.5 50.5t51.5 20.5v1zM410 850q31 -1 52.5 -21.5t21.5 -50.5q0 -29 -21.5 -50t-52.5 -21q-30 0 -51.5 21t-21.5 50q0 30 21.5 50.5t51.5 20.5v1z" />
    <glyph glyph-name="otilde" unicode="&#xf5;" horiz-adv-x="634" 
d="M297 627q-25 -9 -35 -24.5t-10 -44.5v-436q0 -41 10 -58t35 -24v-53q-127 10 -202 103.5t-75 241.5q0 149 76.5 245t200.5 102v-52v0zM337 627v53q125 -7 201 -103t76 -245q0 -148 -74.5 -241.5t-202.5 -103.5v54q25 5 35 24t10 56v438q0 28 -10 43.5t-35 23.5v1z
M259 851q2 -1 4 -1h5q14 -1 30 -7t41 -20q21 -11 40 -17t32 -6q10 0 16.5 6.5t10.5 21.5q3 11 6.5 15t9.5 4q12 0 17 -5.5t5 -19.5q0 -8 -1.5 -17t-4.5 -19t-7 -19t-9 -17q-13 -22 -33 -33t-44 -11h-5.5h-4.5q-13 2 -27 6.5t-35 14.5l-33 17q-17 7 -27.5 10.5t-18.5 3.5
q-10 0 -17 -6.5t-12 -20.5q-2 -5 -3.5 -8.5t-3.5 -6.5t-4 -4t-5 -1q-10 0 -16 6.5t-6 18.5q0 8 2 17.5t5 18.5q4 12 9.5 22.5t11.5 19.5q14 18 32 27t40 9v1z" />
    <glyph glyph-name="uacute" unicode="&#xfa;" horiz-adv-x="677" 
d="M359 51v-64h-15q-43 0 -73.5 4.5t-58.5 14.5q-7 2 -13 4.5t-12 5.5q-58 28 -81.5 67.5t-23.5 110.5v384q0 14 -2.5 20t-13.5 11q-3 1 -6.5 2.5t-7.5 2.5q-10 3 -15 9.5t-5 15.5q0 13 9.5 20t26.5 7l14 1h218h13q18 -1 27.5 -7.5t9.5 -20.5q0 -9 -5 -15.5t-15 -9.5
q-4 -1 -7.5 -2.5t-6.5 -2.5q-11 -5 -13.5 -11t-2.5 -21v-409q0 -38 2 -54t6 -28q1 0 1 -0.5v-0.5q7 -16 17 -23t33 -12v1zM398 -13v64q56 7 86.5 46.5t30.5 103.5v319q0 33 -12.5 56t-37.5 36q-6 3 -10 6t-7 5q-4 4 -5.5 8.5t-1.5 10.5q0 13 9 18.5t29 5.5l122 1
q13 -1 18.5 -1.5t9.5 -2.5q1 0 1.5 -0.5l0.5 -0.5q6 -4 9.5 -9t3.5 -11q0 -5 -1 -8.5t-3 -6.5q-3 -3 -9 -7t-16 -10q-22 -12 -34 -36t-12 -55v-317q0 -89 -45 -145.5t-126 -69.5v0zM483 825l-134 -104l-9 -7q-3 -3 -5 -4.5t-4 -2.5q-2 0 -3.5 -0.5t-3.5 -0.5l-35 1
q-6 -1 -10 1t-4 6l2 7l73 113q3 3 5 6t4 5q4 4 9.5 5t14.5 1l97 1q7 -1 11.5 -4t4.5 -8v-2t-1 -2q-1 -2 -4 -5t-8 -7v1z" />
    <glyph glyph-name="ugrave" unicode="&#xf9;" horiz-adv-x="677" 
d="M359 51v-64h-15q-43 0 -73.5 4.5t-58.5 14.5q-7 2 -13 4.5t-12 5.5q-58 28 -81.5 67.5t-23.5 110.5v384q0 14 -2.5 20t-13.5 11q-3 1 -6.5 2.5t-7.5 2.5q-10 3 -15 9.5t-5 15.5q0 13 9.5 20t26.5 7l14 1h218h13q18 -1 27.5 -7.5t9.5 -20.5q0 -9 -5 -15.5t-15 -9.5
q-4 -1 -7.5 -2.5t-6.5 -2.5q-11 -5 -13.5 -11t-2.5 -21v-409q0 -38 2 -54t6 -28q1 0 1 -0.5v-0.5q7 -16 17 -23t33 -12v1zM398 -13v64q56 7 86.5 46.5t30.5 103.5v319q0 33 -12.5 56t-37.5 36q-6 3 -10 6t-7 5q-4 4 -5.5 8.5t-1.5 10.5q0 13 9 18.5t29 5.5l122 1
q13 -1 18.5 -1.5t9.5 -2.5q1 0 1.5 -0.5l0.5 -0.5q6 -4 9.5 -9t3.5 -11q0 -5 -1 -8.5t-3 -6.5q-3 -3 -9 -7t-16 -10q-22 -12 -34 -36t-12 -55v-317q0 -89 -45 -145.5t-126 -69.5v0zM217 852h98q10 -1 15 -2t9 -5q2 -2 4 -5t5 -7l73 -112l2 -6q0 -5 -4 -7t-10 -2l-36 1
q-1 -1 -2 -1t-3 1q-2 0 -4 2t-6 4l-9 8l-135 104q-6 4 -8.5 7t-3.5 5v1.5v0.5q0 5 4.5 8.5t10.5 3.5v1z" />
    <glyph glyph-name="ucircumflex" unicode="&#xfb;" horiz-adv-x="677" 
d="M359 51v-64h-15q-43 0 -73.5 4.5t-58.5 14.5q-7 2 -13 4.5t-12 5.5q-58 28 -81.5 67.5t-23.5 110.5v384q0 14 -2.5 20t-13.5 11q-3 1 -6.5 2.5t-7.5 2.5q-10 3 -15 9.5t-5 15.5q0 13 9.5 20t26.5 7l14 1h218h13q18 -1 27.5 -7.5t9.5 -20.5q0 -9 -5 -15.5t-15 -9.5
q-4 -1 -7.5 -2.5t-6.5 -2.5q-11 -5 -13.5 -11t-2.5 -21v-409q0 -38 2 -54t6 -28q1 0 1 -0.5v-0.5q7 -16 17 -23t33 -12v1zM398 -13v64q56 7 86.5 46.5t30.5 103.5v319q0 33 -12.5 56t-37.5 36q-6 3 -10 6t-7 5q-4 4 -5.5 8.5t-1.5 10.5q0 13 9 18.5t29 5.5l122 1
q13 -1 18.5 -1.5t9.5 -2.5q1 0 1.5 -0.5l0.5 -0.5q6 -4 9.5 -9t3.5 -11q0 -5 -1 -8.5t-3 -6.5q-3 -3 -9 -7t-16 -10q-22 -12 -34 -36t-12 -55v-317q0 -89 -45 -145.5t-126 -69.5v0zM350 760l-24 -38l-5 -9q0 -1 -0.5 -1.5l-0.5 -0.5q-4 -3 -8.5 -4t-15.5 -1l-69 1
q-12 -1 -17.5 1.5t-5.5 8.5v2t1 3t2.5 4.5t4.5 5.5l95 100q8 7 14 11.5t12 5.5q2 1 3.5 1h2.5l25 1q4 -1 8.5 -2.5t9.5 -3.5q4 -2 8.5 -5.5t8.5 -8.5l97 -98l7 -8l3 -8q0 -7 -3.5 -9t-13.5 -2l-80 1q-15 -1 -23 2.5t-13 11.5l-23 39v0z" />
    <glyph glyph-name="udieresis" unicode="&#xfc;" horiz-adv-x="677" 
d="M359 51v-64h-15q-43 0 -73.5 4.5t-58.5 14.5q-7 2 -13 4.5t-12 5.5q-58 28 -81.5 67.5t-23.5 110.5v384q0 14 -2.5 20t-13.5 11q-3 1 -6.5 2.5t-7.5 2.5q-10 3 -15 9.5t-5 15.5q0 13 9.5 20t26.5 7l14 1h218h13q18 -1 27.5 -7.5t9.5 -20.5q0 -9 -5 -15.5t-15 -9.5
q-4 -1 -7.5 -2.5t-6.5 -2.5q-11 -5 -13.5 -11t-2.5 -21v-409q0 -38 2 -54t6 -28q1 0 1 -0.5v-0.5q7 -16 17 -23t33 -12v1zM398 -13v64q56 7 86.5 46.5t30.5 103.5v319q0 33 -12.5 56t-37.5 36q-6 3 -10 6t-7 5q-4 4 -5.5 8.5t-1.5 10.5q0 13 9 18.5t29 5.5l122 1
q13 -1 18.5 -1.5t9.5 -2.5q1 0 1.5 -0.5l0.5 -0.5q6 -4 9.5 -9t3.5 -11q0 -5 -1 -8.5t-3 -6.5q-3 -3 -9 -7t-16 -10q-22 -12 -34 -36t-12 -55v-317q0 -89 -45 -145.5t-126 -69.5v0zM246 850q30 -1 51.5 -21.5t21.5 -50.5q0 -29 -21.5 -50t-51.5 -21t-51.5 21t-21.5 50
q0 30 21.5 50.5t51.5 20.5v1zM432 850q31 -1 52.5 -21.5t21.5 -50.5q0 -29 -21.5 -50t-52.5 -21q-30 0 -51.5 21t-21.5 50q0 30 21.5 50.5t51.5 20.5v1z" />
    <glyph glyph-name="dagger" unicode="&#x2020;" horiz-adv-x="574" 
d="M357 569v-633q0 -12 3 -18t14 -11q2 0 4 -1l4 -2q10 -4 14 -9.5t4 -13.5q0 -14 -9 -19.5t-34 -5.5h-153q-17 0 -26 6.5t-9 18.5q0 8 5 14.5t14 8.5l14 5q6 2 9.5 9t3.5 18v646q0 13 -2 19t-11 11q-3 1 -5.5 2.5t-6.5 2.5q-10 3 -15 9.5t-5 14.5q0 14 10 19.5t35 5.5
l134 1q29 -1 40.5 -7t11.5 -21q0 -7 -4 -12.5t-11 -9.5l-17 -7q-7 -4 -9.5 -12t-2.5 -30v1zM184 353h-53q-13 -1 -19 -2.5t-10 -8.5q-2 -2 -3 -4.5t-3 -5.5q-4 -8 -10.5 -12t-14.5 -4q-13 0 -19 8t-6 28v113q0 22 6.5 31.5t20.5 9.5q8 0 13 -3.5t9 -8.5l8 -13q3 -7 11 -8.5
t30 -1.5l40 1v-119v0zM390 472h40q22 -1 29.5 0.5t11.5 7.5l8 15q4 4 9.5 7.5t12.5 3.5q14 0 20.5 -9.5t6.5 -32.5v-111q0 -21 -5.5 -29t-19.5 -8q-8 0 -14.5 4t-10.5 12q-2 3 -3 5.5t-3 4.5q-4 7 -10 8.5t-19 1.5l-53 1v119v0z" />
    <glyph glyph-name="cent" unicode="&#xa2;" horiz-adv-x="574" 
d="M325 650v-77q37 -3 62 -9.5t47 -19.5q1 -1 2 -1.5t2 -1.5q29 -19 43 -41.5t14 -50.5q0 -37 -23 -62t-58 -25t-60 25t-25 59q0 4 0.5 8t1.5 8q1 5 3.5 10l5.5 11q4 8 5.5 11.5t1.5 6.5q0 8 -8.5 13t-23.5 5q-29 0 -39.5 -17t-10.5 -65v-192q0 -44 14 -63.5t42 -19.5h5.5
h4.5q28 3 54 19t47 42q7 9 12 14t9 7q3 1 5.5 1.5t5.5 0.5q11 0 18.5 -7t7.5 -18q0 -17 -14 -37t-41 -42q-2 -1 -3.5 -2.5t-3.5 -2.5q-23 -17 -47.5 -27t-55.5 -14v-96h-45v94q-26 3 -46 9.5t-40 17.5l-10 6t-10 7q-48 34 -71.5 81t-23.5 108q0 100 55 168t146 79v80h45v0z
" />
    <glyph glyph-name="sterling" unicode="&#xa3;" horiz-adv-x="574" 
d="M207 35l-12 -6l-26 -19q-11 -9 -25 -13t-28 -4q-32 0 -50.5 18.5t-18.5 52.5q0 54 44.5 92t107.5 38q12 0 27 -1.5t30 -3.5q5 -1 9.5 -1.5t8.5 -1.5q13 -2 30.5 -5.5l37.5 -7.5q32 -7 51 -9.5t34 -2.5q20 0 30.5 5.5t14.5 16.5l10 27q2 4 8 7.5t13 3.5q13 0 18.5 -9.5
t5.5 -30.5q0 -34 -8.5 -64.5t-25.5 -59.5q-20 -33 -55 -51t-78 -18q-10 0 -21.5 1t-22.5 4q-21 4 -40.5 10t-34.5 15q-13 8 -22 12t-12 4v1zM309 678v-58q-22 -11 -32.5 -30.5t-10.5 -52.5q0 -15 2 -30.5t5 -31.5q2 -10 5 -19.5t6 -18.5l15 -43q1 -5 2 -9l2 -8
q3 -11 4 -21.5t2 -24.5l110 1v-56h-120q-3 -9 -5 -14.5t-4 -11.5q-1 0 -1 -1t-1 -2q-2 -6 -5 -12.5t-7 -15.5l-66 3l4 31l-1 23h-110v56h90q-2 1 -4 3l-4 4q0 1 -1 1.5l-1 0.5q-4 4 -9 7.5t-14 10.5q-44 32 -64.5 66t-20.5 73q0 83 57 131t154 48l23 1v0zM337 677
q43 -6 70 -17t50 -32q22 -19 35.5 -44t15.5 -51v-4.5v-4.5q0 -41 -30.5 -71t-72.5 -30q-37 0 -64 26t-27 61q0 10 2 19.5t7 18.5t12.5 18t17.5 19q5 5 7.5 8.5t2.5 5.5q0 6 -6 10t-20 7v61v0z" />
    <glyph glyph-name="section" unicode="&#xa7;" horiz-adv-x="500" 
d="M91 388l52 -36q-3 -9 -4 -13.5t-1 -8.5v-3.5t1 -2.5q3 -12 27.5 -28.5t104.5 -60.5q49 -28 75.5 -44.5t43.5 -30.5l4 -4l4 -4q25 -23 39 -56.5t14 -68.5q0 -74 -50 -118.5t-135 -44.5h-6.5h-6.5q-19 1 -38.5 4.5t-42.5 9.5l-29 5l-17 -3l-14 -5l-13 -2q-11 0 -15.5 8
t-4.5 27v92q0 19 10 31.5t26 12.5q12 0 19.5 -7t14.5 -25q17 -45 39.5 -64t59.5 -19q29 0 46.5 13t17.5 35q0 13 -6.5 22t-22.5 18q-2 1 -4.5 2t-4.5 2l-69 34q-38 18 -67 34t-47 29q-28 22 -45.5 58t-17.5 75q0 17 2.5 31.5t8.5 29.5q7 17 20 35.5t32 39.5v1zM419 179
l-54 35q3 5 4 9t1 7t-0.5 6.5t-2.5 6.5q-5 10 -20.5 21.5t-47.5 28.5q-9 5 -18.5 10.5t-19.5 10.5q-15 9 -29 16.5t-24 13.5q-32 17 -51.5 30t-32.5 24q-4 3 -7 6l-6 6q-23 23 -34 49t-11 59q0 69 49.5 112.5t128.5 43.5q11 0 22.5 -1t21.5 -3l43 -8l19 -2l29 3l17 3
q11 -1 15 -8t4 -24v-95q0 -20 -8 -29.5t-22 -9.5q-11 0 -18.5 5.5t-12.5 17.5l-14 34q-13 28 -31 41t-46 13q-23 0 -37.5 -11t-14.5 -28q0 -11 5.5 -19.5t17.5 -16.5q4 -2 8 -4.5t9 -4.5q53 -24 90.5 -44.5t58.5 -35.5q32 -23 51.5 -60.5t21.5 -78.5v-2.5v-3.5q0 -19 -4 -36
t-12 -34q-6 -13 -15.5 -26.5t-22.5 -27.5v1z" />
    <glyph glyph-name="paragraph" unicode="&#xb6;" horiz-adv-x="873" 
d="M494 -144h-170h-15q-21 0 -31 7t-10 21q0 10 6 16.5t16 8.5l18 5q8 2 12.5 11t4.5 24v718h169v-53q-16 -5 -20.5 -12.5t-4.5 -27.5v-625q0 -21 4.5 -28.5t20.5 -11.5v-53v0zM531 -144v53q14 4 19 12t5 28v626q0 19 -5 26.5t-19 11.5v54h169v-718q0 -15 4.5 -24t11.5 -11
l18 -5q11 -2 17 -9t6 -17q0 -14 -10.5 -20.5t-31.5 -6.5h-184v0zM288 614q-30 -5 -42.5 -21t-12.5 -51v-156q0 -38 12 -54.5t43 -24.5v-51h-8q-27 -1 -51 0.5t-44 5.5q-78 15 -121.5 68t-43.5 132q0 77 42 129.5t116 66.5q22 5 49 6.5t61 1.5v-52v0zM853 667v-183
q0 -14 -7 -22.5t-19 -8.5q-11 0 -18.5 7.5t-9.5 20.5l-4 29q-7 37 -21 63t-37 39v55h116v0z" />
    <glyph glyph-name="germandbls" unicode="&#xdf;" 
 />
    <glyph glyph-name="registered" unicode="&#xae;" horiz-adv-x="729" 
d="M365 678q143 -1 243.5 -102t100.5 -244q0 -142 -100.5 -243t-243.5 -101q-142 0 -243.5 101t-101.5 243q0 143 101 244t244 101v1zM365 622q-118 -1 -201.5 -85.5t-83.5 -204.5q0 -119 83.5 -203.5t201.5 -84.5t201 84.5t83 203.5t-83 204t-201 85v1zM368 498v31h8
q42 -1 63 -4t38 -10q2 -1 4.5 -2.5t4.5 -2.5q24 -13 36.5 -33t12.5 -46q0 -22 -9 -40.5t-25 -29.5q-1 -1 -2 -1.5t-2 -1.5q-5 -3 -10.5 -6t-12.5 -6t-16 -6t-21 -6q6 -1 11.5 -2t9.5 -1q11 -2 19 -4.5t15 -5.5l4 -2l4 -2q15 -9 23.5 -22t8.5 -28v-57q0 -5 1.5 -7t5.5 -2h1.5
t1.5 1q1 0 2 1.5t3 3.5l4 4t4 3t4 1.5t4 0.5h1.5h0.5q4 -1 7.5 -4.5t4.5 -7.5q1 -1 1 -2v-2q0 -5 -3 -11t-8 -12q-5 -7 -12 -13t-15 -11q-10 -7 -23 -10t-30 -3q-40 0 -62.5 21.5t-22.5 58.5v48q0 23 -8 34.5t-26 13.5v30q19 2 26.5 10.5t7.5 27.5v74q0 16 -7 25t-27 14v1z
M345 529v-327q0 -11 2.5 -15t12.5 -7q2 0 3.5 -0.5t3.5 -0.5q8 -1 11.5 -5.5t3.5 -9.5q0 -8 -6.5 -12t-20.5 -4l-10 1h-135h-8q-11 -1 -17 3t-6 11q0 5 3 9t9 6q1 0 2 0.5t2 0.5q10 3 12.5 6.5t2.5 13.5v279q0 9 -2.5 12.5t-12.5 6.5q-1 0 -2 0.5t-2 0.5q-6 2 -9 6t-3 9
q0 8 6 11.5t17 3.5l8 1h135v0z" />
    <glyph glyph-name="copyright" unicode="&#xa9;" horiz-adv-x="729" 
d="M365 678q143 -1 243.5 -102t100.5 -244q0 -142 -100.5 -243t-243.5 -101q-142 0 -243.5 101t-101.5 243q0 143 101 244t244 101v1zM365 622q-118 -1 -201.5 -85.5t-83.5 -204.5q0 -119 83.5 -203.5t201.5 -84.5t201 84.5t83 203.5t-83 204t-201 85v1zM373 538v-35
q-18 -4 -26.5 -16t-8.5 -35v-235v-12q1 -18 10 -27.5t25 -11.5v-34q-85 1 -134 53t-49 142q0 41 10.5 75.5t30.5 61.5q17 22 41.5 39.5t50.5 25.5q10 4 21 6t21 2l8 1v0zM399 132v35q32 1 57 20.5t35 47.5q4 10 8 13.5t11 3.5t12 -5t5 -13t-4.5 -18.5t-12.5 -21.5
q-5 -8 -12.5 -16t-15.5 -15q-4 -3 -7.5 -5.5t-6.5 -4.5q-16 -11 -32.5 -16t-36.5 -6v1zM399 503v34q11 -2 19.5 -4t15.5 -5l23 -6q8 -4 13 -5.5t8 -1.5h1.5h1.5q3 1 6 3.5t4 4.5l4 8q2 2 6 4t8 2q8 0 13 -5t5 -14v-117q0 -11 -5.5 -17t-13.5 -6q-7 0 -11.5 4.5t-7.5 14.5
q-13 47 -36 74t-54 31v1z" />
    <glyph glyph-name="trademark" unicode="&#x2122;" horiz-adv-x="895" 
d="M264 667v-344q0 -11 3 -15.5t14 -7.5q1 -1 3 -1t4 -1q8 -1 11.5 -5.5t3.5 -9.5q0 -9 -7 -13t-21 -4l-11 1h-142h-11q-14 -1 -21 3t-7 13q0 5 4 9.5t11 5.5q3 1 5 1.5t4 0.5q10 3 12.5 7t2.5 15v345h142v0zM579 667l62 -164l28 89v-98l-73 -227h-17l-123 337l-2.5 5
t-2.5 6q-4 8 -9 11.5t-14 5.5q-10 2 -15.5 6.5t-5.5 11.5q0 8 6.5 12t16.5 4l149 1v0zM456 532l33 -88v-89q0 -20 5.5 -32t18.5 -20l12 -6q2 -2 4 -3.5t3 -2.5q3 -2 4 -4.5t1 -5.5q0 -7 -5.5 -11t-18.5 -4l-79 1q-12 -1 -18 3t-6 11q0 3 1.5 5.5t4.5 4.5q1 1 2.5 1.5
t2.5 1.5q17 8 26 23t9 37v178v0zM695 667h142h8q12 -1 18 -5t6 -12q0 -5 -3 -9t-10 -6q-2 -1 -3.5 -1.5t-3.5 -0.5q-8 -3 -10 -7t-2 -13v-292q0 -11 2 -15t11 -7q1 0 2.5 -0.5t3.5 -1.5q7 -1 10 -5t3 -10q0 -8 -6 -12t-18 -4l-8 1h-142h-11q-14 -1 -21 3t-7 13q0 5 4 9.5
t11 5.5q3 1 5 1.5t4 0.5q10 3 12.5 7t2.5 15v345v0zM13 667h83v-36q-16 -9 -26 -26t-15 -43l-3 -17q-1 -9 -6.5 -14t-13.5 -5t-13.5 5.5t-5.5 13.5v122v0zM373 667v-121q0 -9 -5.5 -14.5t-13.5 -5.5q-7 0 -12.5 5t-7.5 13l-3 19q-4 25 -14.5 42t-26.5 25v37h83v0z" />
    <glyph glyph-name="acute" unicode="&#xb4;" horiz-adv-x="500" 
d="M394 824l-134 -104l-9 -7q-3 -3 -5 -4.5t-4 -2.5q-2 0 -3.5 -0.5t-3.5 -0.5l-35 1q-6 -1 -10 1t-4 6l2 7l73 113q3 3 5 6t4 5q4 4 9.5 5t14.5 1l97 1q7 -1 11.5 -4t4.5 -8v-2t-1 -2q-1 -2 -4 -5t-8 -7v1z" />
    <glyph glyph-name="dieresis" unicode="&#xa8;" horiz-adv-x="500" 
d="M157 850q30 -1 51.5 -21.5t21.5 -50.5q0 -29 -21.5 -50t-51.5 -21t-51.5 21t-21.5 50q0 30 21.5 50.5t51.5 20.5v1zM343 850q31 -1 52.5 -21.5t21.5 -50.5q0 -29 -21.5 -50t-52.5 -21q-30 0 -51.5 21t-21.5 50q0 30 21.5 50.5t51.5 20.5v1z" />
    <glyph glyph-name="AE" unicode="&#xc6;" horiz-adv-x="880" 
d="M350 560v-91l-215 -350q-7 -11 -9.5 -18.5t-2.5 -14.5q0 -11 7 -19t23 -15q7 -3 12 -5t9 -4q6 -4 8 -8.5t2 -11.5q0 -11 -7 -17t-20 -6h-144q-11 0 -18 6.5t-7 16.5t5 16t15 10q6 2 11 4t9 4q7 4 11.5 7.5t9.5 9.5q3 3 6 7.5t6 10.5l289 468v0zM601 667v-667h-218h-13
q-18 0 -27.5 6.5t-9.5 19.5q0 9 5 15.5t15 9.5q5 1 8.5 2.5t6.5 2.5q10 5 12.5 11t2.5 21v77h-184l32 58h152v355q0 14 -2.5 20t-12.5 11q-3 1 -6.5 2.5t-8.5 2.5q-10 3 -15 9.5t-5 15.5q0 14 9.5 20.5t27.5 6.5l13 1h218v0zM641 0v53q59 7 97 39t57 88q1 2 1.5 4t1.5 3
q4 12 9 16t14 4q15 0 20.5 -8t5.5 -31v-168h-206v0zM641 311v57q29 13 42.5 28.5t19.5 42.5q5 19 10.5 26t18.5 7q14 0 19 -8.5t5 -32.5v-185q0 -24 -5 -32.5t-19 -8.5q-11 0 -17 6.5t-11 22.5q-8 34 -23 52t-40 24v1zM641 667h199v-174q0 -15 -6.5 -22.5t-20.5 -7.5
q-8 0 -12.5 3.5t-8.5 12.5q0 1 -0.5 2.5t-1.5 3.5q-19 58 -55 87.5t-94 35.5v59v0z" />
    <glyph glyph-name="Oslash" unicode="&#xd8;" horiz-adv-x="634" 
d="M297 277l-45 -61v-94q0 -41 10 -58t35 -24v-53q-52 4 -95.5 22.5t-80.5 53.5l-62 -76l-32 30l64 79q-34 42 -52.5 103.5t-18.5 132.5q0 149 76.5 245t200.5 102v-52q-25 -9 -35 -24.5t-10 -44.5v-270l45 61v-72v0zM538 577l2 -2q37 -48 55.5 -108.5t18.5 -134.5
q0 -148 -74.5 -241.5t-202.5 -103.5v54q25 5 35 24t10 56v271l-45 -60v71l45 60v96q0 28 -10 43.5t-35 23.5v54q50 -3 93 -21t78 -51l59 72l32 -27l-61 -76v0z" />
    <glyph glyph-name="plusminus" unicode="&#xb1;" horiz-adv-x="574" 
d="M536 41v-68q0 -11 -4 -15.5t-16 -4.5h-459q-11 0 -15.5 4.5t-4.5 15.5v68q0 10 4.5 14.5t15.5 4.5l459 1q12 -1 16 -5.5t4 -15.5v1zM343 282v-156q0 -13 -4.5 -17t-15.5 -4l-72 1q-11 -1 -15.5 3t-4.5 16v157h-174q-11 -1 -15.5 3.5t-4.5 15.5v64q0 10 4.5 14.5t15.5 4.5
l174 1v177q0 10 4.5 14.5t15.5 4.5l72 1q11 -1 15.5 -5.5t4.5 -15.5v-176h173q12 -1 16 -5.5t4 -15.5v-62q0 -12 -4 -16.5t-16 -4.5l-173 1v0z" />
    <glyph glyph-name="yen" unicode="&#xa5;" horiz-adv-x="574" 
d="M393 258v-165q0 -16 4 -25t12 -11l17 -4q11 -3 16 -10t5 -17q0 -14 -8.5 -20t-30.5 -6h-15h-198h-14q-20 0 -29.5 6.5t-9.5 20.5q0 10 5.5 16.5t15.5 8.5l17 6q8 1 12 10t4 24v166h-126v48h111l-41 99h-93v48h75l-46 114q-3 7 -6 12.5t-5 9.5q-5 8 -10 12t-13 7
q-1 1 -2.5 1.5t-3.5 0.5q-11 6 -15.5 12t-4.5 17q0 14 8.5 19.5t29.5 6.5l12 2h217q18 -1 26.5 -7.5t8.5 -20.5q0 -7 -3 -12.5t-10 -10.5l-13 -8q-4 -3 -5.5 -7.5t-1.5 -9.5q0 -2 0.5 -5.5t0.5 -6.5q1 -3 1.5 -6.5t1.5 -5.5l104 -261h118v-48h-118v0zM453 453h68v-48h-90
l-25 -55l-27 66l52 115q2 4 3.5 8.5t2.5 9.5q1 4 1.5 9t0.5 9q0 16 -8 26.5t-24 17.5q-4 1 -7 2.5l-5 2.5q-10 4 -13.5 9.5t-3.5 13.5q0 14 10 20.5t31 6.5l127 1q13 -1 20.5 -8t7.5 -19q0 -7 -3 -12.5t-11 -10.5q-1 -1 -3 -2l-4 -2q-4 -2 -7.5 -4t-6.5 -3q-8 -5 -14 -10.5
t-11 -13.5q-3 -5 -6.5 -11.5t-7.5 -15.5l-12 -24l-35 -78v0z" />
    <glyph glyph-name="mu" unicode="&#xb5;" horiz-adv-x="558" 
d="M489 457v-322q0 -52 8 -68.5t32 -16.5h1.5h0.5q5 0 10.5 0.5t15.5 2.5v-19l-138 -46l-6 -1q-3 0 -5.5 0.5t-5.5 1.5q-6 2 -12.5 6t-11.5 8l-0.5 0.5t-0.5 1.5q-3 3 -5 6.5t-4 7.5q-3 6 -6.5 14t-7.5 20q-10 -12 -17 -19.5t-13 -13.5q-1 -1 -3 -2.5t-4 -3.5
q-17 -14 -38.5 -22t-44.5 -8q-40 0 -63.5 18t-43.5 64l-1 -14q0 -8 0.5 -15t1.5 -13q1 -11 3.5 -22t7.5 -25q2 -7 5 -16t6 -19q1 -1 1.5 -2.5t0.5 -3.5q3 -6 5 -12.5t4 -11.5q6 -16 9 -30t3 -24q0 -23 -19 -39.5t-46 -16.5q-34 0 -53.5 16t-19.5 44q0 11 2.5 29t6.5 38
q8 37 14.5 82t11.5 92q3 34 4.5 67.5t1.5 63.5v223h145v-288q0 -62 12.5 -91.5t37.5 -29.5q8 0 15.5 1.5t14.5 5.5q10 6 20.5 16t23.5 26v360h144v0z" />
    <glyph glyph-name="ordfeminine" unicode="&#xaa;" horiz-adv-x="383" 
d="M342 329v-30q0 -6 -4.5 -8t-17.5 -2l-238 1q-13 -1 -17.5 1t-4.5 7v31q0 4 4.5 6t17.5 2l238 1q13 -1 17.5 -3t4.5 -7v1zM149 509v-45q0 -20 6.5 -30t19.5 -10q8 -1 13.5 -4.5t5.5 -9.5q0 -7 -14 -11.5t-36 -4.5q-44 0 -70.5 23.5t-26.5 61.5q0 42 30.5 65.5t83.5 23.5
q13 0 17 -2.5t4 -10.5q0 -3 -1 -5.5t-4 -4.5q-1 -2 -3 -3t-5 -2q-10 -4 -15 -11.5t-5 -20.5v1zM312 587v-100q0 -20 4.5 -29.5t13.5 -9.5q2 0 4 0.5t4 2.5l3 3t4 5l3.5 3.5t3.5 2.5q1 1 2.5 1.5t3.5 0.5q5 0 8.5 -3.5t3.5 -8.5q0 -24 -25 -42.5t-58 -18.5q-40 0 -61 19
t-21 55v186q0 11 4 15t14 4q41 0 65 -23t24 -64v1zM99 580q-18 -1 -28.5 8.5t-10.5 25.5q0 26 27.5 42.5t68.5 16.5q14 0 19.5 -2.5t5.5 -7.5q0 -3 -2 -5.5t-5 -3.5l-12 -2q-8 -3 -14 -9t-8 -13v-1v-2v-3l1 -4q0 -21 -10.5 -31t-31.5 -10v1z" />
    <glyph glyph-name="ordmasculine" unicode="&#xba;" horiz-adv-x="383" 
d="M335 329v-30q0 -6 -4.5 -8t-17.5 -2l-238 1q-13 -1 -17.5 1t-4.5 7v31q0 4 4.5 6t17.5 2l238 1q13 -1 17.5 -3t4.5 -7v1zM150 606v-141v-19q1 -10 4 -15t11 -9q4 -2 6.5 -3.5t4.5 -3.5t2.5 -4t0.5 -5q0 -6 -3 -9t-9 -3q-10 0 -21.5 3t-23.5 8q-6 3 -12 6.5t-12 7.5
q-30 21 -44 48.5t-14 66.5q0 41 16 70t50 50q4 2 8 4.5t8 4.5q12 5 23.5 8t21.5 3q6 0 9 -2.5t3 -9.5q0 -3 -0.5 -5t-2.5 -4t-4.5 -3.5t-6.5 -3.5q-8 -4 -11.5 -9t-3.5 -14v-17v0zM232 465v141v18q-1 9 -4 13.5t-11 8.5q-4 2 -6.5 3.5t-4.5 3.5t-2.5 4t-0.5 5q0 6 3 9t9 3
q11 0 23 -3.5t25 -9.5l10 -6l10 -6q31 -21 45 -48.5t14 -66.5q0 -40 -16 -69.5t-51 -50.5l-10 -6t-11 -5q-10 -4 -20 -6.5t-19 -2.5q-7 0 -9.5 3t-2.5 9q0 3 0.5 5t2.5 4t4.5 3.5t6.5 3.5q8 4 11.5 9.5t3.5 13.5v20v0z" />
    <glyph glyph-name="ae" unicode="&#xe6;" horiz-adv-x="880" 
d="M350 560v-91l-215 -350q-7 -11 -9.5 -18.5t-2.5 -14.5q0 -11 7 -19t23 -15q7 -3 12 -5t9 -4q6 -4 8 -8.5t2 -11.5q0 -11 -7 -17t-20 -6h-144q-11 0 -18 6.5t-7 16.5t5 16t15 10q6 2 11 4t9 4q7 4 11.5 7.5t9.5 9.5q3 3 6 7.5t6 10.5l289 468v0zM601 667v-667h-218h-13
q-18 0 -27.5 6.5t-9.5 19.5q0 9 5 15.5t15 9.5q5 1 8.5 2.5t6.5 2.5q10 5 12.5 11t2.5 21v77h-184l32 58h152v355q0 14 -2.5 20t-12.5 11q-3 1 -6.5 2.5t-8.5 2.5q-10 3 -15 9.5t-5 15.5q0 14 9.5 20.5t27.5 6.5l13 1h218v0zM641 0v53q59 7 97 39t57 88q1 2 1.5 4t1.5 3
q4 12 9 16t14 4q15 0 20.5 -8t5.5 -31v-168h-206v0zM641 311v57q29 13 42.5 28.5t19.5 42.5q5 19 10.5 26t18.5 7q14 0 19 -8.5t5 -32.5v-185q0 -24 -5 -32.5t-19 -8.5q-11 0 -17 6.5t-11 22.5q-8 34 -23 52t-40 24v1zM641 667h199v-174q0 -15 -6.5 -22.5t-20.5 -7.5
q-8 0 -12.5 3.5t-8.5 12.5q0 1 -0.5 2.5t-1.5 3.5q-19 58 -55 87.5t-94 35.5v59v0z" />
    <glyph glyph-name="oslash" unicode="&#xf8;" horiz-adv-x="634" 
d="M297 277l-45 -61v-94q0 -41 10 -58t35 -24v-53q-52 4 -95.5 22.5t-80.5 53.5l-62 -76l-32 30l64 79q-34 42 -52.5 103.5t-18.5 132.5q0 149 76.5 245t200.5 102v-52q-25 -9 -35 -24.5t-10 -44.5v-270l45 61v-72v0zM538 577l2 -2q37 -48 55.5 -108.5t18.5 -134.5
q0 -148 -74.5 -241.5t-202.5 -103.5v54q25 5 35 24t10 56v271l-45 -60v71l45 60v96q0 28 -10 43.5t-35 23.5v54q50 -3 93 -21t78 -51l59 72l32 -27l-61 -76v0z" />
    <glyph glyph-name="questiondown" unicode="&#xbf;" horiz-adv-x="337" 
d="M67 107v3.5v5.5q1 20 7 44t19 65q21 63 31 106.5t12 82.5q1 20 7.5 28t20.5 8q13 0 19.5 -7t7.5 -23q1 -8 1.5 -14t0.5 -11q1 -7 1.5 -12.5t1.5 -10.5q1 -6 2.5 -12.5t3.5 -16.5q6 -26 14.5 -53t18.5 -57q7 -19 12 -34t8 -25q2 -7 4 -13.5t3 -13.5q3 -12 4.5 -24t1.5 -22
q0 -49 -28.5 -81.5t-72.5 -32.5t-72 33.5t-28 85.5v1zM167 680q40 -1 68 -28.5t28 -66.5t-28 -66.5t-68 -27.5t-67.5 27.5t-27.5 66.5t28 66.5t67 27.5v1z" />
    <glyph glyph-name="exclamdown" unicode="&#xa1;" horiz-adv-x="540" 
d="M288 -13v54q14 1 19 5t5 13l-3 16l-4 11q-2 4 -3 10t-1 12q0 33 24.5 55.5t59.5 22.5q37 0 62.5 -24t25.5 -59q0 -49 -50.5 -82.5t-123.5 -33.5h-11v0zM246 44v-55q-79 10 -129.5 64.5t-50.5 130.5q0 83 58 141.5t152 69.5h2h2q21 3 26.5 8.5t5.5 24.5q1 16 6 22.5
t18 6.5t19.5 -7.5t6.5 -21.5v-170q0 -15 -5 -18.5t-26 -4.5q-52 -1 -84 -34t-32 -85q0 -25 7.5 -42.5t23.5 -30.5v1zM324 680q40 -1 68 -28.5t28 -66.5t-28 -66.5t-68 -27.5t-67.5 27.5t-27.5 66.5t28 66.5t67 27.5v1z" />
    <glyph glyph-name="logicalnot" unicode="&#xac;" horiz-adv-x="500" 
d="M295 0v192h-267v75h443v-267h-176v0z" />
    <glyph glyph-name="florin" unicode="&#x192;" horiz-adv-x="574" 
d="M98 -99l-8 -46q-81 5 -121 32t-40 75q0 35 21.5 56t57.5 21q32 0 52 -18t20 -46v-3.5v-2.5q-1 -6 -3.5 -13.5t-7.5 -21.5l-3 -13q0 -6 3.5 -9.5t11.5 -6.5q1 0 3 -0.5t4 -1.5l10 -2v0zM462 733l-53 -302h93l-9 -50h-93l-33 -187l-9 -58q-18 -105 -47 -160t-83 -84
q-7 -4 -14.5 -7.5t-14.5 -7.5q-17 -7 -35 -12.5t-41 -9.5l93 526h-81l9 50h81l18 102q11 63 27 95.5t49 58.5q29 23 62 33.5t81 11.5v1zM488 686l8 46q81 -6 121 -33t40 -75q0 -35 -21.5 -56.5t-57.5 -21.5q-32 0 -52 18.5t-20 46.5v3.5v2.5q1 6 3 13.5t7 21.5l3 14
q0 5 -5 9t-17 8l-9 3v0z" />
    <glyph glyph-name="guillemotleft" unicode="&#xab;" horiz-adv-x="541" 
d="M219 524l41 -34q3 -4 5.5 -6.5l4.5 -4.5q1 -2 2 -4.5t1 -5.5q0 -8 -7.5 -19t-25.5 -30q-19 -21 -34 -38t-24 -28q-5 -7 -7 -10.5t-2 -6.5q0 -1 1.5 -4t3.5 -6q0 -1 0.5 -1.5l1.5 -1.5l25 -31l32 -39q24 -30 30.5 -39.5t7.5 -15.5v-1.5v-1.5q0 -2 -0.5 -3.5t-0.5 -3.5
q-2 -3 -7 -7.5t-14 -10.5l-37 -23q-2 -2 -4.5 -3t-4.5 -2t-4.5 -1.5t-4.5 -0.5q-4 0 -9 4t-12 14l-92 133q-8 10 -12 16.5t-5 12.5q-1 3 -1 5.5v5.5q0 8 1.5 14.5t5.5 10.5l13 20l90 135l11 16l4 2t4 1q1 1 2 1h2h2t2 -1q4 0 7.5 -2.5t7.5 -5.5v1zM419 524l41 -34
q3 -4 5.5 -6.5l4.5 -4.5q1 -2 2 -4.5t1 -5.5q0 -8 -7.5 -19t-25.5 -30q-19 -21 -34 -38t-24 -28q-5 -7 -7 -10.5t-2 -6.5q0 -1 1.5 -4t3.5 -6q0 -1 0.5 -1.5l1.5 -1.5l25 -31l32 -39q24 -30 30.5 -39.5t7.5 -15.5v-1.5v-1.5q0 -2 -0.5 -3.5t-0.5 -3.5q-2 -3 -7 -7.5
t-14 -10.5l-37 -23q-2 -2 -4.5 -3t-4.5 -2t-4.5 -1.5t-4.5 -0.5q-4 0 -9 4t-12 14l-92 133q-8 10 -12 16.5t-5 12.5q-1 3 -1 5.5v5.5q0 8 1.5 14.5t5.5 10.5l13 20l90 135l11 16l4 2t4 1q1 1 2 1h2h2t2 -1q4 0 7.5 -2.5t7.5 -5.5v1z" />
    <glyph glyph-name="guillemotright" unicode="&#xbb;" horiz-adv-x="541" 
d="M164 512l90 -135l14 -19q3 -7 4.5 -13t1.5 -13v-5.5t-1 -5.5q-1 -6 -5 -12.5t-11 -17.5l-93 -131q-4 -7 -7.5 -11t-6.5 -6q-2 -1 -3.5 -1.5t-3.5 -0.5t-4.5 0.5t-5.5 1.5l-4 2l-4 2l-37 25q-9 5 -14 9.5t-7 7.5q0 2 -0.5 3.5t-0.5 3.5v1.5v1.5q1 6 8 15.5t30 38.5l32 40
l25 32q4 4 6 7.5t2 4.5q0 3 -2.5 6.5l-7.5 10.5q-9 11 -23.5 28t-34.5 38q-18 19 -25.5 30t-7.5 18q0 4 1.5 7.5t4.5 6.5q1 2 3 3.5t4 3.5l41 35q5 2 8 4.5t7 2.5q1 1 2 1h2q5 0 8 -1.5t4 -3.5l11 -15v0zM364 512l90 -135l14 -19q3 -7 4.5 -13t1.5 -13v-5.5t-1 -5.5
q-1 -6 -5 -12.5t-11 -17.5l-93 -131q-4 -7 -7.5 -11t-6.5 -6q-2 -1 -3.5 -1.5t-3.5 -0.5t-4.5 0.5t-5.5 1.5l-4 2l-4 2l-37 25q-9 5 -14 9.5t-7 7.5q0 2 -0.5 3.5t-0.5 3.5v1.5v1.5q1 6 8 15.5t30 38.5l32 40l25 32q4 4 6 7.5t2 4.5q0 3 -2.5 6.5l-7.5 10.5q-9 11 -23.5 28
t-34.5 38q-18 19 -25.5 30t-7.5 18q0 4 1.5 7.5t4.5 6.5q1 2 3 3.5t4 3.5l41 35q5 2 8 4.5t7 2.5q1 1 2 1h2q5 0 8 -1.5t4 -3.5l11 -15v0z" />
    <glyph glyph-name="ellipsis" unicode="&#x2026;" horiz-adv-x="974" 
d="M163 -13q-40 0 -68 27t-28 66q0 40 28 67.5t68 27.5t68 -27.5t28 -67.5q0 -39 -28 -66t-68 -27v0zM487 -13q-39 0 -67 27t-28 66q0 40 27.5 67.5t67.5 27.5t68 -27.5t28 -67.5q0 -39 -28 -66t-68 -27v0zM812 -13q-40 0 -68 27t-28 66q0 40 28 67.5t68 27.5t68 -27.5
t28 -67.5q0 -39 -28 -66t-68 -27v0z" />
    <glyph glyph-name="Agrave" unicode="&#xc0;" horiz-adv-x="619" 
d="M202 542l25 -101l-87 -315q-1 -4 -1.5 -7.5t-0.5 -6.5q-1 -3 -1 -6.5v-6.5q0 -14 7.5 -25.5t21.5 -17.5l16 -7q8 -5 12.5 -11.5t4.5 -14.5q0 -11 -9.5 -17t-26.5 -6h-124q-17 0 -28 7t-11 19q0 8 5 14t17 11q31 14 45.5 32t24.5 56l110 403v0zM236 667h197l135 -574
q1 -4 1.5 -6.5t1.5 -5.5q4 -14 9.5 -20.5t16.5 -10.5q1 -1 2.5 -1.5t2.5 -0.5q10 -5 13.5 -10.5t3.5 -14.5q0 -11 -9.5 -17t-28.5 -6h-244q-14 0 -23 6.5t-9 18.5q0 6 1.5 10t4.5 7q3 2 7 4.5t9 5.5q1 1 2 1.5t2 0.5q7 5 10 10.5t3 14.5l-1 14l-16 71h-136l13 60h110
l-90 395l12 48v0zM184 852h98q10 -1 15 -2t9 -5q2 -2 4 -5t5 -7l73 -112l2 -6q0 -5 -4 -7t-10 -2l-36 1q-1 -1 -2 -1t-3 1q-2 0 -4 2t-6 4l-9 8l-135 104q-6 4 -8.5 7t-3.5 5v1.5v0.5q0 5 4.5 8.5t10.5 3.5v1z" />
    <glyph glyph-name="Atilde" unicode="&#xc3;" horiz-adv-x="619" 
d="M202 542l25 -101l-87 -315q-1 -4 -1.5 -7.5t-0.5 -6.5q-1 -3 -1 -6.5v-6.5q0 -14 7.5 -25.5t21.5 -17.5l16 -7q8 -5 12.5 -11.5t4.5 -14.5q0 -11 -9.5 -17t-26.5 -6h-124q-17 0 -28 7t-11 19q0 8 5 14t17 11q31 14 45.5 32t24.5 56l110 403v0zM236 667h197l135 -574
q1 -4 1.5 -6.5t1.5 -5.5q4 -14 9.5 -20.5t16.5 -10.5q1 -1 2.5 -1.5t2.5 -0.5q10 -5 13.5 -10.5t3.5 -14.5q0 -11 -9.5 -17t-28.5 -6h-244q-14 0 -23 6.5t-9 18.5q0 6 1.5 10t4.5 7q3 2 7 4.5t9 5.5q1 1 2 1.5t2 0.5q7 5 10 10.5t3 14.5l-1 14l-16 71h-136l13 60h110
l-90 395l12 48v0zM268 851q2 -1 4 -1h5q14 -1 30 -7t41 -20q21 -11 40 -17t32 -6q10 0 16.5 6.5t10.5 21.5q3 11 6.5 15t9.5 4q12 0 17 -5.5t5 -19.5q0 -8 -1.5 -17t-4.5 -19t-7 -19t-9 -17q-13 -22 -33 -33t-44 -11h-5.5h-4.5q-13 2 -27 6.5t-35 14.5l-33 17
q-17 7 -27.5 10.5t-18.5 3.5q-10 0 -17 -6.5t-12 -20.5q-2 -5 -3.5 -8.5t-3.5 -6.5t-4 -4t-5 -1q-10 0 -16 6.5t-6 18.5q0 8 2 17.5t5 18.5q4 12 9.5 22.5t11.5 19.5q14 18 32 27t40 9v1z" />
    <glyph glyph-name="Otilde" unicode="&#xd5;" horiz-adv-x="634" 
d="M297 627q-25 -9 -35 -24.5t-10 -44.5v-436q0 -41 10 -58t35 -24v-53q-127 10 -202 103.5t-75 241.5q0 149 76.5 245t200.5 102v-52v0zM337 627v53q125 -7 201 -103t76 -245q0 -148 -74.5 -241.5t-202.5 -103.5v54q25 5 35 24t10 56v438q0 28 -10 43.5t-35 23.5v1z
M259 851q2 -1 4 -1h5q14 -1 30 -7t41 -20q21 -11 40 -17t32 -6q10 0 16.5 6.5t10.5 21.5q3 11 6.5 15t9.5 4q12 0 17 -5.5t5 -19.5q0 -8 -1.5 -17t-4.5 -19t-7 -19t-9 -17q-13 -22 -33 -33t-44 -11h-5.5h-4.5q-13 2 -27 6.5t-35 14.5l-33 17q-17 7 -27.5 10.5t-18.5 3.5
q-10 0 -17 -6.5t-12 -20.5q-2 -5 -3.5 -8.5t-3.5 -6.5t-4 -4t-5 -1q-10 0 -16 6.5t-6 18.5q0 8 2 17.5t5 18.5q4 12 9.5 22.5t11.5 19.5q14 18 32 27t40 9v1z" />
    <glyph glyph-name="OE" unicode="&#x152;" horiz-adv-x="879" 
d="M297 627q-25 -9 -35 -24.5t-10 -44.5v-436q0 -41 10 -58t35 -24v-53q-127 10 -202 103.5t-75 241.5q0 149 76.5 245t200.5 102v-52v0zM411 667h189v-667h-193q-9 -3 -16 -5t-14 -3q-9 -2 -18.5 -3t-21.5 -2v54q25 5 35 24t10 56v438q0 28 -10 43.5t-35 23.5v54
q15 -1 26 -2.5t21 -3.5q6 -1 13 -3t14 -5v1zM641 0v53q59 8 95.5 38.5t57.5 88.5q5 16 11 22t15 6q15 0 20.5 -8t5.5 -29v-171h-205v0zM641 312v56q29 13 42 29t19 43q5 19 11 26t18 7q14 0 19 -8.5t5 -33.5v-185q0 -23 -5 -32t-19 -9q-10 0 -16.5 7t-10.5 23
q-8 34 -23.5 52t-39.5 24v1zM641 667h198v-174q0 -16 -5.5 -23t-18.5 -7q-10 0 -15 4t-9 14q-1 1 -1.5 2.5t-0.5 2.5q-19 57 -54.5 87t-93.5 35v59v0z" />
    <glyph glyph-name="oe" unicode="&#x153;" horiz-adv-x="879" 
d="M297 627q-25 -9 -35 -24.5t-10 -44.5v-436q0 -41 10 -58t35 -24v-53q-127 10 -202 103.5t-75 241.5q0 149 76.5 245t200.5 102v-52v0zM411 667h189v-667h-193q-9 -3 -16 -5t-14 -3q-9 -2 -18.5 -3t-21.5 -2v54q25 5 35 24t10 56v438q0 28 -10 43.5t-35 23.5v54
q15 -1 26 -2.5t21 -3.5q6 -1 13 -3t14 -5v1zM641 0v53q59 8 95.5 38.5t57.5 88.5q5 16 11 22t15 6q15 0 20.5 -8t5.5 -29v-171h-205v0zM641 312v56q29 13 42 29t19 43q5 19 11 26t18 7q14 0 19 -8.5t5 -33.5v-185q0 -23 -5 -32t-19 -9q-10 0 -16.5 7t-10.5 23
q-8 34 -23.5 52t-39.5 24v1zM641 667h198v-174q0 -16 -5.5 -23t-18.5 -7q-10 0 -15 4t-9 14q-1 1 -1.5 2.5t-0.5 2.5q-19 57 -54.5 87t-93.5 35v59v0z" />
    <glyph glyph-name="emdash" unicode="&#x2014;" horiz-adv-x="749" 
d="M749 365v-68q0 -12 -4.5 -16.5t-15.5 -4.5l-709 1q-11 -1 -15.5 3.5t-4.5 15.5v69q0 10 4.5 14.5t15.5 4.5l709 1q11 -1 15.5 -5.5t4.5 -15.5v1z" />
    <glyph glyph-name="quotedblleft" unicode="&#x201c;" horiz-adv-x="567" 
d="M66 476q0 7 1 16t3 17q9 39 37 76.5t70 65.5q22 14 39 21t29 7q10 0 16 -6t6 -15q0 -7 -4.5 -13t-13.5 -11q-22 -11 -36.5 -21.5t-25.5 -20.5q-10 -10 -16.5 -20t-6.5 -15t3.5 -7t11.5 -4h6l7 -1q32 -5 51.5 -29t19.5 -59q0 -40 -27 -67t-66 -27q-43 0 -73.5 33t-30.5 79
v1zM299 476q0 7 1 16t3 17q9 39 37 76.5t70 65.5q22 14 39 21t29 7q10 0 16 -6t6 -15q0 -7 -4.5 -13t-13.5 -11q-22 -11 -36.5 -21.5t-25.5 -20.5q-10 -10 -16 -20t-6 -15t3 -7t11 -4h6l8 -1q32 -5 51.5 -29t19.5 -59q0 -40 -27 -67t-67 -27q-43 0 -73.5 33t-30.5 79v1z" />
    <glyph glyph-name="quotedblright" unicode="&#x201d;" horiz-adv-x="567" 
d="M268 569q0 -7 -0.5 -13t-1.5 -12q-7 -42 -35.5 -82.5t-73.5 -70.5q-22 -13 -39 -20.5t-29 -7.5q-10 0 -16 6t-6 16q0 8 4.5 13.5t13.5 10.5q15 8 26 14.5t20 13.5q5 4 9 7.5t7 6.5l2.5 2.5l2.5 2.5q8 9 13 16.5t5 12.5t-3.5 7.5t-11.5 3.5l-6 2l-7 1q-31 4 -51 28.5
t-20 58.5q0 39 27 66t66 27q43 0 73.5 -32.5t30.5 -78.5v1zM501 569q0 -7 -0.5 -13t-1.5 -12q-7 -42 -35.5 -82.5t-73.5 -70.5q-21 -13 -38 -20.5t-30 -7.5q-9 0 -15.5 6t-6.5 16q0 8 4.5 13.5t14.5 10.5q14 8 25.5 14.5t20.5 13.5q4 4 8 7.5t7 6.5l2.5 2.5l2.5 2.5
q8 9 13 16.5t5 12.5t-3 7.5t-11 3.5l-7 2l-7 1q-31 4 -51 28.5t-20 58.5q0 39 27 66t66 27q43 0 73.5 -32.5t30.5 -78.5v1z" />
    <glyph glyph-name="quoteleft" unicode="&#x2018;" horiz-adv-x="574" 
d="M287 238q37 -1 62.5 -26.5t25.5 -61.5q0 -35 -25.5 -60.5t-62.5 -25.5t-63 25.5t-26 60.5q0 36 26 61.5t63 25.5v1zM536 366v-64q0 -12 -4 -16.5t-16 -4.5l-459 1q-11 -1 -15.5 3.5t-4.5 15.5v65q0 10 4.5 14.5t15.5 4.5l459 1q12 -1 16 -5.5t4 -15.5v1zM287 603
q37 -1 62.5 -26t25.5 -61t-25.5 -61.5t-62.5 -25.5t-63 25.5t-26 61.5t26 61t63 25v1z" />
    <glyph glyph-name="quoteright" unicode="&#x2019;" horiz-adv-x="334" 
d="M268 569q0 -7 -0.5 -13t-1.5 -12q-7 -42 -35.5 -82.5t-73.5 -70.5q-22 -13 -39 -20.5t-29 -7.5q-10 0 -16 6t-6 16q0 8 4.5 13.5t13.5 10.5q15 8 26 14.5t20 13.5q5 4 9 7.5t7 6.5l2.5 2.5l2.5 2.5q8 9 13 16.5t5 12.5t-3.5 7.5t-11.5 3.5l-6 2l-7 1q-31 4 -51 28.5
t-20 58.5q0 39 27 66t66 27q43 0 73.5 -32.5t30.5 -78.5v1z" />
    <glyph glyph-name="divide" unicode="&#xf7;" horiz-adv-x="667" 
d="M334 693l259 -360l-259 -359l-260 359l260 360v0zM334 604l-197 -271l197 -270l197 270l-197 271v0z" />
    <glyph glyph-name="ydieresis" unicode="&#xff;" horiz-adv-x="597" 
d="M402 306v-213q0 -19 4.5 -26t21.5 -12q3 -1 5.5 -1.5t5.5 -1.5q11 -2 17 -8.5t6 -17.5q0 -14 -10 -20t-33 -6h-16h-220h-16q-22 0 -32.5 6.5t-10.5 20.5q0 10 6 16.5t17 8.5q4 1 7 1.5t5 1.5q17 5 21 12t4 25v166l-138 329q-4 10 -9 16t-13 11q-5 3 -9 5.5t-6 4.5
q-4 4 -5 7.5t-1 9.5q0 13 9 19t28 6l240 1q20 -1 29.5 -7t9.5 -20q0 -7 -3.5 -13t-10.5 -11l-14 -8q-4 -3 -6.5 -7.5t-2.5 -9.5q0 -2 0.5 -5.5t1.5 -6.5q0 -2 0.5 -3.5t0.5 -3.5q1 -1 1.5 -2.5t0.5 -2.5l115 -261v0zM420 352l-28 64l51 115q2 4 3.5 9.5t2.5 10.5t1.5 9
t0.5 8q0 15 -7.5 25.5t-24.5 17.5q-6 2 -10 4t-7 4q-7 4 -9 8t-2 11q0 16 10.5 22t36.5 6l121 1q17 -1 25.5 -8t8.5 -21q0 -7 -2 -11.5t-8 -8.5l-5 -2.5l-7 -3.5q-22 -10 -35.5 -23.5t-23.5 -33.5l-11 -24l-81 -179v0zM205 850q30 -1 51.5 -21.5t21.5 -50.5q0 -29 -21.5 -50
t-51.5 -21t-51.5 21t-21.5 50q0 30 21.5 50.5t51.5 20.5v1zM391 850q31 -1 52.5 -21.5t21.5 -50.5q0 -29 -21.5 -50t-52.5 -21q-30 0 -51.5 21t-21.5 50q0 30 21.5 50.5t51.5 20.5v1z" />
    <glyph glyph-name="Ydieresis" unicode="&#x178;" horiz-adv-x="597" 
d="M402 306v-213q0 -19 4.5 -26t21.5 -12q3 -1 5.5 -1.5t5.5 -1.5q11 -2 17 -8.5t6 -17.5q0 -14 -10 -20t-33 -6h-16h-220h-16q-22 0 -32.5 6.5t-10.5 20.5q0 10 6 16.5t17 8.5q4 1 7 1.5t5 1.5q17 5 21 12t4 25v166l-138 329q-4 10 -9 16t-13 11q-5 3 -9 5.5t-6 4.5
q-4 4 -5 7.5t-1 9.5q0 13 9 19t28 6l240 1q20 -1 29.5 -7t9.5 -20q0 -7 -3.5 -13t-10.5 -11l-14 -8q-4 -3 -6.5 -7.5t-2.5 -9.5q0 -2 0.5 -5.5t1.5 -6.5q0 -2 0.5 -3.5t0.5 -3.5q1 -1 1.5 -2.5t0.5 -2.5l115 -261v0zM420 352l-28 64l51 115q2 4 3.5 9.5t2.5 10.5t1.5 9
t0.5 8q0 15 -7.5 25.5t-24.5 17.5q-6 2 -10 4t-7 4q-7 4 -9 8t-2 11q0 16 10.5 22t36.5 6l121 1q17 -1 25.5 -8t8.5 -21q0 -7 -2 -11.5t-8 -8.5l-5 -2.5l-7 -3.5q-22 -10 -35.5 -23.5t-23.5 -33.5l-11 -24l-81 -179v0zM205 850q30 -1 51.5 -21.5t21.5 -50.5q0 -29 -21.5 -50
t-51.5 -21t-51.5 21t-21.5 50q0 30 21.5 50.5t51.5 20.5v1zM391 850q31 -1 52.5 -21.5t21.5 -50.5q0 -29 -21.5 -50t-52.5 -21q-30 0 -51.5 21t-21.5 50q0 30 21.5 50.5t51.5 20.5v1z" />
    <glyph glyph-name="currency" unicode="&#xa4;" horiz-adv-x="667" 
d="M195 128l-84 -84q-6 -7 -9.5 -10t-6.5 -3q-1 -1 -2 -1h-2h-2t-2 1q-3 0 -6.5 3t-9.5 9l-30 31q-6 5 -9 8.5t-3 6.5q-1 1 -1 2v2v2t1 2q0 3 3 6.5t9 9.5l84 85q-7 9 -13 19t-10 20q-11 23 -16.5 46.5t-5.5 49.5q0 24 4.5 46t13.5 43q5 12 12 24t15 24l-45 46l-39 39
q-6 5 -9 8.5t-3 6.5q-1 1 -1 2v2v1.5v1.5q1 3 3.5 6t9.5 10l30 32q6 5 9.5 8t6.5 3q1 1 2 1h2h2t2 -1q3 0 6.5 -3t9.5 -9l32 -31l52 -52q13 7 23.5 13t20.5 11q10 4 20.5 7t23.5 6q6 1 9.5 2t7.5 1q3 1 6 1.5t8 0.5v-115q-1 -1 -2 -1h-2q-1 -1 -2.5 -1.5t-4.5 -0.5
q-1 0 -1.5 -0.5t-1.5 -0.5v0h-1l-1 -0.5t-3 -0.5q-2 -1 -3.5 -1t-2.5 -1v0v0q-2 0 -4 -1t-5 -2q-3 -2 -6 -3t-6 -3q-1 -1 -2.5 -1.5t-2.5 -1.5q-4 -2 -8 -5t-10 -8q-23 -21 -35 -47t-12 -56q0 -29 12 -55t35 -48q6 -4 10 -7t8 -5q0 -1 1 -1.5t2 -0.5q3 -2 6.5 -4t7.5 -4
l4.5 -1.5t3.5 -0.5v-1h1t2.5 -0.5t3.5 -1.5h6l2 -1q2 -1 3.5 -1.5t2.5 -0.5h1v0q1 0 2 -0.5t2 -0.5v-114q-1 -1 -2 -1t-2 1h-3h-2h-1.5h-0.5q-3 0 -6.5 0.5t-9.5 1.5q-2 1 -4 1t-4 1h-0.5h-1.5l-6 2t-8 2q-6 2 -10.5 4t-8.5 3q-1 1 -2.5 1.5t-2.5 0.5q-5 2 -10 4.5l-11 5.5
q-2 1 -3.5 2t-3.5 2v0.5v0.5q-3 2 -6.5 4t-9.5 6v1zM473 541l84 84q6 5 9.5 8t6.5 3q1 1 2 1h2h2t2 -1q3 0 6.5 -3t9.5 -9l30 -30q7 -8 9.5 -11t3.5 -6v-1.5v-1.5v-2t-1 -2q0 -3 -3 -6.5t-9 -9.5l-84 -83q8 -13 15 -25t12 -24q9 -21 13.5 -43t4.5 -46q0 -26 -5.5 -49.5
t-16.5 -46.5q-4 -10 -10 -20t-13 -20l84 -83l9 -10.5t3 -6.5q1 -1 1 -2v-2v-2t-1 -2q0 -3 -3 -6.5t-9 -9.5l-30 -29q-6 -7 -9.5 -10t-6.5 -3q-1 -1 -2 -1h-2h-2t-2 1q-3 0 -6.5 3t-9.5 9l-84 85q-13 -10 -25.5 -16.5t-23.5 -11.5q-17 -7 -33.5 -10.5t-36.5 -5.5v26v5v61v5
v19q1 -1 2 -0.5t2 0.5v0h1t2 0.5t3 0.5q1 0 2 0.5t2 0.5q1 1 2.5 1h3.5l3 1.5t3 0.5q1 0 2 0.5l3 1.5q40 18 63 51.5t23 74.5q0 42 -23 75.5t-63 50.5l-3 1.5t-2 0.5l-3 1.5t-3 0.5t-3 0.5t-2 0.5h-1v0q-1 0 -2 0.5t-2 0.5q-2 0 -3.5 0.5t-2.5 1.5h-2h-2v21v5v61v4v26
q5 -1 9 -1.5t7 -1.5q3 0 5.5 -0.5t6.5 -1.5q2 0 3.5 -0.5t2.5 -0.5q3 -1 6.5 -1.5t8.5 -2.5l10.5 -3.5t9.5 -3.5t9 -4t9 -4q7 -4 14.5 -8.5l17.5 -10.5v1z" />
    <glyph glyph-name="guilsinglleft" unicode="&#x2039;" horiz-adv-x="341" 
d="M219 524l41 -34q3 -4 5.5 -6.5l4.5 -4.5q1 -2 2 -4.5t1 -5.5q0 -8 -7.5 -19t-25.5 -30q-19 -21 -34 -38t-24 -28q-5 -7 -7 -10.5t-2 -6.5q0 -1 1.5 -4t3.5 -6q0 -1 0.5 -1.5l1.5 -1.5l25 -31l32 -39q24 -30 30.5 -39.5t7.5 -15.5v-1.5v-1.5q0 -2 -0.5 -3.5t-0.5 -3.5
q-2 -3 -7 -7.5t-14 -10.5l-37 -23q-2 -2 -4.5 -3t-4.5 -2t-4.5 -1.5t-4.5 -0.5q-4 0 -9 4t-12 14l-92 133q-8 10 -12 16.5t-5 12.5q-1 3 -1 5.5v5.5q0 8 1.5 14.5t5.5 10.5l13 20l90 135l11 16l4 2t4 1q1 1 2 1h2h2t2 -1q4 0 7.5 -2.5t7.5 -5.5v1z" />
    <glyph glyph-name="guilsinglright" unicode="&#x203a;" horiz-adv-x="341" 
d="M164 512l90 -135l14 -19q3 -7 4.5 -13t1.5 -13v-5.5t-1 -5.5q-1 -6 -5 -12.5t-11 -17.5l-93 -131q-4 -7 -7.5 -11t-6.5 -6q-2 -1 -3.5 -1.5t-3.5 -0.5t-4.5 0.5t-5.5 1.5l-4 2l-4 2l-37 25q-9 5 -14 9.5t-7 7.5q0 2 -0.5 3.5t-0.5 3.5v1.5v1.5q1 6 8 15.5t30 38.5l32 40
l25 32q4 4 6 7.5t2 4.5q0 3 -2.5 6.5l-7.5 10.5q-9 11 -23.5 28t-34.5 38q-18 19 -25.5 30t-7.5 18q0 4 1.5 7.5t4.5 6.5q1 2 3 3.5t4 3.5l41 35q5 2 8 4.5t7 2.5q1 1 2 1h2q5 0 8 -1.5t4 -3.5l11 -15v0z" />
    <glyph glyph-name="daggerdbl" unicode="&#x2021;" horiz-adv-x="574" 
d="M358 569v-633q0 -12 3 -18t14 -11q2 0 4 -1l4 -2q9 -4 13.5 -9.5t4.5 -13.5q0 -14 -9.5 -19.5t-33.5 -5.5h-154q-16 0 -25 6.5t-9 18.5q0 8 4.5 14.5t13.5 8.5l15 5q6 2 9.5 9t3.5 18v646q0 13 -2.5 19t-11.5 11l-5 2.5t-6 2.5q-10 3 -15 9.5t-5 14.5q0 14 10 19.5
t35 5.5l134 1q28 -1 39.5 -7t11.5 -21q0 -7 -3.5 -12.5t-11.5 -9.5l-16 -7q-7 -4 -9.5 -12t-2.5 -30v1zM184 52h-53q-13 -1 -19 -2.5t-10 -8.5q-2 -2 -3 -4.5t-3 -5.5q-4 -8 -10.5 -12.5t-14.5 -4.5q-13 0 -19 8.5t-6 28.5v113q0 22 6.5 31t20.5 9q8 0 13 -3t9 -9l8 -12
q3 -7 11 -9t30 -2l40 1v-118v0zM390 170h40q22 -1 29.5 1t11.5 8l8 14q4 5 9.5 8t12.5 3q14 0 20.5 -9t6.5 -32v-111q0 -21 -5.5 -29.5t-19.5 -8.5q-8 0 -14.5 4.5t-10.5 12.5q-2 3 -3 5.5t-3 4.5q-4 7 -10 8.5t-19 1.5l-53 1v118v0zM184 353h-53q-13 -1 -19 -2.5t-10 -8.5
q-2 -2 -3 -4.5t-3 -5.5q-4 -8 -10.5 -12t-14.5 -4q-13 0 -19 8t-6 28v113q0 22 6.5 31.5t20.5 9.5q8 0 13 -3.5t9 -8.5l8 -13q3 -7 11 -8.5t30 -1.5l40 1v-119v0zM390 472h40q22 -1 29.5 0.5t11.5 7.5l8 15q4 4 9.5 7.5t12.5 3.5q14 0 20.5 -9.5t6.5 -32.5v-111
q0 -21 -5.5 -29t-19.5 -8q-8 0 -14.5 4t-10.5 12q-2 3 -3 5.5t-3 4.5q-4 7 -10 8.5t-19 1.5l-53 1v119v0z" />
    <glyph glyph-name="quotesinglbase" unicode="&#x201a;" horiz-adv-x="334" 
d="M268 64q0 -7 -0.5 -13t-1.5 -12q-7 -41 -35.5 -81.5t-73.5 -70.5q-22 -14 -39 -21t-29 -7q-10 0 -16 6t-6 16q0 7 4.5 13t13.5 11q15 7 26 14t20 14q5 4 9 7t7 7l2.5 2.5l2.5 2.5q8 9 13 16.5t5 12.5t-3.5 7.5t-11.5 3.5l-6 1l-7 1q-31 4 -51 28.5t-20 58.5q0 39 27 66
t66 27q43 0 73.5 -32.5t30.5 -78.5v1z" />
    <glyph glyph-name="quotedblbase" unicode="&#x201e;" horiz-adv-x="567" 
d="M268 64q0 -7 -0.5 -13t-1.5 -12q-7 -41 -35.5 -81.5t-73.5 -70.5q-22 -14 -39 -21t-29 -7q-10 0 -16 6t-6 16q0 7 4.5 13t13.5 11q15 7 26 14t20 14q5 4 9 7t7 7l2.5 2.5l2.5 2.5q8 9 13 16.5t5 12.5t-3.5 7.5t-11.5 3.5l-6 1l-7 1q-31 4 -51 28.5t-20 58.5q0 39 27 66
t66 27q43 0 73.5 -32.5t30.5 -78.5v1zM501 64q0 -7 -0.5 -13t-1.5 -12q-7 -41 -35.5 -81.5t-73.5 -70.5q-21 -14 -38 -21t-30 -7q-9 0 -15.5 6t-6.5 16q0 7 4.5 13t14.5 11q14 7 25.5 14t20.5 14q4 4 8 7t7 7l2.5 2.5l2.5 2.5q8 9 13 16.5t5 12.5t-3 7.5t-11 3.5l-7 1l-7 1
q-31 4 -51 28.5t-20 58.5q0 39 27 66t66 27q43 0 73.5 -32.5t30.5 -78.5v1z" />
    <glyph glyph-name="perthousand" unicode="&#x2030;" horiz-adv-x="1116" 
d="M532 283v-36q-18 -8 -25.5 -19.5t-7.5 -32.5v-107q0 -29 7 -42t26 -18v-35h-13q-67 0 -109.5 39t-42.5 103q0 65 43.5 106t111.5 41l10 1v0zM557 283h10q68 -1 111.5 -42.5t43.5 -106.5q0 -63 -42 -102t-110 -39h-13v36q19 4 26 17t7 41v109q0 20 -7.5 31.5t-25.5 18.5
v37v0zM920 283v-36q-18 -8 -25.5 -19.5t-7.5 -32.5v-107q0 -29 7 -42t26 -18v-35h-13q-67 0 -109.5 39t-42.5 103q0 65 43.5 106t111.5 41l10 1v0zM945 283h10q68 -1 111.5 -42.5t43.5 -106.5q0 -63 -42 -102t-110 -39h-13v36q19 4 26 17t7 41v109q0 20 -7.5 31.5
t-25.5 18.5v37v0zM498 666h57l-324 -666h-57l324 666v0zM172 673v-37q-18 -8 -25.5 -19.5t-7.5 -31.5v-107q0 -29 7 -42t26 -18v-35h-13q-67 -1 -109.5 38.5t-42.5 102.5q0 65 43.5 106.5t111.5 41.5l10 1v0zM197 673h10q68 -1 111.5 -42.5t43.5 -106.5q0 -63 -42 -102.5
t-110 -39.5l-13 1v36q19 4 26 17t7 41v109q0 19 -7.5 30.5t-25.5 18.5v38v0z" />
    <glyph glyph-name="Acircumflex" unicode="&#xc2;" horiz-adv-x="619" 
d="M202 542l25 -101l-87 -315q-1 -4 -1.5 -7.5t-0.5 -6.5q-1 -3 -1 -6.5v-6.5q0 -14 7.5 -25.5t21.5 -17.5l16 -7q8 -5 12.5 -11.5t4.5 -14.5q0 -11 -9.5 -17t-26.5 -6h-124q-17 0 -28 7t-11 19q0 8 5 14t17 11q31 14 45.5 32t24.5 56l110 403v0zM236 667h197l135 -574
q1 -4 1.5 -6.5t1.5 -5.5q4 -14 9.5 -20.5t16.5 -10.5q1 -1 2.5 -1.5t2.5 -0.5q10 -5 13.5 -10.5t3.5 -14.5q0 -11 -9.5 -17t-28.5 -6h-244q-14 0 -23 6.5t-9 18.5q0 6 1.5 10t4.5 7q3 2 7 4.5t9 5.5q1 1 2 1.5t2 0.5q7 5 10 10.5t3 14.5l-1 14l-16 71h-136l13 60h110
l-90 395l12 48v0zM324 760l-24 -38l-5 -9q0 -1 -0.5 -1.5l-0.5 -0.5q-4 -3 -8.5 -4t-15.5 -1l-69 1q-12 -1 -17.5 1.5t-5.5 8.5v2t1 3t2.5 4.5t4.5 5.5l95 100q8 7 14 11.5t12 5.5q2 1 3.5 1h2.5l25 1q4 -1 8.5 -2.5t9.5 -3.5q4 -2 8.5 -5.5t8.5 -8.5l97 -98l7 -8l3 -8
q0 -7 -3.5 -9t-13.5 -2l-80 1q-15 -1 -23 2.5t-13 11.5l-23 39v0z" />
    <glyph glyph-name="Ecircumflex" unicode="&#xca;" horiz-adv-x="587" 
d="M308 667v-667h-218h-13q-19 0 -28 6.5t-9 19.5q0 9 5 15.5t15 9.5q4 1 7.5 2.5t6.5 2.5q11 5 13.5 11t2.5 21v490q0 14 -2.5 20t-13.5 11q-3 1 -6.5 2.5t-7.5 2.5q-10 3 -15 9.5t-5 15.5q0 14 9.5 20.5t27.5 6.5l13 1h218v0zM349 0v53q59 7 95 38t57 89q1 3 2.5 6l2.5 5
q5 9 9.5 12.5t12.5 3.5q15 0 20.5 -7.5t5.5 -28.5v-171h-205v0zM349 311v57q28 13 41.5 28.5t19.5 42.5q5 19 10.5 26t18.5 7q14 0 19 -8.5t5 -32.5v-185q0 -24 -5 -32.5t-19 -8.5q-11 0 -17 6.5t-11 22.5q-8 34 -23 52t-39 24v1zM349 667h198v-174q0 -16 -5.5 -23t-18.5 -7
q-10 0 -15 3.5t-9 13.5q-1 1 -1.5 2.5t-0.5 2.5q-19 58 -55 87.5t-93 35.5v59v0zM288 760l-24 -38l-5 -9q0 -1 -0.5 -1.5l-0.5 -0.5q-4 -3 -8.5 -4t-15.5 -1l-69 1q-12 -1 -17.5 1.5t-5.5 8.5v2t1 3t2.5 4.5t4.5 5.5l95 100q8 7 14 11.5t12 5.5q2 1 3.5 1h2.5l25 1
q4 -1 8.5 -2.5t9.5 -3.5q4 -2 8.5 -5.5t8.5 -8.5l97 -98l7 -8l3 -8q0 -7 -3.5 -9t-13.5 -2l-80 1q-15 -1 -23 2.5t-13 11.5l-23 39v0z" />
    <glyph glyph-name="Aacute" unicode="&#xc1;" horiz-adv-x="619" 
d="M202 542l25 -101l-87 -315q-1 -4 -1.5 -7.5t-0.5 -6.5q-1 -3 -1 -6.5v-6.5q0 -14 7.5 -25.5t21.5 -17.5l16 -7q8 -5 12.5 -11.5t4.5 -14.5q0 -11 -9.5 -17t-26.5 -6h-124q-17 0 -28 7t-11 19q0 8 5 14t17 11q31 14 45.5 32t24.5 56l110 403v0zM236 667h197l135 -574
q1 -4 1.5 -6.5t1.5 -5.5q4 -14 9.5 -20.5t16.5 -10.5q1 -1 2.5 -1.5t2.5 -0.5q10 -5 13.5 -10.5t3.5 -14.5q0 -11 -9.5 -17t-28.5 -6h-244q-14 0 -23 6.5t-9 18.5q0 6 1.5 10t4.5 7q3 2 7 4.5t9 5.5q1 1 2 1.5t2 0.5q7 5 10 10.5t3 14.5l-1 14l-16 71h-136l13 60h110
l-90 395l12 48v0zM454 825l-134 -104l-9 -7q-3 -3 -5 -4.5t-4 -2.5q-2 0 -3.5 -0.5t-3.5 -0.5l-35 1q-6 -1 -10 1t-4 6l2 7l73 113q3 3 5 6t4 5q4 4 9.5 5t14.5 1l97 1q7 -1 11.5 -4t4.5 -8v-2t-1 -2q-1 -2 -4 -5t-8 -7v1z" />
    <glyph glyph-name="Edieresis" unicode="&#xcb;" horiz-adv-x="587" 
d="M308 667v-667h-218h-13q-19 0 -28 6.5t-9 19.5q0 9 5 15.5t15 9.5q4 1 7.5 2.5t6.5 2.5q11 5 13.5 11t2.5 21v490q0 14 -2.5 20t-13.5 11q-3 1 -6.5 2.5t-7.5 2.5q-10 3 -15 9.5t-5 15.5q0 14 9.5 20.5t27.5 6.5l13 1h218v0zM349 0v53q59 7 95 38t57 89q1 3 2.5 6l2.5 5
q5 9 9.5 12.5t12.5 3.5q15 0 20.5 -7.5t5.5 -28.5v-171h-205v0zM349 311v57q28 13 41.5 28.5t19.5 42.5q5 19 10.5 26t18.5 7q14 0 19 -8.5t5 -32.5v-185q0 -24 -5 -32.5t-19 -8.5q-11 0 -17 6.5t-11 22.5q-8 34 -23 52t-39 24v1zM349 667h198v-174q0 -16 -5.5 -23t-18.5 -7
q-10 0 -15 3.5t-9 13.5q-1 1 -1.5 2.5t-0.5 2.5q-19 58 -55 87.5t-93 35.5v59v0zM200 850q30 -1 51.5 -21.5t21.5 -50.5q0 -29 -21.5 -50t-51.5 -21t-51.5 21t-21.5 50q0 30 21.5 50.5t51.5 20.5v1zM386 850q31 -1 52.5 -21.5t21.5 -50.5q0 -29 -21.5 -50t-52.5 -21
q-30 0 -51.5 21t-21.5 50q0 30 21.5 50.5t51.5 20.5v1z" />
    <glyph glyph-name="Egrave" unicode="&#xc8;" horiz-adv-x="587" 
d="M308 667v-667h-218h-13q-19 0 -28 6.5t-9 19.5q0 9 5 15.5t15 9.5q4 1 7.5 2.5t6.5 2.5q11 5 13.5 11t2.5 21v490q0 14 -2.5 20t-13.5 11q-3 1 -6.5 2.5t-7.5 2.5q-10 3 -15 9.5t-5 15.5q0 14 9.5 20.5t27.5 6.5l13 1h218v0zM349 0v53q59 7 95 38t57 89q1 3 2.5 6l2.5 5
q5 9 9.5 12.5t12.5 3.5q15 0 20.5 -7.5t5.5 -28.5v-171h-205v0zM349 311v57q28 13 41.5 28.5t19.5 42.5q5 19 10.5 26t18.5 7q14 0 19 -8.5t5 -32.5v-185q0 -24 -5 -32.5t-19 -8.5q-11 0 -17 6.5t-11 22.5q-8 34 -23 52t-39 24v1zM349 667h198v-174q0 -16 -5.5 -23t-18.5 -7
q-10 0 -15 3.5t-9 13.5q-1 1 -1.5 2.5t-0.5 2.5q-19 58 -55 87.5t-93 35.5v59v0zM168 852h98q10 -1 15 -2t9 -5q2 -2 4 -5t5 -7l73 -112l2 -6q0 -5 -4 -7t-10 -2l-36 1q-1 -1 -2 -1t-3 1q-2 0 -4 2t-6 4l-9 8l-135 104q-6 4 -8.5 7t-3.5 5v1.5v0.5q0 5 4.5 8.5t10.5 3.5v1z
" />
    <glyph glyph-name="Iacute" unicode="&#xcd;" horiz-adv-x="398" 
d="M308 0h-218h-13q-19 0 -28 6.5t-9 19.5q0 9 5 15.5t15 9.5q4 1 7.5 2.5t6.5 2.5q11 5 13.5 11t2.5 21v490q0 14 -2.5 20t-13.5 11q-3 1 -6.5 2.5t-7.5 2.5q-10 3 -15 9.5t-5 15.5q0 14 9.5 20.5t27.5 6.5l13 1h218h13q19 -2 28 -8t9 -20q0 -9 -5 -15.5t-15 -9.5
q-4 -1 -7.5 -2.5t-6.5 -2.5q-11 -5 -13.5 -11t-2.5 -21v-488q0 -16 2.5 -22t13.5 -11q3 -1 6.5 -2.5t7.5 -2.5q10 -3 15 -9.5t5 -15.5q0 -13 -9.5 -19.5t-27.5 -6.5h-13v0zM343 825l-134 -104l-9 -7q-3 -3 -5 -4.5t-4 -2.5q-2 0 -3.5 -0.5t-3.5 -0.5l-35 1q-6 -1 -10 1t-4 6
l2 7l73 113q3 3 5 6t4 5q4 4 9.5 5t14.5 1l97 1q7 -1 11.5 -4t4.5 -8v-2t-1 -2q-1 -2 -4 -5t-8 -7v1z" />
    <glyph glyph-name="Icircumflex" unicode="&#xce;" horiz-adv-x="398" 
d="M308 0h-218h-13q-19 0 -28 6.5t-9 19.5q0 9 5 15.5t15 9.5q4 1 7.5 2.5t6.5 2.5q11 5 13.5 11t2.5 21v490q0 14 -2.5 20t-13.5 11q-3 1 -6.5 2.5t-7.5 2.5q-10 3 -15 9.5t-5 15.5q0 14 9.5 20.5t27.5 6.5l13 1h218h13q19 -2 28 -8t9 -20q0 -9 -5 -15.5t-15 -9.5
q-4 -1 -7.5 -2.5t-6.5 -2.5q-11 -5 -13.5 -11t-2.5 -21v-488q0 -16 2.5 -22t13.5 -11q3 -1 6.5 -2.5t7.5 -2.5q10 -3 15 -9.5t5 -15.5q0 -13 -9.5 -19.5t-27.5 -6.5h-13v0zM194 760l-24 -38l-5 -9q0 -1 -0.5 -1.5l-0.5 -0.5q-4 -3 -8.5 -4t-15.5 -1l-69 1q-12 -1 -17.5 1.5
t-5.5 8.5v2t1 3t2.5 4.5t4.5 5.5l95 100q8 7 14 11.5t12 5.5q2 1 3.5 1h2.5l25 1q4 -1 8.5 -2.5t9.5 -3.5q4 -2 8.5 -5.5t8.5 -8.5l97 -98l7 -8l3 -8q0 -7 -3.5 -9t-13.5 -2l-80 1q-15 -1 -23 2.5t-13 11.5l-23 39v0z" />
    <glyph glyph-name="Idieresis" unicode="&#xcf;" horiz-adv-x="398" 
d="M308 0h-218h-13q-19 0 -28 6.5t-9 19.5q0 9 5 15.5t15 9.5q4 1 7.5 2.5t6.5 2.5q11 5 13.5 11t2.5 21v490q0 14 -2.5 20t-13.5 11q-3 1 -6.5 2.5t-7.5 2.5q-10 3 -15 9.5t-5 15.5q0 14 9.5 20.5t27.5 6.5l13 1h218h13q19 -2 28 -8t9 -20q0 -9 -5 -15.5t-15 -9.5
q-4 -1 -7.5 -2.5t-6.5 -2.5q-11 -5 -13.5 -11t-2.5 -21v-488q0 -16 2.5 -22t13.5 -11q3 -1 6.5 -2.5t7.5 -2.5q10 -3 15 -9.5t5 -15.5q0 -13 -9.5 -19.5t-27.5 -6.5h-13v0zM106 850q30 -1 51.5 -21.5t21.5 -50.5q0 -29 -21.5 -50t-51.5 -21t-51.5 21t-21.5 50
q0 30 21.5 50.5t51.5 20.5v1zM292 850q31 -1 52.5 -21.5t21.5 -50.5q0 -29 -21.5 -50t-52.5 -21q-30 0 -51.5 21t-21.5 50q0 30 21.5 50.5t51.5 20.5v1z" />
    <glyph glyph-name="Igrave" unicode="&#xcc;" horiz-adv-x="398" 
d="M308 0h-218h-13q-19 0 -28 6.5t-9 19.5q0 9 5 15.5t15 9.5q4 1 7.5 2.5t6.5 2.5q11 5 13.5 11t2.5 21v490q0 14 -2.5 20t-13.5 11q-3 1 -6.5 2.5t-7.5 2.5q-10 3 -15 9.5t-5 15.5q0 14 9.5 20.5t27.5 6.5l13 1h218h13q19 -2 28 -8t9 -20q0 -9 -5 -15.5t-15 -9.5
q-4 -1 -7.5 -2.5t-6.5 -2.5q-11 -5 -13.5 -11t-2.5 -21v-488q0 -16 2.5 -22t13.5 -11q3 -1 6.5 -2.5t7.5 -2.5q10 -3 15 -9.5t5 -15.5q0 -13 -9.5 -19.5t-27.5 -6.5h-13v0zM57 852h98q10 -1 15 -2t9 -5q2 -2 4 -5t5 -7l73 -112l2 -6q0 -5 -4 -7t-10 -2l-36 1q-1 -1 -2 -1
t-3 1q-2 0 -4 2t-6 4l-9 8l-135 104q-6 4 -8.5 7t-3.5 5v1.5v0.5q0 5 4.5 8.5t10.5 3.5v1z" />
    <glyph glyph-name="Oacute" unicode="&#xd3;" horiz-adv-x="634" 
d="M297 627q-25 -9 -35 -24.5t-10 -44.5v-436q0 -41 10 -58t35 -24v-53q-127 10 -202 103.5t-75 241.5q0 149 76.5 245t200.5 102v-52v0zM337 627v53q125 -7 201 -103t76 -245q0 -148 -74.5 -241.5t-202.5 -103.5v54q25 5 35 24t10 56v438q0 28 -10 43.5t-35 23.5v1z
M461 825l-134 -104l-9 -7q-3 -3 -5 -4.5t-4 -2.5q-2 0 -3.5 -0.5t-3.5 -0.5l-35 1q-6 -1 -10 1t-4 6l2 7l73 113q3 3 5 6t4 5q4 4 9.5 5t14.5 1l97 1q7 -1 11.5 -4t4.5 -8v-2t-1 -2q-1 -2 -4 -5t-8 -7v1z" />
    <glyph glyph-name="Ocircumflex" unicode="&#xd4;" horiz-adv-x="634" 
d="M297 627q-25 -9 -35 -24.5t-10 -44.5v-436q0 -41 10 -58t35 -24v-53q-127 10 -202 103.5t-75 241.5q0 149 76.5 245t200.5 102v-52v0zM337 627v53q125 -7 201 -103t76 -245q0 -148 -74.5 -241.5t-202.5 -103.5v54q25 5 35 24t10 56v438q0 28 -10 43.5t-35 23.5v1z
M312 760l-24 -38l-5 -9q0 -1 -0.5 -1.5l-0.5 -0.5q-4 -3 -8.5 -4t-15.5 -1l-69 1q-12 -1 -17.5 1.5t-5.5 8.5v2t1 3t2.5 4.5t4.5 5.5l95 100q8 7 14 11.5t12 5.5q2 1 3.5 1h2.5l25 1q4 -1 8.5 -2.5t9.5 -3.5q4 -2 8.5 -5.5t8.5 -8.5l97 -98l7 -8l3 -8q0 -7 -3.5 -9t-13.5 -2
l-80 1q-15 -1 -23 2.5t-13 11.5l-23 39v0z" />
    <glyph glyph-name="Ograve" unicode="&#xd2;" horiz-adv-x="634" 
d="M297 627q-25 -9 -35 -24.5t-10 -44.5v-436q0 -41 10 -58t35 -24v-53q-127 10 -202 103.5t-75 241.5q0 149 76.5 245t200.5 102v-52v0zM337 627v53q125 -7 201 -103t76 -245q0 -148 -74.5 -241.5t-202.5 -103.5v54q25 5 35 24t10 56v438q0 28 -10 43.5t-35 23.5v1z
M175 852h98q10 -1 15 -2t9 -5q2 -2 4 -5t5 -7l73 -112l2 -6q0 -5 -4 -7t-10 -2l-36 1q-1 -1 -2 -1t-3 1q-2 0 -4 2t-6 4l-9 8l-135 104q-6 4 -8.5 7t-3.5 5v1.5v0.5q0 5 4.5 8.5t10.5 3.5v1z" />
    <glyph glyph-name="Uacute" unicode="&#xda;" horiz-adv-x="677" 
d="M359 51v-64h-15q-43 0 -73.5 4.5t-58.5 14.5q-7 2 -13 4.5t-12 5.5q-58 28 -81.5 67.5t-23.5 110.5v384q0 14 -2.5 20t-13.5 11q-3 1 -6.5 2.5t-7.5 2.5q-10 3 -15 9.5t-5 15.5q0 13 9.5 20t26.5 7l14 1h218h13q18 -1 27.5 -7.5t9.5 -20.5q0 -9 -5 -15.5t-15 -9.5
q-4 -1 -7.5 -2.5t-6.5 -2.5q-11 -5 -13.5 -11t-2.5 -21v-409q0 -38 2 -54t6 -28q1 0 1 -0.5v-0.5q7 -16 17 -23t33 -12v1zM398 -13v64q56 7 86.5 46.5t30.5 103.5v319q0 33 -12.5 56t-37.5 36q-6 3 -10 6t-7 5q-4 4 -5.5 8.5t-1.5 10.5q0 13 9 18.5t29 5.5l122 1
q13 -1 18.5 -1.5t9.5 -2.5q1 0 1.5 -0.5l0.5 -0.5q6 -4 9.5 -9t3.5 -11q0 -5 -1 -8.5t-3 -6.5q-3 -3 -9 -7t-16 -10q-22 -12 -34 -36t-12 -55v-317q0 -89 -45 -145.5t-126 -69.5v0zM483 825l-134 -104l-9 -7q-3 -3 -5 -4.5t-4 -2.5q-2 0 -3.5 -0.5t-3.5 -0.5l-35 1
q-6 -1 -10 1t-4 6l2 7l73 113q3 3 5 6t4 5q4 4 9.5 5t14.5 1l97 1q7 -1 11.5 -4t4.5 -8v-2t-1 -2q-1 -2 -4 -5t-8 -7v1z" />
    <glyph glyph-name="Ucircumflex" unicode="&#xdb;" horiz-adv-x="677" 
d="M359 51v-64h-15q-43 0 -73.5 4.5t-58.5 14.5q-7 2 -13 4.5t-12 5.5q-58 28 -81.5 67.5t-23.5 110.5v384q0 14 -2.5 20t-13.5 11q-3 1 -6.5 2.5t-7.5 2.5q-10 3 -15 9.5t-5 15.5q0 13 9.5 20t26.5 7l14 1h218h13q18 -1 27.5 -7.5t9.5 -20.5q0 -9 -5 -15.5t-15 -9.5
q-4 -1 -7.5 -2.5t-6.5 -2.5q-11 -5 -13.5 -11t-2.5 -21v-409q0 -38 2 -54t6 -28q1 0 1 -0.5v-0.5q7 -16 17 -23t33 -12v1zM398 -13v64q56 7 86.5 46.5t30.5 103.5v319q0 33 -12.5 56t-37.5 36q-6 3 -10 6t-7 5q-4 4 -5.5 8.5t-1.5 10.5q0 13 9 18.5t29 5.5l122 1
q13 -1 18.5 -1.5t9.5 -2.5q1 0 1.5 -0.5l0.5 -0.5q6 -4 9.5 -9t3.5 -11q0 -5 -1 -8.5t-3 -6.5q-3 -3 -9 -7t-16 -10q-22 -12 -34 -36t-12 -55v-317q0 -89 -45 -145.5t-126 -69.5v0zM350 760l-24 -38l-5 -9q0 -1 -0.5 -1.5l-0.5 -0.5q-4 -3 -8.5 -4t-15.5 -1l-69 1
q-12 -1 -17.5 1.5t-5.5 8.5v2t1 3t2.5 4.5t4.5 5.5l95 100q8 7 14 11.5t12 5.5q2 1 3.5 1h2.5l25 1q4 -1 8.5 -2.5t9.5 -3.5q4 -2 8.5 -5.5t8.5 -8.5l97 -98l7 -8l3 -8q0 -7 -3.5 -9t-13.5 -2l-80 1q-15 -1 -23 2.5t-13 11.5l-23 39v0z" />
    <glyph glyph-name="Ugrave" unicode="&#xd9;" horiz-adv-x="677" 
d="M359 51v-64h-15q-43 0 -73.5 4.5t-58.5 14.5q-7 2 -13 4.5t-12 5.5q-58 28 -81.5 67.5t-23.5 110.5v384q0 14 -2.5 20t-13.5 11q-3 1 -6.5 2.5t-7.5 2.5q-10 3 -15 9.5t-5 15.5q0 13 9.5 20t26.5 7l14 1h218h13q18 -1 27.5 -7.5t9.5 -20.5q0 -9 -5 -15.5t-15 -9.5
q-4 -1 -7.5 -2.5t-6.5 -2.5q-11 -5 -13.5 -11t-2.5 -21v-409q0 -38 2 -54t6 -28q1 0 1 -0.5v-0.5q7 -16 17 -23t33 -12v1zM398 -13v64q56 7 86.5 46.5t30.5 103.5v319q0 33 -12.5 56t-37.5 36q-6 3 -10 6t-7 5q-4 4 -5.5 8.5t-1.5 10.5q0 13 9 18.5t29 5.5l122 1
q13 -1 18.5 -1.5t9.5 -2.5q1 0 1.5 -0.5l0.5 -0.5q6 -4 9.5 -9t3.5 -11q0 -5 -1 -8.5t-3 -6.5q-3 -3 -9 -7t-16 -10q-22 -12 -34 -36t-12 -55v-317q0 -89 -45 -145.5t-126 -69.5v0zM217 852h98q10 -1 15 -2t9 -5q2 -2 4 -5t5 -7l73 -112l2 -6q0 -5 -4 -7t-10 -2l-36 1
q-1 -1 -2 -1t-3 1q-2 0 -4 2t-6 4l-9 8l-135 104q-6 4 -8.5 7t-3.5 5v1.5v0.5q0 5 4.5 8.5t10.5 3.5v1z" />
    <glyph glyph-name="circumflex" unicode="&#x2dc;" horiz-adv-x="500" 
d="M245 760l-24 -38l-5 -9q0 -1 -0.5 -1.5l-0.5 -0.5q-4 -3 -8.5 -4t-15.5 -1l-69 1q-12 -1 -17.5 1.5t-5.5 8.5v2t1 3t2.5 4.5t4.5 5.5l95 100q8 7 14 11.5t12 5.5q2 1 3.5 1h2.5l25 1q4 -1 8.5 -2.5t9.5 -3.5q4 -2 8.5 -5.5t8.5 -8.5l97 -98l7 -8l3 -8q0 -7 -3.5 -9
t-13.5 -2l-80 1q-15 -1 -23 2.5t-13 11.5l-23 39v0z" />
    <glyph glyph-name="tilde" unicode="&#x2c6;" horiz-adv-x="500" 
d="M192 851q2 -1 4 -1h5q14 -1 30 -7t41 -20q21 -11 40 -17t32 -6q10 0 16.5 6.5t10.5 21.5q3 11 6.5 15t9.5 4q12 0 17 -5.5t5 -19.5q0 -8 -1.5 -17t-4.5 -19t-7 -19t-9 -17q-13 -22 -33 -33t-44 -11h-5.5h-4.5q-13 2 -27 6.5t-35 14.5l-33 17q-17 7 -27.5 10.5t-18.5 3.5
q-10 0 -17 -6.5t-12 -20.5q-2 -5 -3.5 -8.5t-3.5 -6.5t-4 -4t-5 -1q-10 0 -16 6.5t-6 18.5q0 8 2 17.5t5 18.5q4 12 9.5 22.5t11.5 19.5q14 18 32 27t40 9v1z" />
    <glyph glyph-name="cedilla" unicode="&#xb8;" horiz-adv-x="500" 
d="M252 -43q41 0 71.5 -36.5t30.5 -83.5q0 -45 -36 -77t-87 -32q-21 0 -32.5 7t-11.5 20q0 8 5.5 14t15.5 5h15q27 -1 44 11.5t17 32.5q0 16 -10 24.5t-34 11.5q-22 3 -33 16t-11 36q0 24 15 37.5t41 13.5v0z" />
    <glyph glyph-name="Scaron" unicode="&#x160;" 
 />
    <glyph glyph-name="scaron" unicode="&#x161;" 
 />
    <glyph glyph-name="Zcaron" unicode="&#x17d;" 
 />
    <glyph glyph-name="zcaron" unicode="&#x17e;" 
 />
    <glyph glyph-name="brokenbar" unicode="&#xa6;" 
 />
    <glyph glyph-name="Eth" unicode="&#xd0;" 
 />
    <glyph glyph-name="eth" unicode="&#xf0;" 
 />
    <glyph glyph-name="Yacute" unicode="&#xdd;" horiz-adv-x="597" 
d="M402 306v-213q0 -19 4.5 -26t21.5 -12q3 -1 5.5 -1.5t5.5 -1.5q11 -2 17 -8.5t6 -17.5q0 -14 -10 -20t-33 -6h-16h-220h-16q-22 0 -32.5 6.5t-10.5 20.5q0 10 6 16.5t17 8.5q4 1 7 1.5t5 1.5q17 5 21 12t4 25v166l-138 329q-4 10 -9 16t-13 11q-5 3 -9 5.5t-6 4.5
q-4 4 -5 7.5t-1 9.5q0 13 9 19t28 6l240 1q20 -1 29.5 -7t9.5 -20q0 -7 -3.5 -13t-10.5 -11l-14 -8q-4 -3 -6.5 -7.5t-2.5 -9.5q0 -2 0.5 -5.5t1.5 -6.5q0 -2 0.5 -3.5t0.5 -3.5q1 -1 1.5 -2.5t0.5 -2.5l115 -261v0zM420 352l-28 64l51 115q2 4 3.5 9.5t2.5 10.5t1.5 9
t0.5 8q0 15 -7.5 25.5t-24.5 17.5q-6 2 -10 4t-7 4q-7 4 -9 8t-2 11q0 16 10.5 22t36.5 6l121 1q17 -1 25.5 -8t8.5 -21q0 -7 -2 -11.5t-8 -8.5l-5 -2.5l-7 -3.5q-22 -10 -35.5 -23.5t-23.5 -33.5l-11 -24l-81 -179v0zM443 825l-134 -104l-9 -7q-3 -3 -5 -4.5t-4 -2.5
q-2 0 -3.5 -0.5t-3.5 -0.5l-35 1q-6 -1 -10 1t-4 6l2 7l73 113q3 3 5 6t4 5q4 4 9.5 5t14.5 1l97 1q7 -1 11.5 -4t4.5 -8v-2t-1 -2q-1 -2 -4 -5t-8 -7v1z" />
    <glyph glyph-name="yacute" unicode="&#xfd;" horiz-adv-x="597" 
d="M402 306v-213q0 -19 4.5 -26t21.5 -12q3 -1 5.5 -1.5t5.5 -1.5q11 -2 17 -8.5t6 -17.5q0 -14 -10 -20t-33 -6h-16h-220h-16q-22 0 -32.5 6.5t-10.5 20.5q0 10 6 16.5t17 8.5q4 1 7 1.5t5 1.5q17 5 21 12t4 25v166l-138 329q-4 10 -9 16t-13 11q-5 3 -9 5.5t-6 4.5
q-4 4 -5 7.5t-1 9.5q0 13 9 19t28 6l240 1q20 -1 29.5 -7t9.5 -20q0 -7 -3.5 -13t-10.5 -11l-14 -8q-4 -3 -6.5 -7.5t-2.5 -9.5q0 -2 0.5 -5.5t1.5 -6.5q0 -2 0.5 -3.5t0.5 -3.5q1 -1 1.5 -2.5t0.5 -2.5l115 -261v0zM420 352l-28 64l51 115q2 4 3.5 9.5t2.5 10.5t1.5 9
t0.5 8q0 15 -7.5 25.5t-24.5 17.5q-6 2 -10 4t-7 4q-7 4 -9 8t-2 11q0 16 10.5 22t36.5 6l121 1q17 -1 25.5 -8t8.5 -21q0 -7 -2 -11.5t-8 -8.5l-5 -2.5l-7 -3.5q-22 -10 -35.5 -23.5t-23.5 -33.5l-11 -24l-81 -179v0zM443 825l-134 -104l-9 -7q-3 -3 -5 -4.5t-4 -2.5
q-2 0 -3.5 -0.5t-3.5 -0.5l-35 1q-6 -1 -10 1t-4 6l2 7l73 113q3 3 5 6t4 5q4 4 9.5 5t14.5 1l97 1q7 -1 11.5 -4t4.5 -8v-2t-1 -2q-1 -2 -4 -5t-8 -7v1z" />
    <glyph glyph-name="Thorn" unicode="&#xde;" 
 />
    <glyph glyph-name="thorn" unicode="&#xfe;" 
 />
    <glyph glyph-name="multiply" unicode="&#xd7;" 
 />
    <glyph glyph-name="onesuperior" unicode="&#xb9;" 
 />
    <glyph glyph-name="twosuperior" unicode="&#xb2;" 
 />
    <glyph glyph-name="threesuperior" unicode="&#xb3;" 
 />
    <glyph glyph-name="onehalf" unicode="&#xbd;" 
 />
    <glyph glyph-name="onequarter" unicode="&#xbc;" 
 />
    <glyph glyph-name="threequarters" unicode="&#xbe;" 
 />
    <glyph glyph-name="endash" unicode="&#x2013;" horiz-adv-x="574" 
d="M534 365v-68q0 -12 -4 -16.5t-16 -4.5l-454 1q-11 -1 -15.5 3.5t-4.5 15.5v69q0 10 4.5 14.5t15.5 4.5l454 1q12 -1 16 -5.5t4 -15.5v1z" />
    <glyph glyph-name="sfthyphen" unicode="&#xad;" 
 />
    <glyph glyph-name="filledbox" unicode="&#x25a0;" 
 />
    <glyph glyph-name="bullet" unicode="&#x2022;" horiz-adv-x="600" 
d="M198 286q0 39 28 67t68 28q41 0 69.5 -28t28.5 -68t-28.5 -68t-69.5 -28q-40 0 -68 28t-28 68v1z" />
    <glyph glyph-name="overstore" unicode="&#xaf;" 
 />
    <glyph glyph-name="degree" unicode="&#xb0;" 
 />
    <glyph glyph-name="middot" unicode="&#xb7;" 
 />
    <glyph glyph-name="invcircle" unicode="&#x25d9;" 
 />
    <glyph glyph-name="Rcaron" unicode="&#x158;" 
 />
    <glyph glyph-name="Ncaron" unicode="&#x147;" 
 />
    <glyph glyph-name="2510" unicode="&#x2510;" 
 />
  </font>
</defs>
</svg>
